<svg width="22" height="77" viewBox="0 0 22 77" fill="none" xmlns="http://www.w3.org/2000/svg">
<line x1="9.75" y1="27.75" x2="9.75" y2="76.25" stroke="#1B6AEA" stroke-width="1.5" stroke-linecap="round"/>
<path d="M7.07634 15.0847L8.69059 14.619L18.41 4.78319C18.4867 4.70463 18.5294 4.59906 18.5288 4.48929C18.5283 4.37952 18.4847 4.27436 18.4073 4.19652L17.8252 3.60802C17.7876 3.56937 17.7426 3.5386 17.693 3.51751C17.6434 3.49641 17.59 3.48542 17.5361 3.48516C17.4822 3.48491 17.4287 3.49539 17.3789 3.51602C17.329 3.53664 17.2838 3.56698 17.2458 3.60527L7.55209 13.4154L7.07542 15.0838L7.07634 15.0847ZM18.9774 2.44202L19.5595 3.03144C20.3625 3.84452 20.3698 5.15627 19.5742 5.9611L9.55867 16.0976L6.10834 17.0913C5.89769 17.1502 5.67225 17.1232 5.48149 17.0162C5.29073 16.9091 5.15024 16.7307 5.09084 16.5202C5.04664 16.3688 5.04601 16.2081 5.08901 16.0564L6.09276 12.5364L16.0817 2.42644C16.2716 2.23518 16.4977 2.08366 16.7468 1.98071C16.996 1.87776 17.2631 1.82544 17.5326 1.82681C17.8022 1.82817 18.0687 1.88319 18.3168 1.98866C18.5649 2.09413 18.7894 2.24794 18.9774 2.44111V2.44202ZM8.41834 3.49894C8.87301 3.49894 9.24151 3.87202 9.24151 4.33219C9.24223 4.44097 9.22151 4.54882 9.18052 4.64959C9.13953 4.75035 9.07909 4.84205 9.00264 4.91943C8.92619 4.99682 8.83523 5.05838 8.73497 5.10059C8.63472 5.1428 8.52712 5.16484 8.41834 5.16544H5.12567C4.21634 5.16544 3.47934 5.91161 3.47934 6.83102V16.8282C3.47934 17.7485 4.21634 18.4947 5.12567 18.4947H15.0037C15.913 18.4947 16.6509 17.7485 16.6509 16.8282V13.4961C16.6509 13.0359 17.0194 12.6629 17.4741 12.6629C17.9288 12.6629 18.2973 13.0359 18.2973 13.497V16.8282C18.2973 18.6689 16.8223 20.1612 15.0037 20.1612H5.12567C3.30701 20.1612 1.83301 18.6689 1.83301 16.8282V6.83102C1.83301 4.99127 3.30701 3.49894 5.12567 3.49894H8.41834V3.49894Z" fill="black"/>
</svg>
