<svg width="49" height="44" viewBox="0 0 49 44" fill="none" xmlns="http://www.w3.org/2000/svg">
<path d="M34.686 9.40242C34.6845 9.38671 34.6818 9.37143 34.6791 9.35615C34.6782 9.35106 34.6778 9.34579 34.6768 9.3407C34.6731 9.32245 34.6685 9.30462 34.6633 9.28704C34.6627 9.28492 34.6623 9.28263 34.6616 9.28051C34.6561 9.26242 34.6496 9.24476 34.6426 9.22745C34.6419 9.22566 34.6413 9.22379 34.6406 9.22201C34.6337 9.20546 34.6259 9.18941 34.6178 9.17362C34.6164 9.17099 34.6153 9.16827 34.6139 9.16564C34.6061 9.15095 34.5973 9.13686 34.5884 9.12285C34.5861 9.11928 34.5842 9.11555 34.5819 9.11207C34.5731 9.09899 34.5635 9.0866 34.5538 9.0742C34.5507 9.07013 34.5479 9.06588 34.5446 9.06189C34.5325 9.04721 34.5196 9.0332 34.5063 9.01961C34.505 9.01834 34.504 9.01698 34.5027 9.01571L25.6733 0.186314C25.6718 0.184786 25.6701 0.183512 25.6685 0.181984C25.6553 0.168995 25.6416 0.15643 25.6272 0.144629C25.6226 0.140809 25.6176 0.137583 25.6129 0.133932C25.6012 0.124848 25.5895 0.115764 25.5772 0.107529C25.5729 0.104642 25.5683 0.102265 25.564 0.0994633C25.5507 0.0910584 25.5375 0.0827384 25.5237 0.0753523C25.5206 0.0737392 25.5174 0.0723808 25.5142 0.0708527C25.4989 0.0629572 25.4833 0.0553163 25.4672 0.0486094C25.4652 0.0477604 25.463 0.0471661 25.4609 0.0463172C25.4438 0.0394404 25.4265 0.0329882 25.4086 0.0275547C25.4063 0.0268755 25.404 0.026451 25.4017 0.0257718C25.3843 0.0206779 25.3665 0.0160086 25.3484 0.0123579C25.3431 0.0112543 25.3376 0.0108298 25.3321 0.0098959C25.3171 0.00726406 25.3021 0.00463222 25.2866 0.00310405C25.2657 0.000981604 25.2444 -0.00012207 25.2231 -0.00012207H4.16841C2.31933 -0.00012207 0.814941 1.50427 0.814941 3.35335V40.0293C0.814941 41.8784 2.31933 43.3828 4.16841 43.3828H31.3358C33.1849 43.3828 34.6893 41.8784 34.6893 40.0293V9.46601C34.6893 9.4447 34.6881 9.42347 34.686 9.40242ZM25.8599 2.17378L32.5154 8.82927H27.9399C26.793 8.82927 25.8599 7.89624 25.8599 6.74927V2.17378ZM31.3358 42.1093H4.16841C3.02153 42.1093 2.08841 41.1763 2.08841 40.0293V3.35335C2.08841 2.20638 3.02153 1.27335 4.16841 1.27335H24.5864V6.74927C24.5864 8.59835 26.0908 10.1027 27.9399 10.1027H33.4158V40.0293C33.4158 41.1763 32.4827 42.1093 31.3358 42.1093Z" fill="black"/>
<path d="M29.2982 21.0546H25.2229C24.8713 21.0546 24.5862 21.3396 24.5862 21.6913C24.5862 22.043 24.8713 22.328 25.2229 22.328H29.2982C29.6498 22.328 29.9349 22.043 29.9349 21.6913C29.9349 21.3396 29.6498 21.0546 29.2982 21.0546Z" fill="black"/>
<path d="M6.20607 22.328H22.5066C22.8582 22.328 23.1433 22.043 23.1433 21.6913C23.1433 21.3396 22.8582 21.0546 22.5066 21.0546H6.20607C5.85442 21.0546 5.56934 21.3396 5.56934 21.6913C5.56934 22.043 5.85442 22.328 6.20607 22.328Z" fill="black"/>
<path d="M29.2982 12.9042H12.3186C11.967 12.9042 11.6819 13.1892 11.6819 13.541C11.6819 13.8927 11.967 14.1777 12.3186 14.1777H29.2982C29.6499 14.1777 29.935 13.8927 29.935 13.541C29.935 13.1892 29.6499 12.9042 29.2982 12.9042Z" fill="black"/>
<path d="M6.20607 14.1777H9.60225C9.95389 14.1777 10.239 13.8927 10.239 13.541C10.239 13.1892 9.95389 12.9042 9.60225 12.9042H6.20607C5.85442 12.9042 5.56934 13.1892 5.56934 13.541C5.56934 13.8927 5.85442 14.1777 6.20607 14.1777Z" fill="black"/>
<path d="M29.2983 29.2049H16.3938C16.0422 29.2049 15.7571 29.4899 15.7571 29.8416C15.7571 30.1934 16.0422 30.4784 16.3938 30.4784H29.2983C29.65 30.4784 29.9351 30.1934 29.9351 29.8416C29.9351 29.4899 29.65 29.2049 29.2983 29.2049Z" fill="black"/>
<path d="M13.6771 29.2049H6.20607C5.85442 29.2049 5.56934 29.4899 5.56934 29.8416C5.56934 30.1934 5.85442 30.4784 6.20607 30.4784H13.6771C14.0287 30.4784 14.3138 30.1934 14.3138 29.8416C14.3138 29.4899 14.0287 29.2049 13.6771 29.2049Z" fill="black"/>
<path d="M29.2983 16.9792H6.20607C5.85442 16.9792 5.56934 17.2642 5.56934 17.6159C5.56934 17.9677 5.85442 18.2527 6.20607 18.2527H29.2983C29.65 18.2527 29.9351 17.9677 29.9351 17.6159C29.9351 17.2642 29.65 16.9792 29.2983 16.9792Z" fill="black"/>
<path d="M29.2983 25.1295H6.20607C5.85442 25.1295 5.56934 25.4145 5.56934 25.7663C5.56934 26.118 5.85442 26.403 6.20607 26.403H29.2983C29.65 26.403 29.9351 26.118 29.9351 25.7663C29.9351 25.4145 29.65 25.1295 29.2983 25.1295Z" fill="black"/>
<path d="M34.4109 43.5858C33.5682 43.5858 32.776 43.2577 32.1802 42.6619C31.9399 42.4217 31.9399 42.0322 32.1802 41.792C32.4204 41.5519 32.8098 41.5519 33.0501 41.792C33.4136 42.1555 33.8969 42.3557 34.4109 42.3557C34.9249 42.3557 35.4082 42.1555 35.7717 41.792L46.3926 31.1711C46.7562 30.8076 46.9563 30.3243 46.9563 29.8103C46.9563 29.2963 46.7562 28.813 46.3926 28.4495C45.6422 27.699 44.4213 27.6991 43.671 28.4495L37.7537 34.3667C37.5135 34.6069 37.1241 34.6069 36.8838 34.3667C36.6436 34.1265 36.6436 33.7371 36.8838 33.4968L42.8011 27.5794C44.0311 26.3496 46.0324 26.3494 47.2626 27.5794C48.4926 28.8095 48.4926 30.8109 47.2626 32.0409L36.6416 42.6619C36.0458 43.2577 35.2536 43.5858 34.4109 43.5858Z" fill="#20CB6F"/>
<path d="M37.9567 40.3851L36.1609 42.1809C35.1691 43.1726 33.5612 43.1726 32.5694 42.1809L26.1657 35.7773C25.1739 34.7855 25.1739 33.1775 26.1657 32.1857C27.1575 31.1939 28.7655 31.1939 29.7572 32.1857L37.9567 40.3851Z" fill="#EFFFD7"/>
<path d="M34.365 43.54C33.5223 43.54 32.7301 43.2119 32.1343 42.6161L25.7306 36.2124C24.5006 34.9823 24.5006 32.981 25.7306 31.7509C26.3265 31.1551 27.1187 30.827 27.9613 30.827C28.804 30.827 29.5962 31.1551 30.192 31.7509L38.3915 39.9503C38.6317 40.1906 38.6317 40.58 38.3915 40.8203L36.5957 42.616C35.9998 43.2118 35.2076 43.54 34.365 43.54ZM27.9613 32.0572C27.4473 32.0572 26.964 32.2573 26.6005 32.6209C25.8502 33.3712 25.8502 34.5922 26.6005 35.3426L33.0041 41.7461C33.3676 42.1096 33.8509 42.3098 34.365 42.3098C34.879 42.3098 35.3623 42.1096 35.7258 41.7461L37.0866 40.3853L29.3221 32.6209C28.9586 32.2573 28.4754 32.0572 27.9613 32.0572Z" fill="#20CB6F"/>
</svg>
