<svg width="56" height="21" viewBox="0 0 56 21" fill="none" xmlns="http://www.w3.org/2000/svg">
<g clip-path="url(#clip0_3552_7691)">
<path fill-rule="evenodd" clip-rule="evenodd" d="M0 0.00292969H55.0132V19.5764H0V0.00292969Z" fill="white"/>
<path fill-rule="evenodd" clip-rule="evenodd" d="M2.44407 1.22754H52.5712C53.2758 1.22754 53.8522 1.81356 53.8522 2.53009V6.54923H47.5785C47.2491 2.90984 30.729 2.13422 27.8743 2.11246C23.2719 2.0773 7.42137 3.16071 7.42137 6.47872V6.54923H1.16309V2.53009C1.16309 1.81356 1.7395 1.22754 2.44407 1.22754Z" fill="#FF0000"/>
<path fill-rule="evenodd" clip-rule="evenodd" d="M7.41702 12.4984H1.16309V7.09473H7.42046C7.41502 8.78772 7.39236 10.8639 7.41702 12.4984ZM53.8522 7.09473V12.4984H47.5928C47.6425 10.8092 47.5316 8.79914 47.5716 7.09473H53.8522Z" fill="#0000FF"/>
<path fill-rule="evenodd" clip-rule="evenodd" d="M53.8522 13.0459V17.0498C53.8522 17.766 53.2758 18.352 52.5712 18.352H2.44407C1.7395 18.352 1.16309 17.766 1.16309 17.0498V13.0459H7.45907C8.23215 16.3166 21.2162 17.6016 27.7114 17.6378C31.3705 17.6583 46.6028 16.4946 47.5374 13.0459H53.8522Z" fill="#F9CD09"/>
<path fill-rule="evenodd" clip-rule="evenodd" d="M27.7962 3.06711C31.3642 3.09991 46.6462 4.65315 46.5056 6.5807C46.3876 8.19956 46.6276 11.3379 46.5056 12.9564C46.3642 14.8321 31.2558 16.4726 27.6998 16.4425C23.8662 16.41 8.56094 15.1416 8.49859 12.7828C8.45563 11.161 8.49859 8.38191 8.49859 6.75925C8.49859 4.3519 23.9037 3.03158 27.7962 3.06711ZM27.7802 4.5444C24.1049 4.51666 9.55915 5.4034 9.55915 7.27875C9.55915 8.54323 9.51964 11.0398 9.55915 12.3033C9.61788 14.1887 24.0696 14.9402 27.6891 14.9652C31.0468 14.9886 45.3123 13.8999 45.4459 12.4386C45.5612 11.1777 45.3348 8.44843 45.4459 7.18721C45.5788 5.68545 31.1492 4.56995 27.7802 4.5444Z" fill="#E6252D"/>
<path fill-rule="evenodd" clip-rule="evenodd" d="M21.7045 9.96413C21.8921 10.0488 21.8564 10.5032 21.6248 10.9761C21.3931 11.4489 21.0512 11.7655 20.8635 11.6809C20.6757 11.5962 20.7114 11.1414 20.9432 10.6685C21.1749 10.1958 21.5167 9.87948 21.7045 9.96413ZM34.4201 10.0051C34.6077 10.0896 34.5722 10.5444 34.3403 11.0171C34.1087 11.4898 33.7668 11.8063 33.579 11.7217C33.3913 11.637 33.427 11.1826 33.6588 10.7097C33.8903 10.2369 34.2323 9.92045 34.4201 10.0051ZM40.6621 9.87205C40.7647 9.94981 40.6719 10.2465 40.4554 10.5329C40.2392 10.8191 39.9789 10.9894 39.8763 10.912C39.7737 10.8342 39.8665 10.5375 40.0828 10.2513C40.2994 9.96486 40.5593 9.79465 40.6621 9.87205ZM40.7937 9.25938C40.08 9.20482 39.602 9.70021 39.3515 10.1893C39.1531 10.577 39.094 11.1344 39.2359 11.5997C39.0302 11.7662 38.7733 11.91 38.3651 11.9914C38.1626 12.0318 38.0508 11.8783 38.0526 11.7376C38.0577 11.3325 38.1014 10.993 38.2177 10.6127C38.2654 10.4557 38.4278 10.5094 38.4829 10.3763C38.5966 10.101 38.6104 9.83435 38.2466 9.87803C38.0131 9.90595 37.7599 9.94111 37.751 9.62517C37.7423 9.31666 38.1191 9.15208 38.0629 9.12525C37.855 9.02537 37.6792 9.12452 37.4619 9.04712C37.401 9.02537 37.451 8.88689 37.3895 8.86641C37.3065 8.83885 37.1602 8.92658 37.1124 8.99981C37.0071 9.16096 37.0163 9.3085 36.938 9.49865C36.8724 9.65816 36.8657 9.8358 36.8296 10.0044C36.7163 10.3366 35.9974 11.3649 35.4691 11.6334C35.1725 11.784 34.9858 11.6511 35.0775 11.3412C35.2001 10.9274 35.6074 9.92009 35.8722 9.20954C35.6133 9.2157 35.3835 9.23636 35.1248 9.24216C35.0946 9.33261 35.0498 9.39388 35.0197 9.48397C34.4395 9.11274 34.0866 9.25503 33.5598 9.63387C33.1678 9.9161 32.8239 10.3424 32.6388 10.8534C32.5654 11.0562 32.525 11.2616 32.5196 11.4543C32.1993 11.5703 31.8806 11.742 31.5948 11.6994C31.525 11.6888 31.4773 11.5821 31.4934 11.5134C31.5891 11.1001 31.7914 10.7184 31.9161 10.3129C31.9944 10.0582 32.1503 9.79719 32.1021 9.53526C32.0369 9.18235 31.5866 9.17165 31.3412 9.29854C31.1329 9.40657 30.9741 9.59563 30.7664 9.70438C30.7251 9.72577 30.6656 9.70166 30.631 9.67049C30.5416 9.58964 30.4996 9.4653 30.4113 9.38318C30.3333 9.31068 30.2449 9.23527 30.1407 9.21389C30.0131 9.18778 29.872 9.19793 29.7519 9.24778C29.4975 9.35364 29.3157 9.64257 29.0419 9.67049C28.9229 9.68263 28.9994 9.42433 28.9233 9.33243C28.74 9.11093 28.5642 9.18778 28.3485 9.2815C27.9052 9.47418 27.467 9.67864 27.0268 9.87803C27.0703 9.96703 27.1071 10.0597 27.137 10.1552C27.3126 10.0952 27.494 10.0183 27.6722 9.97483C27.7545 9.95453 27.8544 9.91265 27.9258 9.95797C27.9905 9.99875 28.0163 10.1044 27.9932 10.1778C27.7527 10.9524 27.4299 11.6994 27.1482 12.4601C27.4411 12.4545 27.734 12.4489 28.0273 12.4434C28.2923 11.7614 28.4769 11.0426 28.822 10.3975C28.8842 10.2812 29.0645 10.2366 29.1938 10.2621C29.2828 10.2801 29.3134 10.4095 29.3293 10.4989C29.3487 10.6103 29.3319 10.7298 29.2954 10.8371C29.1107 11.3812 28.8782 11.9078 28.6699 12.4434C28.9911 12.4376 29.3293 12.4659 29.6504 12.4601C29.9603 11.7499 30.0823 11.022 30.462 10.3468C30.5092 10.2629 30.7582 10.2353 30.8509 10.2621C30.9125 10.2803 30.9826 10.3517 30.9692 10.4144C30.8873 10.7943 30.6772 11.1371 30.5804 11.5134C30.5353 11.6883 30.4974 11.8806 30.5465 12.0543C30.5878 12.2009 30.6979 12.3414 30.834 12.4095C30.9498 12.4676 31.1032 12.4424 31.2228 12.3925C31.678 12.2038 32.0998 11.9444 32.5351 11.7133C32.6115 12.2024 32.9627 12.5375 33.6325 12.3889C33.8663 12.3369 33.9936 12.1842 34.2104 12.0818C34.3199 12.4322 34.5617 12.5756 34.9507 12.4159C35.911 12.0215 36.474 11.3357 37.1842 10.3082C37.2985 10.3335 37.5244 10.2685 37.6388 10.2703C37.5164 10.6402 36.7593 11.9606 37.5509 12.3584C37.7718 12.4694 37.9409 12.4331 38.1846 12.3889C38.7314 12.2892 39.0688 12.057 39.3318 11.8397C39.4652 12.1016 39.6791 12.3102 39.9881 12.405C40.618 12.5984 41.338 12.2649 41.7881 12.0666C42.0279 12.4802 42.6458 12.5566 43.0074 12.425C43.3886 12.2861 43.7328 12.0434 44.0372 11.7748C44.1004 11.7188 44.0937 11.577 44.0303 11.5215C43.971 11.4697 43.8719 11.5623 43.8086 11.6096C43.5454 11.8058 43.0181 12.3015 42.721 11.8852C42.5882 11.6986 42.6766 11.3836 42.8084 11.0267C42.9367 10.6789 43.0605 10.2284 43.1865 9.8793C43.366 9.86462 43.5677 9.88365 43.747 9.86897C43.8247 9.65073 43.8577 9.47708 43.9353 9.25884C43.8142 9.24941 43.6484 9.26174 43.5271 9.25213C43.6391 8.66792 43.8804 8.07266 44.0848 7.48808C43.8091 7.49352 43.578 7.50983 43.3025 7.51527C43.1091 8.08353 42.957 8.64055 42.6935 9.20881C42.5133 9.21407 42.3219 9.23056 42.1417 9.23582C42.094 9.44826 42.0464 9.66052 41.9985 9.87314C42.1365 9.8677 42.33 9.86244 42.4676 9.85719C42.2925 10.5237 42.1024 11.1249 41.7123 11.6415C41.5736 11.8252 41.3335 11.9299 41.1082 11.976C40.4181 12.1172 40.152 11.8939 40.0427 11.5812C40.3342 11.3368 40.6235 11.2214 40.8859 10.9466C41.3088 10.5041 41.8278 9.33805 40.7937 9.25938ZM16.8115 6.66406C15.7158 6.79022 14.0927 6.9104 13.166 7.52071C12.6204 7.87979 12.1309 8.5695 12.6207 9.27135C13.0992 9.95688 13.9537 9.6665 14.2998 9.21062C13.9042 9.15878 13.5885 9.08483 13.5636 8.80133C13.4505 7.51292 14.6282 7.77937 15.7578 7.41105C15.1714 8.79843 14.6436 11.2719 13.1489 11.5774C12.0621 11.7996 11.5632 11.3194 11.3096 10.6426C10.7075 11.8021 11.5687 12.3309 12.3416 12.4502C13.0561 12.5607 13.9715 12.1146 14.4767 11.5857C14.8339 11.353 15.1908 11.0876 15.5157 10.7863C15.601 10.7071 16.7923 9.79519 16.6823 10.5498C16.5853 11.2147 16.3216 11.6994 16.1243 12.3419C16.4173 12.3476 16.7104 12.3532 17.0035 12.3588C17.2177 11.722 17.3754 11.0631 17.646 10.4483C17.6932 10.341 17.8173 10.2618 17.9335 10.2453C18.0412 10.23 18.1982 10.2625 18.2377 10.3636C18.3075 10.5424 18.2083 10.7689 18.1576 10.9538C18.0753 11.256 17.6194 12.2401 18.2119 12.3155C18.7936 12.3894 19.4478 11.9731 19.7926 11.6928C19.8408 11.9858 19.995 12.2404 20.3035 12.3873C20.5156 12.4879 20.779 12.4231 21.0077 12.3708C21.1934 12.3282 21.3463 12.196 21.5155 12.1087C21.4852 12.5333 21.8905 12.4833 22.1618 12.3544C22.7751 12.063 23.1175 11.8583 23.5364 11.7189C23.4932 11.6437 23.4548 11.565 23.4216 11.484C23.12 11.5609 22.8233 11.7066 22.5146 11.683C22.4111 11.6751 22.3835 11.4862 22.4163 11.3881C22.849 10.0896 23.399 8.83323 23.8902 7.55569C23.6337 7.57219 23.4368 7.57219 23.1802 7.5885C22.9781 8.13447 22.7165 8.69674 22.5146 9.24253C21.5504 9.06634 20.6528 9.33551 20.0251 10.5364C19.8912 10.7927 19.796 11.093 19.7784 11.3816C19.5604 11.5248 19.357 11.6718 19.1 11.7362C19.0044 11.7601 18.931 11.6105 18.9479 11.5134C19.0037 11.1907 19.1157 10.8815 19.2247 10.5712C19.2988 10.3596 19.574 9.7439 19.4721 9.53526C19.2961 9.17365 19.0383 9.17564 18.7769 9.28313C18.4411 9.42125 18.099 9.73339 17.9165 9.67049C17.6482 9.57804 17.7245 9.16386 17.3216 9.21062C17.1943 9.22549 17.0647 9.27696 16.9527 9.33243C16.3779 9.61575 15.8321 10.022 15.2827 10.3709C15.8102 9.35708 16.3103 8.00595 16.8115 6.66406Z" fill="#0000FF"/>
<path d="M25.2514 8.76465H25.2518C25.7954 8.76483 26.2893 8.9867 26.6469 9.34433V9.34487C27.0044 9.7025 27.2261 10.1957 27.2263 10.7391V10.74C27.2263 11.2838 27.0044 11.7776 26.6468 12.1352H26.6464C26.2888 12.4927 25.7954 12.7144 25.2521 12.7145H25.251C24.7073 12.7145 24.2133 12.4927 23.8559 12.135C23.4982 11.7774 23.2765 11.2838 23.2764 10.7404V10.7391C23.2764 10.1955 23.4982 9.7016 23.8559 9.34415C24.2135 8.98669 24.7071 8.76483 25.2507 8.76465H25.2514ZM25.2518 9.00555H25.2507C24.7736 9.00573 24.3404 9.20059 24.0263 9.51453C23.7121 9.82866 23.5173 10.2619 23.5173 10.7391V10.7404C23.5174 11.2175 23.7121 11.6509 24.0261 11.9648C24.3404 12.2788 24.7738 12.4736 25.251 12.4736H25.2521C25.7292 12.4736 26.1626 12.279 26.4766 11.965L26.4764 11.9648C26.7905 11.6509 26.9855 11.2173 26.9855 10.74V10.7391C26.9852 10.2619 26.7907 9.82848 26.4769 9.51453H26.4766C26.1626 9.20059 25.729 9.00555 25.2518 9.00555Z" fill="#FF0000"/>
<path fill-rule="evenodd" clip-rule="evenodd" d="M25.2518 9.24512C26.0767 9.24512 26.7456 9.91398 26.7456 10.7391C26.7456 11.564 26.0767 12.2329 25.2518 12.2329C24.4267 12.2329 23.7578 11.564 23.7578 10.7391C23.7578 9.91398 24.4267 9.24512 25.2518 9.24512ZM25.2518 9.55254C25.9069 9.55254 26.4381 10.0838 26.4381 10.7391C26.4381 11.3942 25.9069 11.9254 25.2518 11.9254C24.5965 11.9254 24.0654 11.3942 24.0654 10.7391C24.0654 10.0838 24.5965 9.55254 25.2518 9.55254Z" fill="#FF0000"/>
<path fill-rule="evenodd" clip-rule="evenodd" d="M25.2511 9.84375C25.7458 9.84375 26.1469 10.2449 26.1469 10.7396C26.1469 11.2342 25.7458 11.6354 25.2511 11.6354C24.7562 11.6354 24.3555 11.2342 24.3555 10.7396C24.3555 10.2449 24.7562 9.84375 25.2511 9.84375Z" fill="#FF0000"/>
</g>
<defs>
<clipPath id="clip0_3552_7691">
<rect width="55.7427" height="20.0674" fill="white"/>
</clipPath>
</defs>
</svg>
