<svg width="84" height="84" viewBox="0 0 84 84" fill="none" xmlns="http://www.w3.org/2000/svg">
<path d="M10.5 26.25V73.5H57.75V26.25H10.5ZM7.875 21H60.375C61.0712 21 61.7389 21.2766 62.2312 21.7688C62.7234 22.2611 63 22.9288 63 23.625V76.125C63 76.8212 62.7234 77.4889 62.2312 77.9812C61.7389 78.4734 61.0712 78.75 60.375 78.75H7.875C7.17881 78.75 6.51113 78.4734 6.01884 77.9812C5.52656 77.4889 5.25 76.8212 5.25 76.125V23.625C5.25 22.9288 5.52656 22.2611 6.01884 21.7688C6.51113 21.2766 7.17881 21 7.875 21ZM78.75 7.875V65.625C78.75 66.3212 78.4734 66.9889 77.9812 67.4812C77.4889 67.9734 76.8212 68.25 76.125 68.25H68.25V63H73.5V10.5H31.5V15.75H26.25V7.875C26.25 7.17881 26.5266 6.51113 27.0188 6.01884C27.5111 5.52656 28.1788 5.25 28.875 5.25H76.125C76.8212 5.25 77.4889 5.52656 77.9812 6.01884C78.4734 6.51113 78.75 7.17881 78.75 7.875ZM21 55.125H47.25V60.375H21V55.125ZM21 39.375H47.25V44.625H21V39.375Z" fill="#1B6AEA"/>
</svg>
