<svg width="22" height="22" viewBox="0 0 22 22" fill="none" xmlns="http://www.w3.org/2000/svg">
<path d="M17.875 6.87493H15.9761C16.4204 6.21347 16.5916 5.40574 16.4537 4.62093C16.3158 3.83612 15.8795 3.13511 15.2363 2.66476C14.5931 2.1944 13.7929 1.99117 13.0032 2.09766C12.2135 2.20414 11.4956 2.61206 11 3.23599C10.5044 2.61206 9.7865 2.20414 8.99681 2.09766C8.20713 1.99117 7.40687 2.1944 6.76367 2.66476C6.12047 3.13511 5.68422 3.83612 5.54632 4.62093C5.40842 5.40574 5.57955 6.21347 6.02387 6.87493H4.125C3.76044 6.87529 3.41091 7.02027 3.15313 7.27806C2.89535 7.53584 2.75036 7.88536 2.75 8.24993V10.9999C2.75036 11.3645 2.89535 11.714 3.15313 11.9718C3.41091 12.2296 3.76044 12.3746 4.125 12.3749V19.2499C4.12536 19.6145 4.27035 19.964 4.52813 20.2218C4.78591 20.4796 5.13544 20.6246 5.5 20.6249H16.5C16.8646 20.6246 17.2141 20.4796 17.4719 20.2218C17.7297 19.964 17.8746 19.6145 17.875 19.2499V12.3749C18.2396 12.3746 18.5891 12.2296 18.8469 11.9718C19.1047 11.714 19.2496 11.3645 19.25 10.9999V8.24993C19.2496 7.88536 19.1047 7.53584 18.8469 7.27806C18.5891 7.02027 18.2396 6.87529 17.875 6.87493ZM11.6875 5.15618C11.6875 4.81624 11.7883 4.48394 11.9772 4.20129C12.166 3.91864 12.4345 3.69835 12.7485 3.56826C13.0626 3.43817 13.4082 3.40413 13.7416 3.47045C14.075 3.53677 14.3812 3.70046 14.6216 3.94084C14.862 4.18121 15.0257 4.48746 15.092 4.82086C15.1583 5.15427 15.1243 5.49985 14.9942 5.81391C14.8641 6.12797 14.6438 6.39641 14.3611 6.58526C14.0785 6.77412 13.7462 6.87493 13.4062 6.87493H11.6875V5.15618ZM8.59375 3.43743C9.04942 3.43797 9.48628 3.61923 9.80849 3.94144C10.1307 4.26365 10.312 4.7005 10.3125 5.15618V6.87493H8.59375C8.13791 6.87493 7.70074 6.69384 7.37841 6.37152C7.05608 6.04919 6.875 5.61202 6.875 5.15618C6.875 4.70034 7.05608 4.26316 7.37841 3.94084C7.70074 3.61851 8.13791 3.43743 8.59375 3.43743ZM4.125 8.24993H10.3125V10.9999H4.125V8.24993ZM5.5 12.3749H10.3125V19.2499H5.5V12.3749ZM16.5007 19.2499H11.6875V12.3749H16.5L16.5007 19.2499ZM11.6875 10.9999V8.24993H17.875L17.8757 10.9999H11.6875Z" fill="black"/>
</svg>
