<svg width="114" height="30" viewBox="0 0 114 30" fill="none" xmlns="http://www.w3.org/2000/svg">
<g clip-path="url(#clip0_2544_75730)">
<path d="M19.3791 8.89411C19.3455 8.79656 19.3077 8.70425 19.2637 8.61719C19.3224 8.71579 19.3602 8.80915 19.3791 8.89411Z" fill="black"/>
<path d="M47.3313 11.8818C47.024 10.6828 46.2498 9.80592 44.7289 9.80592C42.4925 9.80592 41.5568 11.779 41.5568 13.7825C41.5568 15.786 42.4925 17.7591 44.7289 17.7591C46.3516 17.7591 47.2432 16.5454 47.389 15.0255H49.1722C49.0264 17.5251 47.2568 19.2507 44.7278 19.2507C41.5998 19.2507 39.7285 16.7657 39.7285 13.7835C39.7285 10.8014 41.5998 8.31641 44.7278 8.31641C47.0817 8.33109 48.9383 9.63179 49.1575 11.8828H47.3313V11.8818Z" fill="black"/>
<path d="M50.2559 15.2129C50.2559 12.9031 51.6447 11.2363 54.0709 11.2363C56.4971 11.2363 57.8859 12.9031 57.8859 15.2129C57.8859 17.5374 56.4971 19.2042 54.0709 19.2042C51.6447 19.2042 50.2559 17.5374 50.2559 15.2129ZM56.2202 15.2129C56.2202 13.9122 55.5625 12.5528 54.0709 12.5528C52.5793 12.5528 51.9216 13.9122 51.9216 15.2129C51.9216 16.5283 52.5793 17.8877 54.0709 17.8877C55.5625 17.8888 56.2202 16.5283 56.2202 15.2129Z" fill="black"/>
<path d="M59.3203 8.5625H60.9871V10.1412H59.3203V8.5625ZM59.3203 11.4429H60.9871V19.0006H59.3203V11.4429Z" fill="black"/>
<path d="M62.7988 11.4428H64.3775V12.5537L64.4069 12.583C64.9041 11.7502 65.7663 11.2383 66.7607 11.2383C68.3981 11.2383 69.4355 12.1152 69.4355 13.8114V19.0005H67.7688V14.2498C67.7394 13.0656 67.2716 12.5537 66.2918 12.5537C65.181 12.5537 64.4646 13.4306 64.4646 14.5414V19.0005H62.7988V11.4428Z" fill="black"/>
<path d="M80.5309 19.0001H79.3613L79.0834 17.7718C78.1036 18.8826 77.212 19.2487 75.9407 19.2487C72.8127 19.2487 70.9414 16.7638 70.9414 13.7816C70.9414 10.7994 72.8127 8.31445 75.9407 8.31445C78.2211 8.31445 80.1365 9.52809 80.4145 11.8809H78.6313C78.4561 10.5068 77.2571 9.80501 75.9418 9.80501C73.7054 9.80501 72.7697 11.7781 72.7697 13.7816C72.7697 15.7851 73.7054 17.7582 75.9418 17.7582C77.8131 17.7875 78.8358 16.662 78.8652 14.8924H76.0876V13.5036H80.532V19.0001H80.5309Z" fill="black"/>
<path d="M83.5867 15.6524C83.5867 16.8367 84.2297 17.8888 85.6185 17.8888C86.5836 17.8888 87.1678 17.465 87.4605 16.6311H89.0392C88.6741 18.2832 87.2706 19.2042 85.6185 19.2042C83.25 19.2042 81.9199 17.5521 81.9199 15.2276C81.9199 13.0783 83.3234 11.2363 85.5745 11.2363C87.9577 11.2363 89.4189 13.3856 89.1409 15.6514H83.5867V15.6524ZM87.4752 14.5563C87.4164 13.5042 86.7 12.5538 85.5745 12.5538C84.4196 12.5538 83.6297 13.4307 83.5867 14.5563H87.4752Z" fill="black"/>
<path d="M95.516 13.9718C95.3848 13.0509 94.7114 12.5537 93.7915 12.5537C92.9292 12.5537 91.7156 13.0068 91.7156 15.3019C91.7156 16.5596 92.2716 17.8897 93.7181 17.8897C94.6831 17.8897 95.3555 17.2467 95.516 16.1642H97.1827C96.8754 18.1236 95.6628 19.2051 93.7181 19.2051C91.3495 19.2051 90.0488 17.5236 90.0488 15.3019C90.0488 13.0215 91.2918 11.2383 93.7768 11.2383C95.5306 11.2383 97.0222 12.1152 97.1827 13.9718H95.516Z" fill="black"/>
<path d="M98.5859 8.5625H100.253V14.4975L103.264 11.4419H105.311L102.417 14.2195L105.589 18.9996H103.557L101.247 15.3303L100.253 16.2954V18.9996H98.5859V8.5625Z" fill="black"/>
<path d="M106.043 15.2129C106.043 12.9031 107.432 11.2363 109.859 11.2363C112.285 11.2363 113.674 12.9031 113.674 15.2129C113.674 17.5374 112.285 19.2042 109.859 19.2042C107.432 19.2042 106.043 17.5374 106.043 15.2129ZM112.007 15.2129C112.007 13.9122 111.35 12.5528 109.858 12.5528C108.366 12.5528 107.709 13.9122 107.709 15.2129C107.709 16.5283 108.366 17.8877 109.858 17.8877C111.35 17.8888 112.007 16.5283 112.007 15.2129Z" fill="black"/>
<path d="M15.3711 -0.0506313C7.0582 -0.012869 0.350155 6.75496 0.386869 15.0689C0.424631 23.3819 7.19456 30.0899 15.5064 30.0532C23.8194 30.0155 30.5274 23.2466 30.4907 14.9347C30.453 6.6207 23.6841 -0.0873446 15.3711 -0.0506313ZM13.4652 14.2623C11.9788 14.2623 10.7736 13.0581 10.7736 11.5717C10.7736 10.0864 11.9788 8.88119 13.4652 8.88119C14.9505 8.88119 16.1557 10.0864 16.1557 11.5717C16.1568 13.0581 14.9516 14.2623 13.4652 14.2623ZM15.6113 17.1721L15.625 17.1553L15.6397 17.1385C16.4075 17.6336 17.2844 17.8088 18.1603 17.834C19.0372 17.8571 19.9309 17.791 20.8099 17.6137C21.6879 17.4312 22.5512 17.1616 23.3851 16.8176C23.853 16.6245 24.3187 16.4137 24.7624 16.1662C24.7655 16.1641 24.7676 16.163 24.7708 16.1609C25.0467 15.9952 25.3162 15.82 25.5816 15.6396C25.6393 15.5987 25.6949 15.5557 25.7495 15.5116L25.7557 15.5189L25.7788 15.5462C25.1023 16.162 24.2967 16.6193 23.4764 17.0231C22.6477 17.4134 21.7834 17.7333 20.8907 17.9641C20.0012 18.1938 19.0729 18.3679 18.133 18.2819C17.2089 18.199 16.2344 17.8749 15.6113 17.1721ZM22.5176 14.2623C22.5166 13.9392 22.7767 13.6791 23.0977 13.6759C23.4208 13.6749 23.6809 13.934 23.6841 14.256C23.6851 14.578 23.425 14.8413 23.104 14.8424C22.782 14.8445 22.5197 14.5843 22.5176 14.2623ZM17.9075 28.699C17.3264 24.6259 20.8834 20.6368 22.889 18.5955C23.3442 18.1329 24.0481 17.4952 24.7026 16.8176C27.3061 14.3829 27.8243 11.4742 22.4956 10.0203C21.4855 9.72769 20.4386 9.31336 19.3781 8.89482C19.3446 8.79727 19.3068 8.70496 19.2627 8.6179C19.1411 8.40811 18.9281 8.16685 18.6061 7.89308C17.9138 7.29203 16.612 7.30776 15.4886 7.57419C14.2467 7.28154 13.0215 7.17769 11.8435 7.45986C6.69106 8.87909 5.86239 11.3924 5.66204 14.4207C5.38932 17.6934 5.22988 20.1322 3.99106 22.9182C2.44491 20.6882 1.53337 17.9829 1.52078 15.0637C1.48617 7.37699 7.68967 1.1179 15.3764 1.08328C23.0631 1.04867 29.3222 7.25112 29.3568 14.9378C29.3883 21.8032 24.4404 27.5315 17.9075 28.699Z" fill="black"/>
<path d="M15.3579 11.5974C15.3579 12.6432 14.5104 13.4897 13.4656 13.4897C12.4198 13.4897 11.5723 12.6432 11.5723 11.5974C11.5723 10.5516 12.4198 9.70508 13.4656 9.70508C14.5104 9.70403 15.3579 10.5516 15.3579 11.5974Z" fill="black"/>
</g>
<defs>
<clipPath id="clip0_2544_75730">
<rect width="113.287" height="30" fill="white" transform="translate(0.386719)"/>
</clipPath>
</defs>
</svg>
