<svg width="65" height="64" viewBox="0 0 65 64" fill="none" xmlns="http://www.w3.org/2000/svg">
<path d="M32.5 64C50.1731 64 64.5 49.6731 64.5 32C64.5 14.3269 50.1731 0 32.5 0C14.8269 0 0.5 14.3269 0.5 32C0.5 49.6731 14.8269 64 32.5 64Z" fill="url(#paint0_linear_1779_7307)"/>
<path d="M51.7001 64.0004H13.3V22.6138C15.11 22.6117 16.8452 21.8919 18.125 20.6121C19.4048 19.3322 20.1247 17.597 20.1267 15.7871H44.8734C44.8715 16.6837 45.0474 17.5718 45.3909 18.3999C45.7345 19.2281 46.2389 19.9799 46.8749 20.6118C47.5068 21.2481 48.2587 21.7526 49.0869 22.0962C49.9152 22.4399 50.8033 22.6158 51.7001 22.6138V64.0004Z" fill="white"/>
<path d="M32.5 43.52C38.1554 43.52 42.74 38.9354 42.74 33.28C42.74 27.6246 38.1554 23.04 32.5 23.04C26.8446 23.04 22.26 27.6246 22.26 33.28C22.26 38.9354 26.8446 43.52 32.5 43.52Z" fill="#4285F4"/>
<path d="M36.1204 38.1068L32.5 34.4864L28.8796 38.1068L27.6728 36.9L31.2932 33.2796L27.6728 29.6592L28.8796 28.4524L32.5 32.0728L36.1204 28.4524L37.3272 29.6592L33.7068 33.2796L37.3272 36.9L36.1204 38.1068Z" fill="white"/>
<path d="M38.0467 46.0801H26.9533C26.2464 46.0801 25.6733 46.6532 25.6733 47.3601C25.6733 48.067 26.2464 48.6401 26.9533 48.6401H38.0467C38.7536 48.6401 39.3267 48.067 39.3267 47.3601C39.3267 46.6532 38.7536 46.0801 38.0467 46.0801Z" fill="#DFEAFB"/>
<path d="M41.8866 51.2002H23.1133C22.4063 51.2002 21.8333 51.7733 21.8333 52.4802C21.8333 53.1871 22.4063 53.7602 23.1133 53.7602H41.8866C42.5935 53.7602 43.1666 53.1871 43.1666 52.4802C43.1666 51.7733 42.5935 51.2002 41.8866 51.2002Z" fill="#DFEAFB"/>
<defs>
<linearGradient id="paint0_linear_1779_7307" x1="32.5" y1="0" x2="32.5" y2="64" gradientUnits="userSpaceOnUse">
<stop stop-color="#E3ECFA"/>
<stop offset="1" stop-color="#DAE7FF"/>
</linearGradient>
</defs>
</svg>
