<svg width="23" height="25" viewBox="0 0 23 25" fill="none" xmlns="http://www.w3.org/2000/svg">
<path fill-rule="evenodd" clip-rule="evenodd" d="M7.52272 6.45693C7.26865 6.62058 7.04884 6.84533 6.88742 7.12495C6.34525 8.06377 6.6669 9.26407 7.60584 9.80624C8.54466 10.3482 9.74496 10.0265 10.2871 9.08782C10.8126 8.17738 10.5262 7.02099 9.65195 6.45751V3.45422C12.4377 3.02826 15.2557 3.93552 17.2722 5.95196C18.6417 7.32122 19.5652 9.13621 19.8075 11.1603H15.1596C14.996 10.9065 14.7713 10.6867 14.4917 10.5254C13.553 9.98331 12.3525 10.305 11.8104 11.2439C11.2683 12.1826 11.59 13.383 12.5289 13.9251C13.4394 14.4508 14.5957 14.1641 15.1593 13.2899L19.809 13.2898C19.5659 15.3118 18.6413 17.1263 17.2713 18.4962C16.5398 19.2278 15.681 19.8321 14.7313 20.2733C14.6578 20.2155 14.5793 20.162 14.4959 20.1138C13.557 19.5719 12.3566 19.8935 11.8146 20.8321C11.2728 21.771 11.5943 22.9715 12.5332 23.5134C13.472 24.0556 14.6724 23.7338 15.2142 22.7951C15.3057 22.6367 15.3724 22.471 15.416 22.3022C16.6789 21.7482 17.8181 20.9641 18.7797 20.0024C23.0737 15.7084 23.0726 8.73686 18.7784 4.44378C15.8208 1.48628 11.4465 0.478122 7.52272 1.78356V6.45693V6.45693Z" stroke="#040C17" stroke-width="0.730824" stroke-miterlimit="10"/>
<path d="M3.22003 4.67719C-1.07399 8.97109 -1.07305 15.9423 3.22109 20.2358C4.91141 21.9261 7.15202 23.0682 9.65223 23.3728L9.65141 12.9979H10.109C10.1377 12.9979 10.1641 12.982 10.1773 12.9563C10.1833 12.9453 10.1859 12.933 10.1859 12.9205C10.1859 12.9051 10.1814 12.89 10.1724 12.8767L8.62735 10.6366C8.61299 10.6154 8.5892 10.603 8.56401 10.603C8.53834 10.603 8.51456 10.6155 8.5002 10.6366L6.95516 12.8767C6.93892 12.9005 6.93715 12.9311 6.95034 12.9563C6.96387 12.982 6.9899 12.9979 7.01898 12.9979H7.49239L7.52288 20.62C6.47174 20.171 5.52445 19.5245 4.72739 18.7274C1.25998 15.2601 1.26175 9.65018 4.72845 6.18337C4.93978 5.9718 5.16206 5.7713 5.39377 5.58174L5.39353 2.98828C4.59906 3.45934 3.86898 4.02788 3.22003 4.67719Z" fill="#040C17"/>
</svg>
