<svg width="34" height="34" viewBox="0 0 34 34" fill="none" xmlns="http://www.w3.org/2000/svg">
<path d="M32.583 9.20866C32.583 11.2751 31.7621 13.257 30.3009 14.7182C28.8397 16.1794 26.8578 17.0003 24.7913 17.0003C22.7249 17.0003 20.743 16.1794 19.2818 14.7182C17.8206 13.257 16.9997 11.2751 16.9997 9.20866C16.9997 7.14218 17.8206 5.16034 19.2818 3.69912C20.743 2.2379 22.7249 1.41699 24.7913 1.41699C26.8578 1.41699 28.8397 2.2379 30.3009 3.69912C31.7621 5.16034 32.583 7.14218 32.583 9.20866ZM24.083 6.66858V13.4587C24.083 13.6465 24.1576 13.8267 24.2905 13.9595C24.4233 14.0924 24.6035 14.167 24.7913 14.167C24.9792 14.167 25.1594 14.0924 25.2922 13.9595C25.425 13.8267 25.4997 13.6465 25.4997 13.4587V6.66858L27.8315 9.00183C27.9645 9.13483 28.1449 9.20955 28.333 9.20955C28.5211 9.20955 28.7015 9.13483 28.8345 9.00183C28.9675 8.86882 29.0422 8.68842 29.0422 8.50033C29.0422 8.31223 28.9675 8.13183 28.8345 7.99883L25.2928 4.45716C25.227 4.39119 25.1489 4.33886 25.0628 4.30315C24.9768 4.26744 24.8845 4.24906 24.7913 4.24906C24.6982 4.24906 24.6059 4.26744 24.5199 4.30315C24.4338 4.33886 24.3556 4.39119 24.2898 4.45716L20.7482 7.99883C20.6823 8.06468 20.6301 8.14287 20.5944 8.22892C20.5588 8.31496 20.5404 8.40719 20.5404 8.50033C20.5404 8.59346 20.5588 8.68569 20.5944 8.77174C20.6301 8.85778 20.6823 8.93597 20.7482 9.00183C20.8812 9.13483 21.0616 9.20955 21.2497 9.20955C21.3428 9.20955 21.435 9.19121 21.5211 9.15557C21.6071 9.11993 21.6853 9.06768 21.7512 9.00183L24.083 6.66858ZM24.7913 18.417C27.1682 18.4201 29.4536 17.5009 31.1663 15.8528V23.7295C31.1664 24.9055 30.7165 26.037 29.9088 26.8918C29.1011 27.7466 27.997 28.26 26.8228 28.3266L26.5622 28.3337H7.43717C6.26115 28.3337 5.12967 27.8838 4.27485 27.0761C3.42003 26.2685 2.90667 25.1643 2.84009 23.9902L2.83301 23.7295V12.195L16.5067 19.3577C16.6588 19.4373 16.828 19.479 16.9997 19.479C17.1714 19.479 17.3406 19.4373 17.4927 19.3577L20.9168 17.5642C22.1306 18.1276 23.4531 18.4187 24.7913 18.417ZM7.43717 5.66699H16.2885C15.8211 6.78918 15.5813 7.99303 15.583 9.20866C15.583 12.0321 16.8538 14.558 18.8527 16.2467L16.9997 17.2171L2.85567 9.80791C2.96582 8.71777 3.46112 7.70265 4.25258 6.94494C5.04404 6.18724 6.07978 5.73663 7.17367 5.67408L7.43717 5.66699Z" fill="black"/>
</svg>
