<svg width="27" height="27" viewBox="0 0 27 27" fill="none" xmlns="http://www.w3.org/2000/svg">
<g clip-path="url(#clip0_1468_46708)">
<path d="M9.28281 25.4391V19.6172L4.9375 22.8234C6.16094 23.9625 7.6375 24.8484 9.28281 25.4391Z" fill="#2A5F9E"/>
<path d="M17.7188 25.4393C19.3641 24.8486 20.8406 23.9627 22.0641 22.8236L17.7188 19.5752V25.4393Z" fill="#2A5F9E"/>
<path d="M1.5625 17.7188C1.68906 18.1406 1.85781 18.5203 2.06875 18.9422L3.71406 17.7188H1.5625Z" fill="#2A5F9E"/>
<path d="M23.2891 17.7188L24.9344 18.9422C25.1031 18.5625 25.2719 18.1406 25.4406 17.7188H23.2891Z" fill="#2A5F9E"/>
<path d="M9.91484 16.0312H1.09766C1.22422 16.6219 1.39297 17.1703 1.56172 17.7187H3.71328L2.06797 18.9422C2.40547 19.6594 2.78516 20.2922 3.24922 20.925L7.59453 17.7187H9.28203V18.5625L4.34609 22.1906L4.93672 22.7812L9.28203 19.6172V25.4391C9.83047 25.65 10.3789 25.7766 10.9695 25.9031V16.0312H9.91484Z" fill="white"/>
<path d="M25.9031 16.0312H16.0312V25.9031C16.6219 25.7766 17.1703 25.6078 17.7187 25.4391V19.6172L22.0641 22.7812C22.6547 22.2328 23.1609 21.6422 23.6672 21.0094L19.1531 17.7187H22.0219L24.5953 19.6172C24.7219 19.4062 24.8484 19.1531 24.9328 18.9422L23.2875 17.7187H25.4391C25.6078 17.1703 25.7766 16.6219 25.9031 16.0312Z" fill="white"/>
<path d="M3.25 20.9248C3.5875 21.3889 3.925 21.8107 4.30469 22.2326L9.28281 18.6045V17.7607H7.59531L3.25 20.9248Z" fill="#F24848"/>
<path d="M19.1953 17.7188L23.7094 21.0094C23.8781 20.7984 24.0047 20.5875 24.1734 20.3766C24.2156 20.3344 24.2156 20.2922 24.2578 20.2922C24.3844 20.0812 24.5531 19.8281 24.6797 19.6172L22.0219 17.7188H19.1953Z" fill="#F24848"/>
<path d="M17.7188 1.56055V7.38242L22.0641 4.17617C20.8406 3.03711 19.3641 2.15117 17.7188 1.56055Z" fill="#2A5F9E"/>
<path d="M9.28281 1.56055C7.6375 2.15117 6.16094 3.03711 4.9375 4.17617L9.28281 7.42461V1.56055Z" fill="#2A5F9E"/>
<path d="M25.4406 9.28105C25.3141 8.85918 25.1453 8.47949 24.9344 8.05762L23.2891 9.28105H25.4406Z" fill="#2A5F9E"/>
<path d="M3.71406 9.28105L2.06875 8.05762C1.9 8.47949 1.73125 8.85918 1.5625 9.28105H3.71406Z" fill="#2A5F9E"/>
<path d="M17.0859 10.9686H25.8609C25.7344 10.3779 25.5656 9.82949 25.3969 9.28105H23.2453L24.8906 8.05762C24.5531 7.34043 24.1734 6.70762 23.7094 6.0748L19.4062 9.28105H17.7187V8.4373L22.6547 4.80918L22.0641 4.21855L17.7187 7.38262V1.56074C17.1703 1.3498 16.6219 1.22324 16.0312 1.09668V10.9686H17.0859Z" fill="white"/>
<path d="M1.09766 10.9686H10.9695V1.09668C10.3789 1.22324 9.83047 1.39199 9.28203 1.56074V7.38262L4.93672 4.21855C4.34609 4.76699 3.83984 5.35762 3.33359 5.99043L7.84766 9.28105H4.97891L2.40547 7.38262C2.27891 7.59355 2.15234 7.84668 2.06797 8.05762L3.71328 9.28105H1.56172C1.39297 9.82949 1.22422 10.3779 1.09766 10.9686Z" fill="white"/>
<path d="M23.7516 6.07539C23.4141 5.61133 23.0766 5.18945 22.6969 4.76758L17.7188 8.3957V9.23945H19.4062L23.7516 6.07539Z" fill="#F24848"/>
<path d="M7.80547 9.28086L3.33359 5.99023C3.16484 6.20117 3.03828 6.41211 2.86953 6.62305C2.82734 6.66523 2.82734 6.70742 2.78516 6.70742C2.65859 6.91836 2.48984 7.17148 2.36328 7.38242L4.93672 9.28086H7.80547Z" fill="#F24848"/>
<path d="M25.9031 10.9688H16.0312V1.09687C15.2297 0.928125 14.3859 0.84375 13.5 0.84375C12.6141 0.84375 11.7703 0.928125 10.9688 1.09687V10.9688H1.09687C0.928125 11.7703 0.84375 12.6141 0.84375 13.5C0.84375 14.3859 0.928125 15.2297 1.09687 16.0312H10.9688V25.9031C11.7703 26.0719 12.6141 26.1562 13.5 26.1562C14.3859 26.1562 15.2297 26.0719 16.0312 25.9031V16.0312H25.9031C26.0719 15.2297 26.1562 14.3859 26.1562 13.5C26.1562 12.6141 26.0719 11.7703 25.9031 10.9688Z" fill="#F24848"/>
</g>
<defs>
<clipPath id="clip0_1468_46708">
<rect width="27" height="27" fill="white"/>
</clipPath>
</defs>
</svg>
