<svg width="29" height="24" viewBox="0 0 29 24" fill="none" xmlns="http://www.w3.org/2000/svg">
<path d="M8.5 22H20.5C21.0304 22 21.5391 21.7893 21.9142 21.4142C22.2893 21.0391 22.5 20.5304 22.5 20V4C22.5 3.46957 22.2893 2.96086 21.9142 2.58579C21.5391 2.21071 21.0304 2 20.5 2H8.5C7.96957 2 7.46086 2.21071 7.08579 2.58579C6.71071 2.96086 6.5 3.46957 6.5 4V20C6.5 20.5304 6.71071 21.0391 7.08579 21.4142C7.46086 21.7893 7.96957 22 8.5 22ZM11.5 19H9.5V17H11.5V19ZM11.5 15H9.5V13H11.5V15ZM11.5 11H9.5V9H11.5V11ZM15.5 19H13.5V17H15.5V19ZM15.5 15H13.5V13H15.5V15ZM15.5 11H13.5V9H15.5V11ZM19.5 19H17.5V13H19.5V19ZM19.5 11H17.5V9H19.5V11ZM8.5 4H20.5V7H8.5V4Z" fill="black"/>
</svg>
