<svg width="150" height="45" viewBox="0 0 150 45" fill="none" xmlns="http://www.w3.org/2000/svg">
<g clip-path="url(#clip0_1449_45620)">
<path d="M144.063 44.335H5.5409C2.43799 44.335 0 41.897 0 38.7941V5.54871C0 2.44581 2.43799 0.0078125 5.5409 0.0078125H144.063C147.166 0.0078125 149.604 2.44581 149.604 5.54871V38.7941C149.604 41.897 147.166 44.335 144.063 44.335Z" fill="black"/>
<path d="M144.063 0.894356C146.612 0.894356 148.718 2.9999 148.718 5.54871V38.7941C148.718 41.3429 146.612 43.4484 144.063 43.4484H5.5409C2.99208 43.4484 0.886543 41.3429 0.886543 38.7941V5.54871C0.886543 2.9999 2.99208 0.894356 5.5409 0.894356H144.063ZM144.063 0.0078125H5.5409C2.43799 0.0078125 0 2.55662 0 5.54871V38.7941C0 41.897 2.43799 44.335 5.5409 44.335H144.063C147.166 44.335 149.604 41.897 149.604 38.7941V5.54871C149.604 2.55662 147.166 0.0078125 144.063 0.0078125Z" fill="#A6A6A6"/>
<path d="M52.528 11.3113C52.528 12.1978 52.3063 12.9736 51.7523 13.5276C51.0873 14.1926 50.3116 14.525 49.3143 14.525C48.3169 14.525 47.5412 14.1926 46.8763 13.5276C46.2114 12.8627 45.8789 12.087 45.8789 11.0897C45.8789 10.0923 46.2114 9.31657 46.8763 8.65166C47.5412 7.98675 48.3169 7.6543 49.3143 7.6543C49.7575 7.6543 50.2008 7.76511 50.6441 7.98675C51.0873 8.20839 51.4198 8.43002 51.6414 8.76248L51.0873 9.31657C50.6441 8.76248 50.09 8.54084 49.3143 8.54084C48.6494 8.54084 47.9844 8.76248 47.5412 9.31657C46.9871 9.75984 46.7654 10.4247 46.7654 11.2005C46.7654 11.9762 46.9871 12.6411 47.5412 13.0844C48.0953 13.5276 48.6494 13.8601 49.3143 13.8601C50.09 13.8601 50.6441 13.6385 51.1982 13.0844C51.5306 12.7519 51.7523 12.3087 51.7523 11.7546H49.3143V10.868H52.528V11.3113ZM57.6256 8.54084H54.6335V10.6464H57.404V11.4221H54.6335V13.5276H57.6256V14.4142H53.747V7.76511H57.6256V8.54084ZM61.2826 14.4142H60.3961V8.54084H58.5121V7.76511H63.1665V8.54084H61.2826V14.4142ZM66.3802 14.4142V7.76511H67.2668V14.4142H66.3802ZM71.0346 14.4142H70.148V8.54084H68.2641V7.76511H72.8077V8.54084H70.9238V14.4142H71.0346ZM81.5623 13.5276C80.8974 14.1926 80.1217 14.525 79.1243 14.525C78.1269 14.525 77.3512 14.1926 76.6863 13.5276C76.0214 12.8627 75.6889 12.087 75.6889 11.0897C75.6889 10.0923 76.0214 9.31657 76.6863 8.65166C77.3512 7.98675 78.1269 7.6543 79.1243 7.6543C80.1217 7.6543 80.8974 7.98675 81.5623 8.65166C82.2272 9.31657 82.5596 10.0923 82.5596 11.0897C82.5596 12.087 82.2272 12.8627 81.5623 13.5276ZM77.3512 12.9736C77.7945 13.4168 78.4594 13.7493 79.1243 13.7493C79.7892 13.7493 80.4541 13.5276 80.8974 12.9736C81.3406 12.5303 81.6731 11.8654 81.6731 11.0897C81.6731 10.3139 81.4515 9.64902 80.8974 9.20575C80.4541 8.76248 79.7892 8.43002 79.1243 8.43002C78.4594 8.43002 77.7945 8.65166 77.3512 9.20575C76.9079 9.64902 76.5755 10.3139 76.5755 11.0897C76.5755 11.8654 76.7971 12.5303 77.3512 12.9736ZM83.7786 14.4142V7.76511H84.776L87.9897 12.9736V7.76511H88.8763V14.4142H87.9897L84.5544 8.98411V14.4142H83.7786Z" fill="white" stroke="white" stroke-width="0.221636" stroke-miterlimit="10"/>
<path d="M75.4677 24.1664C72.8081 24.1664 70.7025 26.1612 70.7025 28.9316C70.7025 31.5913 72.8081 33.6968 75.4677 33.6968C78.1273 33.6968 80.2329 31.7021 80.2329 28.9316C80.2329 26.0504 78.1273 24.1664 75.4677 24.1664ZM75.4677 31.7021C74.0271 31.7021 72.8081 30.4831 72.8081 28.8208C72.8081 27.1585 74.0271 25.9395 75.4677 25.9395C76.9084 25.9395 78.1274 27.0477 78.1274 28.8208C78.1274 30.4831 76.9084 31.7021 75.4677 31.7021ZM65.1617 24.1664C62.502 24.1664 60.3965 26.1612 60.3965 28.9316C60.3965 31.5913 62.502 33.6968 65.1617 33.6968C67.8213 33.6968 69.9268 31.7021 69.9268 28.9316C69.9268 26.0504 67.8213 24.1664 65.1617 24.1664ZM65.1617 31.7021C63.721 31.7021 62.502 30.4831 62.502 28.8208C62.502 27.1585 63.721 25.9395 65.1617 25.9395C66.6023 25.9395 67.8213 27.0477 67.8213 28.8208C67.8213 30.4831 66.6023 31.7021 65.1617 31.7021ZM52.8609 25.6071V27.6018H57.626C57.5152 28.71 57.0719 29.5965 56.5179 30.1506C55.8529 30.8155 54.7448 31.5913 52.8609 31.5913C49.8688 31.5913 47.6524 29.2641 47.6524 26.272C47.6524 23.2799 49.9796 20.9527 52.8609 20.9527C54.4123 20.9527 55.6313 21.6176 56.5179 22.3934L57.9585 20.9527C56.7395 19.8446 55.188 18.958 52.9717 18.958C48.9822 18.958 45.5469 22.2825 45.5469 26.272C45.5469 30.2614 48.9822 33.586 52.9717 33.586C55.188 33.586 56.7395 32.9211 58.0693 31.4804C59.3991 30.1506 59.8424 28.2667 59.8424 26.8261C59.8424 26.3828 59.8424 25.9395 59.7316 25.6071H52.8609ZM103.172 27.1585C102.729 26.0504 101.621 24.1664 99.1828 24.1664C96.7448 24.1664 94.75 26.0504 94.75 28.9316C94.75 31.5913 96.7448 33.6968 99.4044 33.6968C101.51 33.6968 102.84 32.367 103.283 31.5913L101.732 30.4831C101.177 31.2588 100.513 31.8129 99.4044 31.8129C98.2962 31.8129 97.6313 31.3696 97.0772 30.3723L103.394 27.7126L103.172 27.1585ZM96.7448 28.71C96.7448 26.9369 98.1854 25.9395 99.1828 25.9395C99.9585 25.9395 100.734 26.3828 100.956 26.9369L96.7448 28.71ZM91.5363 33.2535H93.6419V19.4013H91.5363V33.2535ZM88.2118 25.1638C87.6577 24.6097 86.7712 24.0556 85.663 24.0556C83.3358 24.0556 81.1194 26.1612 81.1194 28.8208C81.1194 31.4804 83.225 33.4752 85.663 33.4752C86.7712 33.4752 87.6577 32.9211 88.101 32.367H88.2118V33.0319C88.2118 34.805 87.2144 35.8023 85.663 35.8023C84.444 35.8023 83.5574 34.9158 83.3358 34.1401L81.5627 34.9158C82.1168 36.1348 83.4466 37.6862 85.7738 37.6862C88.2118 37.6862 90.2065 36.2456 90.2065 32.8102V24.3881H88.2118V25.1638ZM85.7738 31.7021C84.3332 31.7021 83.1142 30.4831 83.1142 28.8208C83.1142 27.1585 84.3332 25.9395 85.7738 25.9395C87.2144 25.9395 88.3226 27.1585 88.3226 28.8208C88.3226 30.4831 87.2144 31.7021 85.7738 31.7021ZM112.813 19.4013H107.827V33.2535H109.932V28.0451H112.813C115.141 28.0451 117.357 26.3828 117.357 23.7232C117.357 21.0635 115.141 19.4013 112.813 19.4013ZM112.924 26.0504H109.932V21.2852H112.924C114.476 21.2852 115.362 22.615 115.362 23.6124C115.251 24.8314 114.365 26.0504 112.924 26.0504ZM125.668 24.0556C124.117 24.0556 122.565 24.7205 122.011 26.1612L123.895 26.9369C124.338 26.1612 125.003 25.9395 125.779 25.9395C126.887 25.9395 127.885 26.6044 127.995 27.7126V27.8234C127.663 27.6018 126.776 27.2694 125.89 27.2694C123.895 27.2694 121.9 28.3775 121.9 30.3723C121.9 32.2562 123.563 33.4752 125.336 33.4752C126.776 33.4752 127.441 32.8102 127.995 32.1453H128.106V33.2535H130.101V27.9343C129.879 25.4963 127.995 24.0556 125.668 24.0556ZM125.447 31.7021C124.782 31.7021 123.784 31.3696 123.784 30.4831C123.784 29.3749 125.003 29.0424 126.001 29.0424C126.887 29.0424 127.331 29.2641 127.885 29.4857C127.663 30.8155 126.555 31.7021 125.447 31.7021ZM137.082 24.3881L134.755 30.3723H134.645L132.207 24.3881H129.99L133.647 32.8102L131.542 37.4646H133.647L139.299 24.3881H137.082ZM118.465 33.2535H120.571V19.4013H118.465V33.2535Z" fill="white"/>
<path d="M11.5253 8.31836C11.1928 8.65081 11.082 9.2049 11.082 9.86981V34.3606C11.082 35.0255 11.3037 35.5796 11.6361 35.912L11.7469 36.0228L25.4884 22.2814V22.0598L11.5253 8.31836Z" fill="url(#paint0_linear_1449_45620)"/>
<path d="M29.9224 26.9371L25.3789 22.3936V22.0611L29.9224 17.5176L30.0333 17.6284L35.4633 20.7313C37.0148 21.6178 37.0148 23.0585 35.4633 23.945L29.9224 26.9371Z" fill="url(#paint1_linear_1449_45620)"/>
<path d="M30.03 26.8253L25.3757 22.1709L11.5234 36.0231C12.0775 36.5772 12.8533 36.5772 13.8506 36.134L30.03 26.8253Z" fill="url(#paint2_linear_1449_45620)"/>
<path d="M30.03 17.5173L13.8506 8.31936C12.8533 7.76528 12.0775 7.87609 11.5234 8.43018L25.3757 22.1716L30.03 17.5173Z" fill="url(#paint3_linear_1449_45620)"/>
<path opacity="0.2" d="M29.9192 26.7148L13.8506 35.8019C12.9641 36.356 12.1883 36.2452 11.6343 35.8019L11.5234 35.9127L11.6343 36.0236C12.1883 36.4668 12.9641 36.5776 13.8506 36.0236L29.9192 26.7148Z" fill="black"/>
<path opacity="0.12" d="M11.5253 35.8015C11.1928 35.4691 11.082 34.915 11.082 34.2501V34.3609C11.082 35.0258 11.3037 35.5799 11.6361 35.9123V35.8015H11.5253ZM35.462 23.6115L29.9211 26.7144L30.0319 26.8253L35.462 23.7223C36.2377 23.2791 36.5702 22.725 36.5702 22.1709C36.5702 22.725 36.1269 23.1683 35.462 23.6115Z" fill="black"/>
<path opacity="0.25" d="M13.8525 8.4305L35.462 20.7313C36.1269 21.1746 36.5702 21.6178 36.5702 22.1719C36.5702 21.6178 36.2377 21.0638 35.462 20.6205L13.8525 8.31969C12.301 7.43314 11.082 8.09805 11.082 9.87114V9.98196C11.082 8.31969 12.301 7.54396 13.8525 8.4305Z" fill="white"/>
</g>
<defs>
<linearGradient id="paint0_linear_1449_45620" x1="24.1585" y1="9.65926" x2="5.55997" y2="28.2567" gradientUnits="userSpaceOnUse">
<stop stop-color="#00A0FF"/>
<stop offset="0.007" stop-color="#00A1FF"/>
<stop offset="0.26" stop-color="#00BEFF"/>
<stop offset="0.512" stop-color="#00D2FF"/>
<stop offset="0.76" stop-color="#00DFFF"/>
<stop offset="1" stop-color="#00E3FF"/>
</linearGradient>
<linearGradient id="paint1_linear_1449_45620" x1="37.4957" y1="22.173" x2="10.6811" y2="22.173" gradientUnits="userSpaceOnUse">
<stop stop-color="#FFE000"/>
<stop offset="0.409" stop-color="#FFBD00"/>
<stop offset="0.775" stop-color="#FFA500"/>
<stop offset="1" stop-color="#FF9C00"/>
</linearGradient>
<linearGradient id="paint2_linear_1449_45620" x1="27.5111" y1="24.7153" x2="2.2912" y2="49.9352" gradientUnits="userSpaceOnUse">
<stop stop-color="#FF3A44"/>
<stop offset="1" stop-color="#C31162"/>
</linearGradient>
<linearGradient id="paint3_linear_1449_45620" x1="8.08476" y1="0.203059" x2="19.3472" y2="11.4655" gradientUnits="userSpaceOnUse">
<stop stop-color="#32A071"/>
<stop offset="0.069" stop-color="#2DA771"/>
<stop offset="0.476" stop-color="#15CF74"/>
<stop offset="0.801" stop-color="#06E775"/>
<stop offset="1" stop-color="#00F076"/>
</linearGradient>
<clipPath id="clip0_1449_45620">
<rect width="149.604" height="44.3427" fill="white"/>
</clipPath>
</defs>
</svg>
