<svg width="117" height="142" viewBox="0 0 117 142" fill="none" xmlns="http://www.w3.org/2000/svg">
<path d="M103.305 83.7368L107.11 127.815C107.415 131.403 105.224 134.551 102.218 134.806L18.573 141.983C15.583 142.243 12.8811 139.514 12.593 135.932L8.78748 91.8479C8.71196 91.0204 8.77627 90.186 8.97775 89.3798C9.57575 86.9171 11.3915 85.0307 13.6639 84.8622L97.3086 77.6807C99.5755 77.485 101.658 79.0126 102.696 81.3285C103.031 82.0921 103.236 82.9059 103.305 83.7368Z" fill="#407BFF"/>
<path opacity="0.1" d="M103.305 83.7368L107.11 127.815C107.415 131.403 105.224 134.551 102.218 134.806L18.573 141.983C15.583 142.243 12.8811 139.514 12.593 135.932L8.78748 91.8479C8.71196 91.0204 8.77627 90.186 8.97775 89.3798C9.57575 86.9171 11.3915 85.0307 13.6639 84.8622L97.3086 77.6807C99.5755 77.485 101.658 79.0126 102.696 81.3285C103.031 82.0921 103.236 82.9059 103.305 83.7368Z" fill="black"/>
<path d="M113.231 109.721L112.638 109.792L112.878 111.779L113.471 111.707L113.231 109.721Z" fill="#407BFF"/>
<path d="M112.078 100.131L111.484 100.203L112.379 107.603L112.972 107.531L112.078 100.131Z" fill="#407BFF"/>
<path d="M107.045 75.8537L112.514 121.063C112.955 124.738 110.813 128.054 107.746 128.424L21.9653 138.802C18.8992 139.172 16.0233 136.464 15.5776 132.784L10.1085 87.5801C10.0045 86.73 10.0412 85.8686 10.2173 85.0304C10.7609 82.4807 12.544 80.4964 14.8763 80.2137L100.657 69.8411C102.99 69.5584 105.208 71.0534 106.333 73.4019C106.704 74.1744 106.944 75.0028 107.045 75.8537Z" fill="#407BFF"/>
<path opacity="0.1" d="M106.334 73.4019L67.4254 99.6C65.5212 100.902 63.3317 101.726 61.0419 102.003C58.7521 102.28 56.4291 102.002 54.2693 101.193L10.2344 85.0304C10.778 82.4807 12.5612 80.4964 14.8934 80.2137L100.674 69.8411C102.99 69.5584 105.208 71.0534 106.334 73.4019Z" fill="black"/>
<path d="M91.822 83.1715L80.6447 90.6955L76.986 93.1636L67.4288 99.6003C65.5739 100.873 63.4451 101.691 61.2151 101.987C58.9851 102.284 56.7166 102.051 54.5934 101.307L54.2509 101.193L48.8907 99.2252L36.8218 94.7945L31.1788 92.7233L24.7856 90.3747L24.3235 79.0724L23.2852 53.9562L72.3923 51.9611L91.1098 66.1447L91.3055 70.9667L91.822 83.1715Z" fill="#407BFF"/>
<path opacity="0.7" d="M91.822 83.1715L80.6447 90.6955L76.986 93.1636L67.4288 99.6003C65.5739 100.873 63.4451 101.691 61.2151 101.987C58.9851 102.284 56.7166 102.051 54.5934 101.307L54.2509 101.193L48.8907 99.2252L36.8218 94.7945L31.1788 92.7233L24.7856 90.3747L24.3235 79.0724L23.2852 53.9562L72.3923 51.9611L91.1098 66.1447L91.3055 70.9667L91.822 83.1715Z" fill="#FAFAFA"/>
<g opacity="0.9">
<path d="M84.9037 71.1413L30.5396 73.3485C30.2364 73.3605 29.9405 73.2535 29.715 73.0504C29.4895 72.8472 29.3524 72.5641 29.3327 72.2612C29.3222 71.9589 29.4299 71.6644 29.6328 71.4401C29.8358 71.2158 30.1182 71.0794 30.42 71.0598L84.7841 68.8526C85.0874 68.8406 85.3833 68.9476 85.6088 69.1507C85.8342 69.3539 85.9714 69.637 85.991 69.9399C86.0029 70.2426 85.8958 70.5379 85.6925 70.7625C85.4893 70.9871 85.2061 71.1231 84.9037 71.1413Z" fill="white"/>
<path d="M85.1918 78.3669L30.8277 80.5741C30.5245 80.5861 30.2286 80.4791 30.0031 80.276C29.7776 80.0728 29.6404 79.7896 29.6208 79.4868C29.6102 79.1839 29.7177 78.8888 29.9206 78.6636C30.1234 78.4385 30.4058 78.3009 30.7081 78.2799L85.0722 76.0727C85.3751 76.0621 85.6702 76.1696 85.8954 76.3725C86.1206 76.5753 86.2581 76.8577 86.2791 77.16C86.2883 77.4625 86.1804 77.7569 85.9778 77.9818C85.7752 78.2067 85.4937 78.3446 85.1918 78.3669Z" fill="white"/>
<path d="M85.4879 85.5866L31.1238 87.7938C30.8206 87.8058 30.5246 87.6988 30.2992 87.4957C30.0737 87.2926 29.9365 87.0094 29.9169 86.7065C29.905 86.4038 30.0121 86.1085 30.2154 85.8839C30.4187 85.6593 30.7018 85.5233 31.0042 85.5051L85.3683 83.2979C85.671 83.286 85.9663 83.3931 86.1909 83.5964C86.4155 83.7996 86.5515 84.0828 86.5697 84.3852C86.5817 84.687 86.4753 84.9815 86.2732 85.206C86.0711 85.4304 85.7893 85.567 85.4879 85.5866Z" fill="white"/>
<path d="M80.6476 90.6963L76.9888 93.1644L36.8246 94.7953L31.1816 92.7241C31.2286 92.7184 31.276 92.7184 31.323 92.7241L80.6476 90.6963Z" fill="white"/>
<path d="M65.7689 99.6939V99.7374C65.7695 100.033 65.6574 100.318 65.4555 100.534C65.2535 100.75 64.9768 100.881 64.6816 100.901L54.6188 101.308L54.2763 101.194L48.916 99.2263L64.5892 98.5848C64.8913 98.5803 65.1834 98.6935 65.4036 98.9005C65.6238 99.1075 65.7548 99.392 65.7689 99.6939Z" fill="white"/>
</g>
<path opacity="0.1" d="M91.1336 66.1447L78.1297 65.5847L72.416 51.9611L91.1336 66.1447Z" fill="#263238"/>
<path d="M91.1336 66.1447L78.5157 63.9864L72.416 51.9611L91.1336 66.1447Z" fill="#407BFF"/>
<path d="M116.147 13.4225C116.147 24.4802 104.03 35.3475 102.214 35.3475C100.398 35.3475 88.2803 24.4747 88.2803 13.4225C88.2803 6.01267 94.5158 0 102.214 0C109.912 0 116.147 6.01267 116.147 13.4225Z" fill="#407BFF"/>
<path opacity="0.1" d="M99.6219 10.6661C97.0994 13.4332 93.6745 14.4227 91.9729 12.8407C90.2713 11.2587 90.9345 7.79024 93.4516 5.0231C95.9686 2.25597 99.399 1.26654 101.106 2.81592C102.813 4.3653 102.144 7.89896 99.6219 10.6661Z" fill="white"/>
<path opacity="0.1" d="M92.1935 21.8059C91.8619 20.9796 91.9488 20.175 92.3892 19.9902C92.8295 19.8053 93.4765 20.3381 93.7863 21.1644C94.0962 21.9908 94.031 22.7953 93.5906 22.9747C93.1503 23.1542 92.5251 22.6268 92.1935 21.8059Z" fill="white"/>
<path d="M101.61 70.1405C101.552 70.1391 101.496 70.1152 101.454 70.0737C101.413 70.0322 101.389 69.9763 101.388 69.9176C101.371 69.1843 101.593 68.4654 102.018 67.8681C102.383 67.3328 102.578 66.7001 102.578 66.0523C102.578 65.4045 102.383 64.7718 102.018 64.2365C101.608 63.6319 101.388 62.9179 101.388 62.187C101.388 61.4561 101.608 60.7421 102.018 60.1375C102.383 59.6034 102.579 58.9714 102.579 58.3244C102.579 57.6775 102.383 57.0455 102.018 56.5114C101.607 55.9079 101.388 55.1947 101.388 54.4646C101.388 53.7345 101.607 53.0213 102.018 52.4178C102.383 51.8837 102.579 51.2517 102.579 50.6047C102.579 49.9578 102.383 49.3258 102.018 48.7917C101.607 48.1882 101.388 47.475 101.388 46.7449C101.388 46.0148 101.607 45.3016 102.018 44.6981C102.383 44.164 102.579 43.532 102.579 42.885C102.579 42.2381 102.383 41.6061 102.018 41.072C101.607 40.4685 101.388 39.7553 101.388 39.0252C101.388 38.2951 101.607 37.5819 102.018 36.9784C102.39 36.4496 102.581 35.8144 102.562 35.1681C102.57 35.1142 102.598 35.0652 102.639 35.0298C102.68 34.9943 102.733 34.9749 102.787 34.9749C102.842 34.9749 102.895 34.9943 102.936 35.0298C102.977 35.0652 103.005 35.1142 103.013 35.1681C103.028 35.8995 102.807 36.6165 102.382 37.2121C102.011 37.7435 101.821 38.38 101.839 39.0279C101.819 39.6743 102.01 40.3095 102.382 40.8382C102.793 41.4417 103.013 42.1549 103.013 42.885C103.013 43.6151 102.793 44.3283 102.382 44.9318C102.014 45.4648 101.817 46.0972 101.817 46.7449C101.817 47.3926 102.014 48.0249 102.382 48.5579C102.793 49.1614 103.013 49.8746 103.013 50.6047C103.013 51.3348 102.793 52.048 102.382 52.6516C102.014 53.1846 101.817 53.8169 101.817 54.4646C101.817 55.1123 102.014 55.7446 102.382 56.2776C102.793 56.8811 103.013 57.5943 103.013 58.3244C103.013 59.0545 102.793 59.7677 102.382 60.3713C102.014 60.9051 101.817 61.5384 101.817 62.187C101.817 62.8357 102.014 63.4689 102.382 64.0028C102.793 64.6074 103.013 65.3214 103.013 66.0523C103.013 66.7832 102.793 67.4972 102.382 68.1018C102.009 68.6323 101.819 69.2695 101.839 69.9176C101.839 69.9473 101.833 69.9768 101.821 70.0042C101.81 70.0316 101.793 70.0564 101.772 70.0772C101.75 70.0979 101.725 70.1142 101.697 70.1251C101.67 70.136 101.64 70.1412 101.61 70.1405Z" fill="#263238"/>
<path d="M102.208 34.8259C101.779 34.8259 98.9463 37.381 98.9463 39.9796H105.481C105.481 37.381 102.654 34.8259 102.208 34.8259Z" fill="#407BFF"/>
<path d="M102.853 34.9131H101.57C101.465 34.9131 101.38 34.9983 101.38 35.1034V35.2393C101.38 35.3444 101.465 35.4295 101.57 35.4295H102.853C102.958 35.4295 103.043 35.3444 103.043 35.2393V35.1034C103.043 34.9983 102.958 34.9131 102.853 34.9131Z" fill="#263238"/>
<path d="M28.7206 23.7569C28.7206 34.8091 16.6028 45.6765 14.787 45.6765C12.9713 45.6765 0.853516 34.8037 0.853516 23.7569C0.853516 16.3417 7.08907 10.329 14.787 10.329C22.485 10.329 28.7206 16.3417 28.7206 23.7569Z" fill="#263238"/>
<path opacity="0.1" d="M12.5262 21.4486C15.0474 18.6807 15.7112 15.1797 14.0087 13.6289C12.3062 12.0782 8.88225 13.0649 6.36101 15.8328C3.83976 18.6007 3.17602 22.1016 4.87849 23.6524C6.58096 25.2031 10.0049 24.2165 12.5262 21.4486Z" fill="white"/>
<path opacity="0.1" d="M5.09094 32.5853C4.75932 31.759 4.8463 30.9544 5.28665 30.7696C5.727 30.5847 6.37393 31.1175 6.68381 31.9438C6.99369 32.7702 6.92845 33.5748 6.4881 33.7596C6.04775 33.9444 5.42256 33.4117 5.09094 32.5853Z" fill="white"/>
<path d="M14.17 80.4702C14.1109 80.4702 14.0542 80.4467 14.0124 80.4049C13.9706 80.3631 13.9471 80.3064 13.9471 80.2473C13.931 79.5141 14.1522 78.7952 14.5777 78.1978C14.9426 77.6626 15.1377 77.0298 15.1377 76.382C15.1377 75.7343 14.9426 75.1015 14.5777 74.5663C14.1671 73.9617 13.9475 73.2476 13.9475 72.5168C13.9475 71.7859 14.1671 71.0718 14.5777 70.4672C14.9499 69.9384 15.1407 69.3033 15.1214 68.6569C15.1395 68.009 14.9489 67.3725 14.5777 66.8411C14.1668 66.2376 13.9471 65.5244 13.9471 64.7943C13.9471 64.0642 14.1668 63.351 14.5777 62.7475C14.9499 62.2187 15.1407 61.5836 15.1214 60.9372C15.1395 60.2893 14.9489 59.6528 14.5777 59.1214C14.1668 58.5179 13.9471 57.8047 13.9471 57.0746C13.9471 56.3445 14.1668 55.6313 14.5777 55.0278C14.9424 54.4945 15.1374 53.8635 15.1374 53.2175C15.1374 52.5715 14.9424 51.9405 14.5777 51.4072C14.1668 50.8037 13.9471 50.0905 13.9471 49.3604C13.9471 48.6303 14.1668 47.9171 14.5777 47.3136C14.9489 46.7822 15.1395 46.1457 15.1214 45.4978C15.1228 45.4391 15.1467 45.3832 15.1882 45.3417C15.2297 45.3002 15.2856 45.2763 15.3443 45.2749C15.4034 45.2749 15.4601 45.2984 15.5019 45.3402C15.5437 45.382 15.5672 45.4387 15.5672 45.4978C15.5841 46.2304 15.3649 46.9489 14.942 47.5473C14.5737 48.0792 14.3764 48.7107 14.3764 49.3576C14.3764 50.0046 14.5737 50.6361 14.942 51.168C15.3493 51.7728 15.567 52.4855 15.567 53.2148C15.567 53.944 15.3493 54.6567 14.942 55.2616C14.5708 55.7929 14.3802 56.4295 14.3983 57.0773C14.379 57.7237 14.5698 58.3589 14.942 58.8877C15.3493 59.4925 15.567 60.2052 15.567 60.9345C15.567 61.6637 15.3493 62.3764 14.942 62.9813C14.5708 63.5126 14.3802 64.1492 14.3983 64.797C14.379 65.4434 14.5698 66.0786 14.942 66.6074C15.3493 67.2122 15.567 67.9249 15.567 68.6542C15.567 69.3834 15.3493 70.0961 14.942 70.701C14.5735 71.2348 14.3762 71.8681 14.3762 72.5168C14.3762 73.1654 14.5735 73.7987 14.942 74.3325C15.3498 74.9382 15.5677 75.6518 15.5677 76.382C15.5677 77.1123 15.3498 77.8259 14.942 78.4316C14.5701 78.9625 14.3794 79.5993 14.3983 80.2473C14.3983 80.2771 14.3924 80.3065 14.3809 80.3339C14.3693 80.3613 14.3524 80.3861 14.3311 80.4069C14.3099 80.4277 14.2846 80.444 14.257 80.4548C14.2293 80.4657 14.1997 80.4709 14.17 80.4702Z" fill="#407BFF"/>
<path d="M14.7687 45.1598C14.3392 45.1598 11.5068 47.7095 11.5068 50.3081H18.0305C18.0414 47.7095 15.1927 45.1598 14.7687 45.1598Z" fill="#263238"/>
<path d="M15.4059 45.2422H14.1229C14.0178 45.2422 13.9326 45.3274 13.9326 45.4325V45.5684C13.9326 45.6735 14.0178 45.7586 14.1229 45.7586H15.4059C15.511 45.7586 15.5962 45.6735 15.5962 45.5684V45.4325C15.5962 45.3274 15.511 45.2422 15.4059 45.2422Z" fill="#407BFF"/>
<path d="M109.755 80.2336C113.048 77.2098 113.266 72.0891 110.243 68.7962C107.219 65.5032 102.098 65.285 98.8052 68.3088C95.5122 71.3326 95.294 76.4533 98.3178 79.7462C101.342 83.0391 106.462 83.2573 109.755 80.2336Z" fill="#DE5753"/>
<path d="M105.882 70.3638V78.5184H103.631V73.1798C103.299 73.436 102.944 73.6616 102.571 73.8539C102.157 74.0507 101.728 74.2143 101.288 74.3432V72.522C101.926 72.3396 102.525 72.041 103.055 71.6413C103.473 71.2975 103.809 70.8647 104.039 70.3746L105.882 70.3638Z" fill="white"/>
</svg>
