<svg width="27" height="27" viewBox="0 0 27 27" fill="none" xmlns="http://www.w3.org/2000/svg">
<g clip-path="url(#clip0_2130_7004)">
<path d="M13.5 0C6.05621 0 0 6.05621 0 13.5C0 20.9438 6.05621 27.0001 13.5 27.0001C20.9438 27.0001 27.0001 20.9438 27.0001 13.5C27.0001 6.05621 20.9438 0 13.5 0ZM14.3782 21.5099C13.7368 21.6168 12.4606 21.8839 11.8125 21.9376C11.2639 21.983 10.7463 21.669 10.4307 21.2182C10.1143 20.7675 10.0385 20.1907 10.2264 19.6732L12.7782 12.6563H10.125C10.1227 11.1942 11.2194 10.1191 12.6221 9.70648C13.2915 9.50953 14.5387 9.24001 15.1875 9.28131C15.5762 9.30603 16.2537 9.5499 16.5693 10.0007C16.8857 10.4514 16.9615 11.0282 16.7736 11.5456L14.2218 18.5626H16.8742C16.8747 20.023 15.8189 21.2698 14.3782 21.5099ZM15.1875 8.43753C14.2555 8.43753 13.5 7.68192 13.5 6.75001C13.5 5.818 14.2555 5.0625 15.1875 5.0625C16.1195 5.0625 16.875 5.818 16.875 6.75001C16.875 7.68197 16.1196 8.43753 15.1875 8.43753Z" fill="black"/>
</g>
<defs>
<clipPath id="clip0_2130_7004">
<rect width="27" height="27" fill="white"/>
</clipPath>
</defs>
</svg>
