<svg width="127" height="127" viewBox="0 0 127 127" fill="none" xmlns="http://www.w3.org/2000/svg">
<path d="M118.241 100.724H8.75854C3.92137 100.724 0 96.8026 0 91.9654V26.2757C0 21.4385 3.92137 17.5172 8.75854 17.5172H118.241C123.079 17.5172 127 21.4385 127 26.2757V91.9654C127 96.8026 123.079 100.724 118.241 100.724Z" fill="#E4EAF8"/>
<path d="M37.2234 74.4485C26.3394 74.4485 17.5166 83.2715 17.5166 94.1553C17.5166 96.4624 17.9336 98.6668 18.6621 100.724H55.785C56.5133 98.6668 56.9305 96.4624 56.9305 94.1553C56.9303 83.2715 48.1075 74.4485 37.2234 74.4485Z" fill="#D5DCED"/>
<path d="M63.4993 91.9653H10.9476C9.73834 91.9653 8.75781 90.9847 8.75781 89.7755V28.4653C8.75781 27.256 9.73834 26.2755 10.9476 26.2755H63.4993C64.7085 26.2755 65.689 27.256 65.689 28.4653V89.7755C65.689 90.9847 64.7085 91.9653 63.4993 91.9653Z" fill="#AFB9D2"/>
<path d="M17.6465 91.9658H56.8037C55.7135 82.1134 47.3682 74.4485 37.2251 74.4485C27.0819 74.4485 18.7369 82.1134 17.6465 91.9658Z" fill="#959CB5"/>
<path d="M54.7412 83.2069C55.9505 83.2069 56.931 82.2264 56.931 81.0172V75.415C56.931 73.5301 55.7248 71.8566 53.9366 71.2605L45.2869 68.3772C44.3945 68.0798 43.7917 67.2454 43.7897 66.3048L43.7815 62.4109C45.1485 61.7276 46.0603 60.3809 46.1871 58.8577L46.6656 53.6435C47.5816 52.841 48.1722 51.6757 48.1722 50.3621V39.4138C48.1722 38.2045 47.1917 37.224 45.9825 37.224H32.8444C29.2165 37.224 26.2754 40.1651 26.2754 43.793V50.3621C26.2754 51.676 26.866 52.841 27.782 53.6435L28.2605 58.8577C28.3873 60.3807 29.2993 61.7276 30.6661 62.4109L30.6579 66.3048C30.6559 67.2456 30.0531 68.08 29.1607 68.3772L20.511 71.2605C18.7229 71.8566 17.5166 73.5301 17.5166 75.415V81.0172C17.5166 82.2264 18.4971 83.2069 19.7064 83.2069H54.7412Z" fill="#E4EAF8"/>
<path d="M105.103 32.8452H74.4476C73.2374 32.8452 72.2578 31.8647 72.2578 30.6555C72.2578 29.4462 73.2371 28.4657 74.4476 28.4657H105.103C106.313 28.4657 107.292 29.4462 107.292 30.6555C107.292 31.8647 106.313 32.8452 105.103 32.8452Z" fill="#7F8499"/>
<path d="M116.051 41.6035H74.4476C73.2374 41.6035 72.2578 40.623 72.2578 39.4138C72.2578 38.2045 73.2371 37.224 74.4476 37.224H116.051C117.261 37.224 118.241 38.2045 118.241 39.4138C118.241 40.6232 117.261 41.6035 116.051 41.6035Z" fill="#707487"/>
<path d="M116.053 72.2585H87.5872C86.377 72.2585 85.3975 71.278 85.3975 70.0687C85.3975 68.8595 86.3768 67.879 87.5872 67.879H116.053C117.263 67.879 118.243 68.8595 118.243 70.0687C118.243 71.278 117.263 72.2585 116.053 72.2585Z" fill="#959CB5"/>
<path d="M78.8268 72.2585H74.4476C73.2374 72.2585 72.2578 71.278 72.2578 70.0687C72.2578 68.8595 73.2371 67.879 74.4476 67.879H78.8268C80.0371 67.879 81.0166 68.8595 81.0166 70.0687C81.0166 71.278 80.0373 72.2585 78.8268 72.2585Z" fill="#7F8499"/>
<path d="M109.484 81.0173H87.5872C86.377 81.0173 85.3975 80.0367 85.3975 78.8275C85.3975 77.6183 86.3768 76.6378 87.5872 76.6378H109.484C110.694 76.6378 111.674 77.6183 111.674 78.8275C111.674 80.0367 110.694 81.0173 109.484 81.0173Z" fill="#959CB5"/>
<path d="M78.8268 81.0173H74.4476C73.2374 81.0173 72.2578 80.0367 72.2578 78.8275C72.2578 77.6183 73.2371 76.6378 74.4476 76.6378H78.8268C80.0371 76.6378 81.0166 77.6183 81.0166 78.8275C81.0166 80.0367 80.0373 81.0173 78.8268 81.0173Z" fill="#7F8499"/>
<path d="M109.484 89.7756H87.5872C86.377 89.7756 85.3975 88.7951 85.3975 87.5859C85.3975 86.3766 86.3768 85.3961 87.5872 85.3961H109.484C110.694 85.3961 111.674 86.3766 111.674 87.5859C111.674 88.7951 110.694 89.7756 109.484 89.7756Z" fill="#959CB5"/>
<path d="M78.8268 89.7756H74.4476C73.2374 89.7756 72.2578 88.7951 72.2578 87.5859C72.2578 86.3766 73.2371 85.3961 74.4476 85.3961H78.8268C80.0371 85.3961 81.0166 86.3766 81.0166 87.5859C81.0166 88.7951 80.0373 89.7756 78.8268 89.7756Z" fill="#7F8499"/>
<path d="M78.8267 60.2154C81.85 60.2154 84.3008 57.7646 84.3008 54.7413C84.3008 51.718 81.85 49.2672 78.8267 49.2672C75.8034 49.2672 73.3525 51.718 73.3525 54.7413C73.3525 57.7646 75.8034 60.2154 78.8267 60.2154Z" fill="#4C5058"/>
<path d="M96.3462 60.2159C99.3695 60.2159 101.82 57.7651 101.82 54.7418C101.82 51.7185 99.3695 49.2676 96.3462 49.2676C93.3229 49.2676 90.8721 51.7185 90.8721 54.7418C90.8721 57.7651 93.3229 60.2159 96.3462 60.2159Z" fill="#4C5058"/>
<path d="M113.863 60.2159C116.886 60.2159 119.337 57.7651 119.337 54.7418C119.337 51.7185 116.886 49.2676 113.863 49.2676C110.84 49.2676 108.389 51.7185 108.389 54.7418C108.389 57.7651 110.84 60.2159 113.863 60.2159Z" fill="#4C5058"/>
<path d="M53.6083 83.207C50.0729 77.9266 44.0563 74.4485 37.2246 74.4485C30.3929 74.4485 24.3762 77.9268 20.8408 83.207H53.6083Z" fill="#D5DCED"/>
<path d="M37.225 109.483C45.6902 109.483 52.5526 102.62 52.5526 94.155C52.5526 85.6898 45.6902 78.8275 37.225 78.8275C28.7598 78.8275 21.8975 85.6898 21.8975 94.155C21.8975 102.62 28.7598 109.483 37.225 109.483Z" fill="#20CB6F"/>
<path d="M35.7642 100.724C35.2572 100.724 34.7507 100.55 34.3402 100.197L29.2316 95.8179C28.3124 95.0311 28.2052 93.6485 28.9942 92.7302C29.7811 91.8127 31.1647 91.707 32.0797 92.4928L35.5801 95.494L42.1789 88.2964C42.9958 87.4037 44.3794 87.3459 45.2731 88.1617C46.1648 88.9795 46.2248 90.3641 45.4078 91.2558L37.3782 100.014C36.9466 100.485 36.3565 100.724 35.7642 100.724Z" fill="white"/>
</svg>
