<svg width="54" height="56" viewBox="0 0 54 56" fill="none"
    xmlns="http://www.w3.org/2000/svg">

    <path d="M18 10C17.2044 10 16.4413 10.3161 15.8787 10.8787C15.3161 11.4413 15 12.2044 15 13V31C15 31.7956 15.3161 32.5587 15.8787 33.1213C16.4413 33.6839 17.2044 34 18 34C18.7956 34 19.5587 33.6839 20.1213 33.1213C20.6839 32.5587 21 31.7956 21 31V13C21 12.2044 20.6839 11.4413 20.1213 10.8787C19.5587 10.3161 18.7956 10 18 10V10Z" fill="#266DE0"/>
    <path d="M27 16C26.2044 16 25.4413 16.3161 24.8787 16.8787C24.3161 17.4413 24 18.2044 24 19V31C24 31.7956 24.3161 32.5587 24.8787 33.1213C25.4413 33.6839 26.2044 34 27 34C27.7956 34 28.5587 33.6839 29.1213 33.1213C29.6839 32.5587 30 31.7956 30 31V19C30 18.2044 29.6839 17.4413 29.1213 16.8787C28.5587 16.3161 27.7956 16 27 16Z" fill="#266DE0"/>
    <path d="M36 10C35.2044 10 34.4413 10.3161 33.8787 10.8787C33.3161 11.4413 33 12.2044 33 13V31C33 31.7956 33.3161 32.5587 33.8787 33.1213C34.4413 33.6839 35.2044 34 36 34C36.7956 34 37.5587 33.6839 38.1213 33.1213C38.6839 32.5587 39 31.7956 39 31V13C39 12.2044 38.6839 11.4413 38.1213 10.8787C37.5587 10.3161 36.7956 10 36 10V10Z" fill="#266DE0"/>
    <path d="M12.4785 45.8906H13.5723L15.6279 51.374L17.6787 45.8906H18.7725L16.0576 53H15.1885L12.4785 45.8906ZM11.9805 45.8906H13.0205L13.2012 50.6367V53H11.9805V45.8906ZM18.2305 45.8906H19.2754V53H18.0498V50.6367L18.2305 45.8906ZM23.5918 51.9404V49.4209C23.5918 49.2321 23.5576 49.0693 23.4893 48.9326C23.4209 48.7959 23.3167 48.6901 23.1768 48.6152C23.04 48.5404 22.8675 48.5029 22.6592 48.5029C22.4671 48.5029 22.3011 48.5355 22.1611 48.6006C22.0212 48.6657 21.9121 48.7536 21.834 48.8643C21.7559 48.9749 21.7168 49.1003 21.7168 49.2402H20.5449C20.5449 49.0319 20.5954 48.8301 20.6963 48.6348C20.7972 48.4395 20.9437 48.2653 21.1357 48.1123C21.3278 47.9593 21.5573 47.8389 21.8242 47.751C22.0911 47.6631 22.3906 47.6191 22.7227 47.6191C23.1198 47.6191 23.4714 47.6859 23.7773 47.8193C24.0866 47.9528 24.3291 48.1546 24.5049 48.4248C24.6839 48.6917 24.7734 49.027 24.7734 49.4307V51.7793C24.7734 52.0202 24.7897 52.2367 24.8223 52.4287C24.8581 52.6175 24.9085 52.7819 24.9736 52.9219V53H23.7676C23.7122 52.873 23.6683 52.7119 23.6357 52.5166C23.6064 52.318 23.5918 52.126 23.5918 51.9404ZM23.7627 49.7871L23.7725 50.5146H22.9277C22.7096 50.5146 22.5176 50.5358 22.3516 50.5781C22.1855 50.6172 22.0472 50.6758 21.9365 50.7539C21.8258 50.832 21.7428 50.9264 21.6875 51.0371C21.6322 51.1478 21.6045 51.2731 21.6045 51.4131C21.6045 51.5531 21.637 51.6816 21.7021 51.7988C21.7673 51.9128 21.8617 52.0023 21.9854 52.0674C22.1123 52.1325 22.2653 52.165 22.4443 52.165C22.6852 52.165 22.8952 52.1162 23.0742 52.0186C23.2565 51.9176 23.3997 51.7956 23.5039 51.6523C23.6081 51.5059 23.6634 51.3675 23.6699 51.2373L24.0508 51.7598C24.0117 51.8932 23.945 52.0365 23.8506 52.1895C23.7562 52.3424 23.6325 52.4889 23.4795 52.6289C23.3298 52.7656 23.1491 52.8779 22.9375 52.9658C22.7292 53.0537 22.4883 53.0977 22.2148 53.0977C21.8698 53.0977 21.5622 53.0293 21.292 52.8926C21.0218 52.7526 20.8102 52.5654 20.6572 52.3311C20.5042 52.0934 20.4277 51.8249 20.4277 51.5254C20.4277 51.2454 20.4798 50.998 20.584 50.7832C20.6914 50.5651 20.8477 50.3828 21.0527 50.2363C21.2611 50.0898 21.515 49.9792 21.8145 49.9043C22.1139 49.8262 22.4557 49.7871 22.8398 49.7871H23.7627ZM27.1855 48.7227V53H26.0088V47.7168H27.1318L27.1855 48.7227ZM28.8018 47.6826L28.792 48.7764C28.7204 48.7633 28.6423 48.7536 28.5576 48.7471C28.4762 48.7406 28.3949 48.7373 28.3135 48.7373C28.1117 48.7373 27.9342 48.7666 27.7812 48.8252C27.6283 48.8805 27.4997 48.9619 27.3955 49.0693C27.2946 49.1735 27.2165 49.3005 27.1611 49.4502C27.1058 49.5999 27.0732 49.7676 27.0635 49.9531L26.7949 49.9727C26.7949 49.6406 26.8275 49.333 26.8926 49.0498C26.9577 48.7666 27.0553 48.5176 27.1855 48.3027C27.319 48.0879 27.485 47.9202 27.6836 47.7998C27.8854 47.6794 28.1182 47.6191 28.3818 47.6191C28.4535 47.6191 28.5299 47.6257 28.6113 47.6387C28.696 47.6517 28.7594 47.6663 28.8018 47.6826ZM30.7256 45.5V53H29.5439V45.5H30.7256ZM34.0068 47.7168L31.707 50.2656L30.4473 51.5547L30.1396 50.5586L31.0918 49.3818L32.5859 47.7168H34.0068ZM32.8398 53L31.126 50.5195L31.8682 49.6943L34.2021 53H32.8398ZM36.9854 53.0977C36.5947 53.0977 36.2415 53.0342 35.9258 52.9072C35.6133 52.777 35.3464 52.5964 35.125 52.3652C34.9069 52.1341 34.7393 51.8623 34.6221 51.5498C34.5049 51.2373 34.4463 50.9004 34.4463 50.5391V50.3438C34.4463 49.9303 34.5065 49.556 34.627 49.2207C34.7474 48.8854 34.915 48.599 35.1299 48.3613C35.3447 48.1204 35.5986 47.9365 35.8916 47.8096C36.1846 47.6826 36.502 47.6191 36.8438 47.6191C37.2214 47.6191 37.5518 47.6826 37.835 47.8096C38.1182 47.9365 38.3525 48.1156 38.5381 48.3467C38.7269 48.5745 38.8669 48.8464 38.958 49.1621C39.0524 49.4779 39.0996 49.8262 39.0996 50.207V50.71H35.0176V49.8652H37.9375V49.7725C37.931 49.5609 37.8887 49.3623 37.8105 49.1768C37.7357 48.9912 37.6201 48.8415 37.4639 48.7275C37.3076 48.6136 37.0993 48.5566 36.8389 48.5566C36.6436 48.5566 36.4694 48.599 36.3164 48.6836C36.1667 48.765 36.0413 48.8838 35.9404 49.04C35.8395 49.1963 35.7614 49.3851 35.7061 49.6064C35.654 49.8245 35.6279 50.0703 35.6279 50.3438V50.5391C35.6279 50.7702 35.6589 50.985 35.7207 51.1836C35.7858 51.3789 35.8802 51.5498 36.0039 51.6963C36.1276 51.8428 36.2773 51.9583 36.4531 52.043C36.6289 52.1243 36.8291 52.165 37.0537 52.165C37.3369 52.165 37.5892 52.1081 37.8105 51.9941C38.0319 51.8802 38.224 51.7191 38.3867 51.5107L39.0068 52.1113C38.8929 52.2773 38.7448 52.4368 38.5625 52.5898C38.3802 52.7396 38.1572 52.8617 37.8936 52.9561C37.6331 53.0505 37.3304 53.0977 36.9854 53.0977ZM42.4395 47.7168V48.5762H39.4609V47.7168H42.4395ZM40.3203 46.4229H41.4971V51.54C41.4971 51.7028 41.5199 51.8281 41.5654 51.916C41.6143 52.0007 41.681 52.0576 41.7656 52.0869C41.8503 52.1162 41.9495 52.1309 42.0635 52.1309C42.1449 52.1309 42.223 52.126 42.2979 52.1162C42.3727 52.1064 42.4329 52.0967 42.4785 52.0869L42.4834 52.9854C42.3857 53.0146 42.2718 53.0407 42.1416 53.0635C42.0146 53.0863 41.8682 53.0977 41.7021 53.0977C41.432 53.0977 41.1927 53.0505 40.9844 52.9561C40.776 52.8584 40.6133 52.7005 40.4961 52.4824C40.3789 52.2643 40.3203 51.9746 40.3203 51.6133V46.4229Z" fill="#266DE0"/>
 

</svg>
