<svg width="69" height="72" viewBox="0 0 69 72" fill="none" xmlns="http://www.w3.org/2000/svg">
<g clip-path="url(#clip0_1639_6372)">
<path d="M38.43 6C55.02 6 68.46 19.5 68.46 36C68.46 52.5 55.02 66 38.43 66C27.9 66 18.69 60.54 13.32 52.29L18.06 48.54C22.29 55.41 29.82 60 38.46 60C44.8252 60 50.9297 57.4714 55.4306 52.9706C59.9315 48.4697 62.46 42.3652 62.46 36C62.46 29.6348 59.9315 23.5303 55.4306 19.0294C50.9297 14.5286 44.8252 12 38.46 12C26.22 12 16.14 21.18 14.67 33H22.95L11.73 44.19L0.540039 33H8.61004C10.11 17.85 22.89 6 38.43 6ZM47.31 30.72C48.81 30.75 50.04 31.95 50.04 33.48V47.31C50.04 48.81 48.81 50.07 47.28 50.07H30.69C29.16 50.07 27.93 48.81 27.93 47.31V33.48C27.93 31.95 29.16 30.75 30.66 30.72V27.69C30.66 23.1 34.41 19.38 38.97 19.38C43.56 19.38 47.31 23.1 47.31 27.69V30.72ZM38.97 23.58C36.72 23.58 34.86 25.41 34.86 27.69V30.72H43.11V27.69C43.11 25.41 41.25 23.58 38.97 23.58Z" fill="#F4465E"/>
</g>
<defs>
<clipPath id="clip0_1639_6372">
<rect width="67.92" height="72" fill="white" transform="translate(0.540039)"/>
</clipPath>
</defs>
</svg>
