<svg width="86" height="83" viewBox="0 0 86 83" fill="none" xmlns="http://www.w3.org/2000/svg">
<path d="M42.958 82.5649C64.105 82.5649 81.248 65.4219 81.248 44.2749C81.248 23.1279 64.105 5.98486 42.958 5.98486C21.811 5.98486 4.66797 23.1279 4.66797 44.2749C4.66797 65.4219 21.811 82.5649 42.958 82.5649Z" fill="url(#paint0_linear_2054_6739)"/>
<path d="M63.6147 14.895H21.1974C18.5535 14.895 16.4102 17.0383 16.4102 19.6823H68.4019C68.4019 17.0383 66.2586 14.895 63.6147 14.895Z" fill="url(#paint1_linear_2054_6739)"/>
<path d="M16.4102 19.5513H68.4019V59.1491C68.4019 60.9096 67.7026 62.5981 66.4577 63.8429C65.2128 65.0878 63.5243 65.7872 61.7638 65.7872H23.0483C21.2878 65.7872 19.5993 65.0878 18.3544 63.8429C17.1095 62.5981 16.4102 60.9096 16.4102 59.1491V19.5513Z" fill="url(#paint2_linear_2054_6739)"/>
<path d="M59.4648 24.5527H25.364C24.6538 24.5527 24.0781 25.1278 24.0781 25.8372C24.0781 26.5466 24.6538 27.1217 25.364 27.1217H59.4648C60.175 27.1217 60.7507 26.5466 60.7507 25.8372C60.7507 25.1278 60.175 24.5527 59.4648 24.5527Z" fill="url(#paint3_linear_2054_6739)"/>
<path d="M59.4648 35.4673H25.364C24.6538 35.4673 24.0781 36.0424 24.0781 36.7518C24.0781 37.4612 24.6538 38.0363 25.364 38.0363H59.4648C60.175 38.0363 60.7507 37.4612 60.7507 36.7518C60.7507 36.0424 60.175 35.4673 59.4648 35.4673Z" fill="url(#paint4_linear_2054_6739)"/>
<path d="M59.4648 46.3818H25.364C24.6538 46.3818 24.0781 46.9569 24.0781 47.6663C24.0781 48.3757 24.6538 48.9508 25.364 48.9508H59.4648C60.175 48.9508 60.7507 48.3757 60.7507 47.6663C60.7507 46.9569 60.175 46.3818 59.4648 46.3818Z" fill="url(#paint5_linear_2054_6739)"/>
<path d="M59.4648 57.2964H25.364C24.6538 57.2964 24.0781 57.8715 24.0781 58.5809C24.0781 59.2903 24.6538 59.8654 25.364 59.8654H59.4648C60.175 59.8654 60.7507 59.2903 60.7507 58.5809C60.7507 57.8715 60.175 57.2964 59.4648 57.2964Z" fill="url(#paint6_linear_2054_6739)"/>
<g filter="url(#filter0_d_2054_6739)">
<path d="M25.1335 44.041H6.97532C5.51655 44.041 4.33398 45.2236 4.33398 46.6824V72.6365C4.33398 74.0953 5.51655 75.2778 6.97532 75.2778H25.1335C26.5923 75.2778 27.7748 74.0953 27.7748 72.6365V46.6824C27.7748 45.2236 26.5923 44.041 25.1335 44.041Z" fill="url(#paint7_linear_2054_6739)"/>
</g>
<g filter="url(#filter1_d_2054_6739)">
<path d="M76.8238 3.5H56.7674C55.8328 3.5 55.0752 4.25764 55.0752 5.19224V14.6192C55.0752 15.5538 55.8328 16.3115 56.7674 16.3115H76.8238C77.7584 16.3115 78.516 15.5538 78.516 14.6192V5.19224C78.516 4.25764 77.7584 3.5 76.8238 3.5Z" fill="url(#paint8_linear_2054_6739)"/>
</g>
<path d="M23.1073 57.0249H9.00164C8.52665 57.0249 8.1416 57.41 8.1416 57.8849V57.8877C8.1416 58.3627 8.52665 58.7478 9.00164 58.7478H23.1073C23.5823 58.7478 23.9674 58.3627 23.9674 57.8877V57.8849C23.9674 57.41 23.5823 57.0249 23.1073 57.0249Z" fill="url(#paint9_linear_2054_6739)"/>
<path d="M23.1145 69.1479H9.12999C8.65909 69.1479 8.27734 69.521 8.27734 69.9812V69.9839C8.27734 70.444 8.65909 70.8171 9.12999 70.8171H23.1145C23.5854 70.8171 23.9671 70.444 23.9671 69.9839V69.9812C23.9671 69.521 23.5854 69.1479 23.1145 69.1479Z" fill="url(#paint10_linear_2054_6739)"/>
<path d="M23.1145 62.8052H9.12999C8.65909 62.8052 8.27734 63.1782 8.27734 63.6384V63.6411C8.27734 64.1013 8.65909 64.4743 9.12999 64.4743H23.1145C23.5854 64.4743 23.9671 64.1013 23.9671 63.6411V63.6384C23.9671 63.1782 23.5854 62.8052 23.1145 62.8052Z" fill="url(#paint11_linear_2054_6739)"/>
<path d="M14.1591 48.0488H10.0371C9.12398 48.0488 8.38379 48.789 8.38379 49.7021V50.846C8.38379 51.7591 9.12398 52.4993 10.0371 52.4993H14.1591C15.0722 52.4993 15.8124 51.7591 15.8124 50.846V49.7021C15.8124 48.789 15.0722 48.0488 14.1591 48.0488Z" fill="url(#paint12_linear_2054_6739)"/>
<path d="M60.0256 11.85C61.1001 11.85 61.9711 10.979 61.9711 9.9045C61.9711 8.83002 61.1001 7.95898 60.0256 7.95898C58.9511 7.95898 58.0801 8.83002 58.0801 9.9045C58.0801 10.979 58.9511 11.85 60.0256 11.85Z" fill="#1B6AEA"/>
<path d="M66.9777 11.85C68.0522 11.85 68.9233 10.979 68.9233 9.9045C68.9233 8.83002 68.0522 7.95898 66.9777 7.95898C65.9033 7.95898 65.0322 8.83002 65.0322 9.9045C65.0322 10.979 65.9033 11.85 66.9777 11.85Z" fill="#1B6AEA"/>
<path d="M73.9309 11.85C75.0053 11.85 75.8764 10.979 75.8764 9.9045C75.8764 8.83002 75.0053 7.95898 73.9309 7.95898C72.8564 7.95898 71.9854 8.83002 71.9854 9.9045C71.9854 10.979 72.8564 11.85 73.9309 11.85Z" fill="#1B6AEA"/>
<path d="M68.6558 58.2529L63.7285 63.6851L77.6171 76.2829L82.5445 70.8507L68.6558 58.2529Z" fill="url(#paint13_linear_2054_6739)"/>
<path fill-rule="evenodd" clip-rule="evenodd" d="M73.8636 49.2619C73.8636 60.6262 64.6511 69.8387 53.2868 69.8387C41.9225 69.8387 32.71 60.6262 32.71 49.2619C32.71 37.8976 41.9225 28.6851 53.2868 28.6851C64.6511 28.6851 73.8636 37.8976 73.8636 49.2619ZM70.7078 49.262C70.7078 58.8831 62.9083 66.6825 53.2872 66.6825C43.6661 66.6825 35.8666 58.8831 35.8666 49.262C35.8666 39.6408 43.6661 31.8414 53.2872 31.8414C62.9083 31.8414 70.7078 39.6408 70.7078 49.262Z" fill="url(#paint14_linear_2054_6739)"/>
<g filter="url(#filter2_b_2054_6739)">
<path d="M53.2858 66.6825C62.9069 66.6825 70.7064 58.883 70.7064 49.2619C70.7064 39.6408 62.9069 31.8413 53.2858 31.8413C43.6647 31.8413 35.8652 39.6408 35.8652 49.2619C35.8652 58.883 43.6647 66.6825 53.2858 66.6825Z" fill="url(#paint15_linear_2054_6739)" fill-opacity="0.2"/>
</g>
<path d="M57.4715 49.2618L62.4536 44.2686C62.9203 43.7746 63.176 43.1181 63.1664 42.4386C63.1568 41.759 62.8826 41.1101 62.402 40.6295C61.9215 40.149 61.2725 39.8747 60.5929 39.8651C59.9134 39.8555 59.2569 40.1112 58.7629 40.578L53.7697 45.5712L48.7876 40.578C48.5479 40.3242 48.2597 40.1212 47.9401 39.9808C47.6205 39.8403 47.276 39.7655 46.927 39.7605C46.578 39.7556 46.2315 39.8207 45.908 39.952C45.5846 40.0833 45.2908 40.2781 45.044 40.5249C44.7971 40.7717 44.6023 41.0656 44.471 41.389C44.3397 41.7124 44.2746 42.0589 44.2796 42.408C44.2845 42.757 44.3594 43.1015 44.4998 43.4211C44.6402 43.7407 44.8433 44.0288 45.097 44.2686L50.0874 49.2618L45.097 54.255C44.8433 54.4948 44.6402 54.7829 44.4998 55.1025C44.3594 55.4221 44.2845 55.7666 44.2796 56.1156C44.2746 56.4647 44.3397 56.8112 44.471 57.1346C44.6023 57.458 44.7971 57.7519 45.044 57.9987C45.2908 58.2455 45.5846 58.4403 45.908 58.5716C46.2315 58.7029 46.578 58.768 46.927 58.7631C47.276 58.7581 47.6205 58.6833 47.9401 58.5429C48.2597 58.4024 48.5479 58.1994 48.7876 57.9457L53.7808 52.9524L58.7741 57.9457C59.2727 58.3849 59.9201 58.6174 60.5842 58.5959C61.2484 58.5744 61.8793 58.3004 62.3485 57.8298C62.8177 57.3592 63.0897 56.7274 63.1093 56.0632C63.1288 55.399 62.8943 54.7523 62.4536 54.255L57.4715 49.2618Z" fill="#F4465E"/>
<g filter="url(#filter3_f_2054_6739)">
<ellipse cx="53.8617" cy="58.8838" rx="12.2465" ry="1.80914" fill="#EC5575" fill-opacity="0.56"/>
</g>
<path d="M39.708 70.9011C39.8807 70.1853 40.8988 70.1853 41.0716 70.9011L41.653 73.3099C41.7148 73.5657 41.9145 73.7654 42.1703 73.8272L44.5791 74.4086C45.2949 74.5814 45.2949 75.5995 44.5791 75.7722L42.1703 76.3537C41.9145 76.4155 41.7148 76.6152 41.653 76.8709L41.0716 79.2798C40.8988 79.9956 39.8807 79.9956 39.708 79.2798L39.1265 76.8709C39.0647 76.6152 38.865 76.4155 38.6093 76.3537L36.2004 75.7722C35.4846 75.5995 35.4846 74.5814 36.2004 74.4086L38.6093 73.8272C38.865 73.7654 39.0647 73.5657 39.1265 73.3099L39.708 70.9011Z" fill="url(#paint16_linear_2054_6739)"/>
<path d="M12.0009 6.80633C12.1737 6.0906 13.1917 6.0906 13.3645 6.80633L13.946 9.21522C14.0078 9.47099 14.2075 9.67069 14.4632 9.73243L16.8721 10.3139C17.5878 10.4867 17.5878 11.5047 16.8721 11.6775L14.4632 12.259C14.2075 12.3207 14.0078 12.5204 13.946 12.7762L13.3645 15.1851C13.1917 15.9008 12.1737 15.9008 12.0009 15.1851L11.4194 12.7762C11.3577 12.5204 11.158 12.3207 10.9022 12.259L8.49334 11.6775C7.77762 11.5047 7.77762 10.4867 8.49334 10.3139L10.9022 9.73243C11.158 9.67069 11.3577 9.47099 11.4194 9.21522L12.0009 6.80633Z" fill="url(#paint17_linear_2054_6739)"/>
<path fill-rule="evenodd" clip-rule="evenodd" d="M41.4314 7.19658C42.077 7.19658 42.6004 6.67322 42.6004 6.02762C42.6004 5.38202 42.077 4.85866 41.4314 4.85866C40.7858 4.85866 40.2625 5.38202 40.2625 6.02762C40.2625 6.67322 40.7858 7.19658 41.4314 7.19658ZM41.4314 8.07331C42.5612 8.07331 43.4771 7.15742 43.4771 6.02762C43.4771 4.89782 42.5612 3.98193 41.4314 3.98193C40.3016 3.98193 39.3857 4.89782 39.3857 6.02762C39.3857 7.15742 40.3016 8.07331 41.4314 8.07331Z" fill="url(#paint18_linear_2054_6739)"/>
<path d="M77.78 39.3851C77.6688 38.9491 78.0713 38.5563 78.5045 38.678L81.4283 39.4996C81.8614 39.6214 82.0004 40.1663 81.6784 40.4806L79.5049 42.6019C79.183 42.9161 78.6415 42.764 78.5303 42.328L77.78 39.3851Z" fill="url(#paint19_linear_2054_6739)"/>
<path d="M9.2447 34.3663C9.68083 34.2557 10.0731 34.6587 9.95085 35.0917L9.12543 38.0145C9.00315 38.4475 8.45799 38.5857 8.14414 38.2633L6.02568 36.0871C5.71184 35.7647 5.86469 35.2235 6.30082 35.1129L9.2447 34.3663Z" fill="url(#paint20_linear_2054_6739)"/>
<path d="M64.9937 74.7589C65.4299 74.6483 65.8222 75.0513 65.6999 75.4843L64.8745 78.4071C64.7522 78.84 64.207 78.9783 63.8932 78.6559L61.7747 76.4797C61.4609 76.1573 61.6137 75.616 62.0498 75.5054L64.9937 74.7589Z" fill="url(#paint21_linear_2054_6739)"/>
<path fill-rule="evenodd" clip-rule="evenodd" d="M80.489 24.2215C81.1346 24.2215 81.658 23.6981 81.658 23.0525C81.658 22.4069 81.1346 21.8836 80.489 21.8836C79.8434 21.8836 79.3201 22.4069 79.3201 23.0525C79.3201 23.6981 79.8434 24.2215 80.489 24.2215ZM80.489 25.0982C81.6188 25.0982 82.5347 24.1823 82.5347 23.0525C82.5347 21.9227 81.6188 21.0068 80.489 21.0068C79.3592 21.0068 78.4434 21.9227 78.4434 23.0525C78.4434 24.1823 79.3592 25.0982 80.489 25.0982Z" fill="url(#paint22_linear_2054_6739)"/>
<path d="M77.6152 76.2837L82.5426 70.8515L83.2847 71.5247C84.0048 72.1779 84.4359 73.0903 84.4832 74.0613C84.5306 75.0324 84.1902 75.9824 83.537 76.7025C82.8839 77.4226 81.9714 77.8537 81.0004 77.901C80.0294 77.9483 79.0793 77.608 78.3593 76.9548L77.6171 76.2816L77.6152 76.2837Z" fill="url(#paint23_linear_2054_6739)"/>
<defs>
<filter id="filter0_d_2054_6739" x="0.328089" y="41.3704" width="33.4552" height="41.2516" filterUnits="userSpaceOnUse" color-interpolation-filters="sRGB">
<feFlood flood-opacity="0" result="BackgroundImageFix"/>
<feColorMatrix in="SourceAlpha" type="matrix" values="0 0 0 0 0 0 0 0 0 0 0 0 0 0 0 0 0 0 127 0" result="hardAlpha"/>
<feOffset dx="1.00147" dy="2.33677"/>
<feGaussianBlur stdDeviation="2.50368"/>
<feComposite in2="hardAlpha" operator="out"/>
<feColorMatrix type="matrix" values="0 0 0 0 0.104618 0 0 0 0 0.465612 0 0 0 0 0.545833 0 0 0 0.15 0"/>
<feBlend mode="normal" in2="BackgroundImageFix" result="effect1_dropShadow_2054_6739"/>
<feBlend mode="normal" in="SourceGraphic" in2="effect1_dropShadow_2054_6739" result="shape"/>
</filter>
<filter id="filter1_d_2054_6739" x="52.7384" y="0.495579" width="32.1199" height="21.491" filterUnits="userSpaceOnUse" color-interpolation-filters="sRGB">
<feFlood flood-opacity="0" result="BackgroundImageFix"/>
<feColorMatrix in="SourceAlpha" type="matrix" values="0 0 0 0 0 0 0 0 0 0 0 0 0 0 0 0 0 0 127 0" result="hardAlpha"/>
<feOffset dx="2.00295" dy="1.3353"/>
<feGaussianBlur stdDeviation="2.16986"/>
<feComposite in2="hardAlpha" operator="out"/>
<feColorMatrix type="matrix" values="0 0 0 0 0.104618 0 0 0 0 0.465612 0 0 0 0 0.545833 0 0 0 0.09 0"/>
<feBlend mode="normal" in2="BackgroundImageFix" result="effect1_dropShadow_2054_6739"/>
<feBlend mode="normal" in="SourceGraphic" in2="effect1_dropShadow_2054_6739" result="shape"/>
</filter>
<filter id="filter2_b_2054_6739" x="30.2987" y="26.2747" width="45.974" height="45.9745" filterUnits="userSpaceOnUse" color-interpolation-filters="sRGB">
<feFlood flood-opacity="0" result="BackgroundImageFix"/>
<feGaussianBlur in="BackgroundImageFix" stdDeviation="2.78329"/>
<feComposite in2="SourceAlpha" operator="in" result="effect1_backgroundBlur_2054_6739"/>
<feBlend mode="normal" in="SourceGraphic" in2="effect1_backgroundBlur_2054_6739" result="shape"/>
</filter>
<filter id="filter3_f_2054_6739" x="34.657" y="50.1165" width="38.4096" height="17.5346" filterUnits="userSpaceOnUse" color-interpolation-filters="sRGB">
<feFlood flood-opacity="0" result="BackgroundImageFix"/>
<feBlend mode="normal" in="SourceGraphic" in2="BackgroundImageFix" result="shape"/>
<feGaussianBlur stdDeviation="3.47911" result="effect1_foregroundBlur_2054_6739"/>
</filter>
<linearGradient id="paint0_linear_2054_6739" x1="42.6628" y1="-6.48331" x2="43.4472" y2="127.985" gradientUnits="userSpaceOnUse">
<stop stop-color="white" stop-opacity="0"/>
<stop offset="1" stop-color="#3EAEFF"/>
</linearGradient>
<linearGradient id="paint1_linear_2054_6739" x1="16.3513" y1="15.9998" x2="68.4279" y2="19.6719" gradientUnits="userSpaceOnUse">
<stop stop-color="#90E3F5"/>
<stop offset="1" stop-color="#459BFF"/>
</linearGradient>
<linearGradient id="paint2_linear_2054_6739" x1="14.8491" y1="54.2226" x2="89.9596" y2="55.5579" gradientUnits="userSpaceOnUse">
<stop stop-color="white"/>
<stop offset="1" stop-color="#E7F9FF"/>
</linearGradient>
<linearGradient id="paint3_linear_2054_6739" x1="22.5271" y1="27.0158" x2="62.9199" y2="27.0158" gradientUnits="userSpaceOnUse">
<stop stop-color="#2094FF"/>
<stop offset="1" stop-color="#D2F7FF"/>
</linearGradient>
<linearGradient id="paint4_linear_2054_6739" x1="22.5271" y1="37.9303" x2="62.9199" y2="37.9303" gradientUnits="userSpaceOnUse">
<stop stop-color="#2094FF"/>
<stop offset="1" stop-color="#D2F7FF"/>
</linearGradient>
<linearGradient id="paint5_linear_2054_6739" x1="22.5271" y1="48.8449" x2="62.9199" y2="48.8449" gradientUnits="userSpaceOnUse">
<stop stop-color="#2094FF"/>
<stop offset="1" stop-color="#D2F7FF"/>
</linearGradient>
<linearGradient id="paint6_linear_2054_6739" x1="22.5271" y1="59.7594" x2="62.9199" y2="59.7594" gradientUnits="userSpaceOnUse">
<stop stop-color="#2094FF"/>
<stop offset="1" stop-color="#D2F7FF"/>
</linearGradient>
<linearGradient id="paint7_linear_2054_6739" x1="3.63016" y1="67.4648" x2="48.5585" y2="71.1548" gradientUnits="userSpaceOnUse">
<stop stop-color="white"/>
<stop offset="1" stop-color="#B0D9FF"/>
</linearGradient>
<linearGradient id="paint8_linear_2054_6739" x1="54.3714" y1="13.107" x2="88.2178" y2="14.0861" gradientUnits="userSpaceOnUse">
<stop stop-color="white"/>
<stop offset="1" stop-color="#E7F9FF"/>
</linearGradient>
<linearGradient id="paint9_linear_2054_6739" x1="25.804" y1="58.7991" x2="6.77599" y2="58.7991" gradientUnits="userSpaceOnUse">
<stop stop-color="#D2F7FF"/>
<stop offset="1" stop-color="#0A6CFF"/>
</linearGradient>
<linearGradient id="paint10_linear_2054_6739" x1="25.7879" y1="70.8668" x2="6.92347" y2="70.8668" gradientUnits="userSpaceOnUse">
<stop stop-color="#D2F7FF"/>
<stop offset="1" stop-color="#0A6CFF"/>
</linearGradient>
<linearGradient id="paint11_linear_2054_6739" x1="25.7879" y1="64.5241" x2="6.92347" y2="64.5241" gradientUnits="userSpaceOnUse">
<stop stop-color="#D2F7FF"/>
<stop offset="1" stop-color="#0A6CFF"/>
</linearGradient>
<linearGradient id="paint12_linear_2054_6739" x1="20.9635" y1="52.4565" x2="7.44363" y2="52.4565" gradientUnits="userSpaceOnUse">
<stop offset="0.243799" stop-color="#D2F7FF"/>
<stop offset="1" stop-color="#0185FF"/>
</linearGradient>
<linearGradient id="paint13_linear_2054_6739" x1="66.9282" y1="66.5986" x2="71.902" y2="61.1432" gradientUnits="userSpaceOnUse">
<stop stop-color="#90E3F5"/>
<stop offset="1" stop-color="#459BFF"/>
</linearGradient>
<linearGradient id="paint14_linear_2054_6739" x1="32.6634" y1="38.1827" x2="74.0874" y2="38.4517" gradientUnits="userSpaceOnUse">
<stop stop-color="#90E3F5"/>
<stop offset="1" stop-color="#459BFF"/>
</linearGradient>
<linearGradient id="paint15_linear_2054_6739" x1="53.2858" y1="31.8413" x2="70.84" y2="77.3926" gradientUnits="userSpaceOnUse">
<stop stop-color="white"/>
<stop offset="1" stop-color="#1D75F9"/>
</linearGradient>
<linearGradient id="paint16_linear_2054_6739" x1="33.3601" y1="71.314" x2="47.4798" y2="71.4057" gradientUnits="userSpaceOnUse">
<stop stop-color="#90E3F5"/>
<stop offset="1" stop-color="#459BFF"/>
</linearGradient>
<linearGradient id="paint17_linear_2054_6739" x1="5.65306" y1="7.2193" x2="19.7728" y2="7.31097" gradientUnits="userSpaceOnUse">
<stop stop-color="#90E3F5"/>
<stop offset="1" stop-color="#459BFF"/>
</linearGradient>
<linearGradient id="paint18_linear_2054_6739" x1="39.3811" y1="4.92616" x2="43.4994" y2="4.9529" gradientUnits="userSpaceOnUse">
<stop stop-color="#90E3F5"/>
<stop offset="1" stop-color="#459BFF"/>
</linearGradient>
<linearGradient id="paint19_linear_2054_6739" x1="76.3759" y1="41.4153" x2="80.6129" y2="37.3334" gradientUnits="userSpaceOnUse">
<stop stop-color="#90E3F5"/>
<stop offset="1" stop-color="#459BFF"/>
</linearGradient>
<linearGradient id="paint20_linear_2054_6739" x1="7.21633" y1="32.9596" x2="11.2927" y2="37.2019" gradientUnits="userSpaceOnUse">
<stop stop-color="#90E3F5"/>
<stop offset="1" stop-color="#459BFF"/>
</linearGradient>
<linearGradient id="paint21_linear_2054_6739" x1="62.9654" y1="73.3522" x2="67.0417" y2="77.5944" gradientUnits="userSpaceOnUse">
<stop stop-color="#90E3F5"/>
<stop offset="1" stop-color="#459BFF"/>
</linearGradient>
<linearGradient id="paint22_linear_2054_6739" x1="78.4387" y1="21.9511" x2="82.557" y2="21.9778" gradientUnits="userSpaceOnUse">
<stop stop-color="#90E3F5"/>
<stop offset="1" stop-color="#459BFF"/>
</linearGradient>
<linearGradient id="paint23_linear_2054_6739" x1="80.0789" y1="73.5676" x2="83.5361" y2="76.7035" gradientUnits="userSpaceOnUse">
<stop stop-color="#78CCF8"/>
<stop offset="1" stop-color="#0085FF" stop-opacity="0"/>
</linearGradient>
</defs>
</svg>
