<svg width="29" height="28" viewBox="0 0 29 28" fill="none" xmlns="http://www.w3.org/2000/svg">
<mask id="path-1-inside-1_1188_5714" fill="white">
<path fill-rule="evenodd" clip-rule="evenodd" d="M14.5 25.875C20.8513 25.875 26 20.7263 26 14.375C26 8.02373 20.8513 2.875 14.5 2.875C8.14873 2.875 3 8.02373 3 14.375C3 20.7263 8.14873 25.875 14.5 25.875ZM13.2862 16.0833H15.395C16.1818 16.0833 16.8498 15.9576 17.3992 15.7062C17.9531 15.4548 18.3744 15.094 18.6631 14.6238C18.9517 14.1536 19.096 13.5903 19.096 12.9339C19.096 12.3101 18.9517 11.7562 18.6631 11.272C18.3744 10.7832 17.9531 10.4015 17.3992 10.1268C16.8498 9.84749 16.1818 9.70783 15.395 9.70783H11.5335V19.875H13.2862V16.0833ZM13.2862 14.6937V11.1044H15.395C15.8559 11.1044 16.2283 11.1905 16.5123 11.3628C16.7963 11.535 17.0035 11.7631 17.1338 12.0471C17.2688 12.3264 17.3363 12.6267 17.3363 12.9479C17.3363 13.2878 17.2688 13.5903 17.1338 13.8557C17.0035 14.1164 16.7963 14.3212 16.5123 14.4702C16.2283 14.6192 15.8559 14.6937 15.395 14.6937H13.2862Z"/>
</mask>
<path fill-rule="evenodd" clip-rule="evenodd" d="M14.5 25.875C20.8513 25.875 26 20.7263 26 14.375C26 8.02373 20.8513 2.875 14.5 2.875C8.14873 2.875 3 8.02373 3 14.375C3 20.7263 8.14873 25.875 14.5 25.875ZM13.2862 16.0833H15.395C16.1818 16.0833 16.8498 15.9576 17.3992 15.7062C17.9531 15.4548 18.3744 15.094 18.6631 14.6238C18.9517 14.1536 19.096 13.5903 19.096 12.9339C19.096 12.3101 18.9517 11.7562 18.6631 11.272C18.3744 10.7832 17.9531 10.4015 17.3992 10.1268C16.8498 9.84749 16.1818 9.70783 15.395 9.70783H11.5335V19.875H13.2862V16.0833ZM13.2862 14.6937V11.1044H15.395C15.8559 11.1044 16.2283 11.1905 16.5123 11.3628C16.7963 11.535 17.0035 11.7631 17.1338 12.0471C17.2688 12.3264 17.3363 12.6267 17.3363 12.9479C17.3363 13.2878 17.2688 13.5903 17.1338 13.8557C17.0035 14.1164 16.7963 14.3212 16.5123 14.4702C16.2283 14.6192 15.8559 14.6937 15.395 14.6937H13.2862Z" fill="black"/>
<path d="M13.2862 16.0833V14.0833H11.2862V16.0833H13.2862ZM17.3992 15.7062L16.5727 13.8849L16.5669 13.8876L17.3992 15.7062ZM18.6631 14.6238L16.9586 13.5775L16.9586 13.5775L18.6631 14.6238ZM18.6631 11.272L16.9409 12.2889L16.9452 12.2961L18.6631 11.272ZM17.3992 10.1268L16.4927 11.9096L16.5017 11.9142L16.5108 11.9187L17.3992 10.1268ZM11.5335 9.70783V7.70783H9.53348V9.70783H11.5335ZM11.5335 19.875H9.53348V21.875H11.5335V19.875ZM13.2862 19.875V21.875H15.2862V19.875H13.2862ZM13.2862 11.1044V9.10442H11.2862V11.1044H13.2862ZM13.2862 14.6937H11.2862V16.6937H13.2862V14.6937ZM16.5123 11.3628L15.4751 13.0728L15.4751 13.0728L16.5123 11.3628ZM17.1338 12.0471L15.3161 12.8814L15.3244 12.8995L15.3331 12.9174L17.1338 12.0471ZM17.1338 13.8557L15.3512 12.9488L15.3449 12.9613L17.1338 13.8557ZM16.5123 14.4702L15.5832 12.6991L15.5832 12.6991L16.5123 14.4702ZM24 14.375C24 19.6217 19.7467 23.875 14.5 23.875V27.875C21.9558 27.875 28 21.8308 28 14.375H24ZM14.5 4.875C19.7467 4.875 24 9.12829 24 14.375H28C28 6.91916 21.9558 0.875 14.5 0.875V4.875ZM5 14.375C5 9.12829 9.25329 4.875 14.5 4.875V0.875C7.04416 0.875 1 6.91916 1 14.375H5ZM14.5 23.875C9.25329 23.875 5 19.6217 5 14.375H1C1 21.8308 7.04416 27.875 14.5 27.875V23.875ZM15.395 14.0833H13.2862V18.0833H15.395V14.0833ZM16.5669 13.8876C16.3451 13.9891 15.9778 14.0833 15.395 14.0833V18.0833C16.3858 18.0833 17.3546 17.9261 18.2314 17.5248L16.5669 13.8876ZM16.9586 13.5775C16.9 13.6729 16.8021 13.7808 16.5727 13.8849L18.2256 17.5274C19.1041 17.1288 19.8488 16.5151 20.3675 15.6701L16.9586 13.5775ZM17.096 12.9339C17.096 13.2917 17.0201 13.4774 16.9586 13.5775L20.3675 15.6701C20.8833 14.8299 21.096 13.889 21.096 12.9339H17.096ZM16.9452 12.2961C17.0299 12.4383 17.096 12.6311 17.096 12.9339H21.096C21.096 11.9891 20.8735 11.074 20.381 10.2479L16.9452 12.2961ZM16.5108 11.9187C16.7499 12.0372 16.8668 12.1635 16.9409 12.2889L20.3852 10.2551C19.8821 9.40294 19.1564 8.76571 18.2876 8.33495L16.5108 11.9187ZM15.395 11.7078C15.9514 11.7078 16.291 11.807 16.4927 11.9096L18.3056 8.34403C17.4087 7.88794 16.4122 7.70783 15.395 7.70783V11.7078ZM11.5335 11.7078H15.395V7.70783H11.5335V11.7078ZM13.5335 19.875V9.70783H9.53348V19.875H13.5335ZM13.2862 17.875H11.5335V21.875H13.2862V17.875ZM11.2862 16.0833V19.875H15.2862V16.0833H11.2862ZM11.2862 11.1044V14.6937H15.2862V11.1044H11.2862ZM15.395 9.10442H13.2862V13.1044H15.395V9.10442ZM17.5495 9.65277C16.8542 9.23101 16.0859 9.10442 15.395 9.10442V13.1044C15.5037 13.1044 15.5575 13.1148 15.5694 13.1176C15.5793 13.1199 15.5398 13.1121 15.4751 13.0728L17.5495 9.65277ZM18.9515 11.2128C18.6436 10.5421 18.1527 10.0186 17.5495 9.65277L15.4751 13.0728C15.4652 13.0668 15.4356 13.0467 15.4001 13.0076C15.3639 12.9678 15.3353 12.9232 15.3161 12.8814L18.9515 11.2128ZM19.3363 12.9479C19.3363 12.3363 19.2054 11.7372 18.9345 11.1768L15.3331 12.9174C15.3336 12.9185 15.3339 12.9193 15.3341 12.9197C15.3342 12.9199 15.3342 12.92 15.3343 12.9201C15.3343 12.9202 15.3343 12.9202 15.3343 12.9202C15.3343 12.9202 15.3343 12.9202 15.3343 12.9202C15.3343 12.9202 15.3343 12.9201 15.3343 12.9201C15.3343 12.9201 15.3343 12.9202 15.3344 12.9205C15.3344 12.9205 15.3363 12.9284 15.3363 12.9479H19.3363ZM18.9164 14.7626C19.2133 14.1789 19.3363 13.5581 19.3363 12.9479H15.3363C15.3363 12.9852 15.3326 12.9989 15.3337 12.9943C15.3341 12.9921 15.3356 12.9864 15.3386 12.978C15.3416 12.9695 15.3458 12.9596 15.3512 12.9488L18.9164 14.7626ZM17.4414 16.2413C18.0577 15.918 18.5859 15.4236 18.9227 14.7501L15.3449 12.9613C15.3776 12.8961 15.4224 12.8341 15.4745 12.7827C15.5252 12.7325 15.5673 12.7075 15.5832 12.6991L17.4414 16.2413ZM15.395 16.6937C16.0474 16.6937 16.7731 16.5919 17.4414 16.2413L15.5832 12.6991C15.6379 12.6704 15.6603 12.6701 15.6278 12.6766C15.5946 12.6833 15.5206 12.6937 15.395 12.6937V16.6937ZM13.2862 16.6937H15.395V12.6937H13.2862V16.6937Z" fill="black" mask="url(#path-1-inside-1_1188_5714)"/>
</svg>
