<svg width="54" height="60" viewBox="0 0 54 60" fill="none"
    xmlns="http://www.w3.org/2000/svg">

    <path d="M26.9999 10.2607C28.7779 10.2607 30.483 10.967 31.7402 12.2242C32.9974 13.4814 33.7037 15.1866 33.7037 16.9645C33.7037 18.7425 32.9974 20.4476 31.7402 21.7049C30.483 22.9621 28.7779 23.6684 26.9999 23.6684C25.2219 23.6684 23.5168 22.9621 22.2596 21.7049C21.0024 20.4476 20.2961 18.7425 20.2961 16.9645C20.2961 15.1866 21.0024 13.4814 22.2596 12.2242C23.5168 10.967 25.2219 10.2607 26.9999 10.2607V10.2607ZM26.9999 27.0203C34.4076 27.0203 40.4075 30.0202 40.4075 33.7241V37.076H13.5923V33.7241C13.5923 30.0202 19.5922 27.0203 26.9999 27.0203Z" fill="#FFFFFF"/>
    <path d="M15.8086 53.4246H13.958V52.4529H15.8086C16.1309 52.4529 16.3913 52.4008 16.5898 52.2966C16.7884 52.1925 16.9333 52.0492 17.0244 51.8669C17.1188 51.6814 17.166 51.4698 17.166 51.2322C17.166 51.0076 17.1188 50.7976 17.0244 50.6023C16.9333 50.4037 16.7884 50.2442 16.5898 50.1238C16.3913 50.0033 16.1309 49.9431 15.8086 49.9431H14.334V56.0759H13.1084V48.9666H15.8086C16.3587 48.9666 16.8258 49.0642 17.21 49.2595C17.5973 49.4516 17.8919 49.7185 18.0938 50.0603C18.2956 50.3988 18.3965 50.7862 18.3965 51.2224C18.3965 51.6814 18.2956 52.0753 18.0938 52.4041C17.8919 52.7328 17.5973 52.9851 17.21 53.1609C16.8258 53.3367 16.3587 53.4246 15.8086 53.4246ZM20.5596 51.7986V56.0759H19.3828V50.7927H20.5059L20.5596 51.7986ZM22.1758 50.7585L22.166 51.8523C22.0944 51.8393 22.0163 51.8295 21.9316 51.823C21.8503 51.8165 21.7689 51.8132 21.6875 51.8132C21.4857 51.8132 21.3083 51.8425 21.1553 51.9011C21.0023 51.9565 20.8737 52.0378 20.7695 52.1453C20.6686 52.2494 20.5905 52.3764 20.5352 52.5261C20.4798 52.6759 20.4473 52.8435 20.4375 53.0291L20.1689 53.0486C20.1689 52.7166 20.2015 52.4089 20.2666 52.1257C20.3317 51.8425 20.4294 51.5935 20.5596 51.3787C20.693 51.1638 20.859 50.9962 21.0576 50.8757C21.2594 50.7553 21.4922 50.6951 21.7559 50.6951C21.8275 50.6951 21.904 50.7016 21.9854 50.7146C22.07 50.7276 22.1335 50.7423 22.1758 50.7585ZM22.5615 53.4929V53.3806C22.5615 52.9998 22.6169 52.6466 22.7275 52.321C22.8382 51.9923 22.9977 51.7074 23.2061 51.4666C23.4176 51.2224 23.6748 51.0336 23.9775 50.9001C24.2835 50.7634 24.6286 50.6951 25.0127 50.6951C25.4001 50.6951 25.7451 50.7634 26.0479 50.9001C26.3538 51.0336 26.6126 51.2224 26.8242 51.4666C27.0358 51.7074 27.1969 51.9923 27.3076 52.321C27.4183 52.6466 27.4736 52.9998 27.4736 53.3806V53.4929C27.4736 53.8738 27.4183 54.227 27.3076 54.5525C27.1969 54.878 27.0358 55.1628 26.8242 55.407C26.6126 55.6479 26.3555 55.8367 26.0527 55.9734C25.75 56.1069 25.4066 56.1736 25.0225 56.1736C24.6351 56.1736 24.2884 56.1069 23.9824 55.9734C23.6797 55.8367 23.4225 55.6479 23.2109 55.407C22.9993 55.1628 22.8382 54.878 22.7275 54.5525C22.6169 54.227 22.5615 53.8738 22.5615 53.4929ZM23.7383 53.3806V53.4929C23.7383 53.7306 23.7627 53.9552 23.8115 54.1667C23.8604 54.3783 23.9368 54.5639 24.041 54.7234C24.1452 54.8829 24.2786 55.0082 24.4414 55.0994C24.6042 55.1905 24.7979 55.2361 25.0225 55.2361C25.2406 55.2361 25.4294 55.1905 25.5889 55.0994C25.7516 55.0082 25.8851 54.8829 25.9893 54.7234C26.0934 54.5639 26.1699 54.3783 26.2188 54.1667C26.2708 53.9552 26.2969 53.7306 26.2969 53.4929V53.3806C26.2969 53.1462 26.2708 52.9249 26.2188 52.7166C26.1699 52.505 26.0918 52.3178 25.9844 52.155C25.8802 51.9923 25.7467 51.8653 25.584 51.7742C25.4245 51.6798 25.234 51.6326 25.0127 51.6326C24.7913 51.6326 24.5993 51.6798 24.4365 51.7742C24.277 51.8653 24.1452 51.9923 24.041 52.155C23.9368 52.3178 23.8604 52.505 23.8115 52.7166C23.7627 52.9249 23.7383 53.1462 23.7383 53.3806ZM29.9736 56.0759H28.792V50.4509C28.792 50.0245 28.8766 49.6648 29.0459 49.3718C29.2184 49.0789 29.4642 48.8559 29.7832 48.7029C30.1055 48.5499 30.488 48.4734 30.9307 48.4734C31.1911 48.4734 31.4417 48.5011 31.6826 48.5564C31.9268 48.6117 32.179 48.6817 32.4395 48.7664L32.2588 49.7234C32.0928 49.6681 31.9089 49.616 31.707 49.5671C31.5052 49.5151 31.2725 49.489 31.0088 49.489C30.654 49.489 30.3919 49.5704 30.2227 49.7332C30.0566 49.8927 29.9736 50.1319 29.9736 50.4509V56.0759ZM31.0332 50.7927V51.6521H27.9814V50.7927H31.0332ZM32.9961 50.7927V56.0759H31.8193V50.7927H32.9961ZM35.5693 48.5759V56.0759H34.3877V48.5759H35.5693ZM39.1875 56.1736C38.7969 56.1736 38.4437 56.1101 38.1279 55.9832C37.8154 55.8529 37.5485 55.6723 37.3271 55.4412C37.109 55.21 36.9414 54.9382 36.8242 54.6257C36.707 54.3132 36.6484 53.9763 36.6484 53.615V53.4197C36.6484 53.0063 36.7087 52.6319 36.8291 52.2966C36.9495 51.9613 37.1172 51.6749 37.332 51.4373C37.5469 51.1964 37.8008 51.0125 38.0938 50.8855C38.3867 50.7585 38.7041 50.6951 39.0459 50.6951C39.4235 50.6951 39.7539 50.7585 40.0371 50.8855C40.3203 51.0125 40.5547 51.1915 40.7402 51.4226C40.929 51.6505 41.069 51.9223 41.1602 52.238C41.2546 52.5538 41.3018 52.9021 41.3018 53.283V53.7859H37.2197V52.9412H40.1396V52.8484C40.1331 52.6368 40.0908 52.4382 40.0127 52.2527C39.9378 52.0671 39.8223 51.9174 39.666 51.8035C39.5098 51.6895 39.3014 51.6326 39.041 51.6326C38.8457 51.6326 38.6715 51.6749 38.5186 51.7595C38.3688 51.8409 38.2435 51.9597 38.1426 52.116C38.0417 52.2722 37.9635 52.461 37.9082 52.6824C37.8561 52.9005 37.8301 53.1462 37.8301 53.4197V53.615C37.8301 53.8461 37.861 54.061 37.9229 54.2595C37.988 54.4548 38.0824 54.6257 38.2061 54.7722C38.3298 54.9187 38.4795 55.0343 38.6553 55.1189C38.8311 55.2003 39.0312 55.241 39.2559 55.241C39.5391 55.241 39.7913 55.184 40.0127 55.0701C40.234 54.9561 40.4261 54.795 40.5889 54.5867L41.209 55.1873C41.0951 55.3533 40.9469 55.5128 40.7646 55.6658C40.5824 55.8155 40.3594 55.9376 40.0957 56.032C39.8353 56.1264 39.5326 56.1736 39.1875 56.1736Z" fill="#FFFFFF"/>

</svg>
