<svg width="257" height="179" viewBox="0 0 257 179" fill="none" xmlns="http://www.w3.org/2000/svg">
<g clip-path="url(#clip0_5333_117877)">
<path d="M76.7907 23.1095L76.6081 23.0635L18.6633 144.376L222.931 160.144L223.161 160.162L230.646 61.6837L230.66 61.4901L76.7907 23.1095ZM135.47 101.124L19.4673 143.761L76.7796 23.773L135.47 101.124ZM135.811 101.49L222.097 159.617L20.087 144.024L135.811 101.49ZM135.917 100.952L77.3135 23.7136L229.686 61.7206L135.917 100.952ZM222.749 159.502L136.324 101.281L230.157 62.0229L222.749 159.502Z" fill="#367CFF"/>
<path d="M256.753 63.7353C256.568 68.4054 255.256 72.9615 252.927 77.0141C250.599 81.0667 247.324 84.4953 243.382 87.0069C239.441 89.5185 234.949 91.0385 230.293 91.4369C225.636 91.8354 220.952 91.1004 216.641 89.2949C214.619 88.4475 212.701 87.3702 210.926 86.0842C207.532 83.6342 204.708 80.4803 202.645 76.838V76.8348C200.447 72.9391 199.181 68.5866 198.948 64.1193C198.715 59.652 199.522 55.1915 201.303 51.0883C203.085 46.9852 205.794 43.3511 209.218 40.4716C212.641 37.5921 216.686 35.5457 221.034 34.4931C225.381 33.4405 229.914 33.4103 234.275 34.405C238.637 35.3998 242.708 37.3923 246.169 40.226C249.631 43.0597 252.388 46.6575 254.224 50.7366C256.061 54.8157 256.926 59.265 256.753 63.735L256.753 63.7353Z" fill="#1B6AEA"/>
<path opacity="0.09" d="M256.753 63.7353C256.568 68.4054 255.256 72.9615 252.927 77.0141C250.599 81.0667 247.324 84.4953 243.382 87.0069C239.441 89.5185 234.949 91.0385 230.293 91.4369C225.636 91.8354 220.952 91.1004 216.641 89.2949C214.619 88.4475 212.701 87.3702 210.926 86.0842C207.532 83.6342 204.708 80.4803 202.645 76.838V76.8348C200.447 72.9391 199.181 68.5866 198.948 64.1193C198.715 59.652 199.522 55.1915 201.303 51.0883C203.085 46.9852 205.794 43.3511 209.218 40.4716C212.641 37.5921 216.686 35.5457 221.034 34.4931C225.381 33.4405 229.914 33.4103 234.275 34.405C238.637 35.3998 242.708 37.3923 246.169 40.226C249.631 43.0597 252.388 46.6575 254.224 50.7366C256.061 54.8157 256.926 59.265 256.753 63.735L256.753 63.7353Z" fill="#367CFF"/>
<path d="M234.683 40.5791C234.683 40.5791 241.6 40.6638 239.215 50.1962L238.565 50.228L237.247 50.2922" fill="#0C0C0C"/>
<path d="M226.959 60.1962C226.991 60.1932 227.119 66.139 234.03 65.8892C238.814 65.717 240.712 60.7214 240.821 60.7255C240.311 60.5964 239.451 60.4032 239.228 60.2729C238.492 59.8403 237.579 59.3842 237.393 57.9159C237.286 57.0696 237.69 52.7773 237.65 51.9238L230.264 53.2741C230.296 55.0749 230.851 59.2677 228.312 59.9075C227.89 60.0134 227.435 60.1081 226.959 60.1962Z" fill="#E98862"/>
<path opacity="0.52" d="M229.967 58.2667C230.096 57.9015 230.185 57.5232 230.231 57.1386C230.346 56.2614 230.364 55.3743 230.286 54.4931C231.782 54.35 233.208 53.7901 234.402 52.877C234.519 53.3834 235.181 55.6079 234.955 56.0771C234.529 56.9643 232.633 58.3703 229.967 58.2667Z" fill="#0C0C0C"/>
<path d="M231.644 57.2168C234.539 57.0096 238.032 55.2468 238.154 51.3231L238.263 47.7834C238.384 43.8604 236.421 40.6163 232.729 40.5021C229.035 40.387 226.176 43.4826 226.054 47.4056L226.006 48.9728C225.999 49.5113 226.028 50.0498 226.094 50.5843C226.258 51.9979 226.512 54.1473 227.443 55.6149C228.322 57.0004 229.794 57.3488 231.644 57.2168Z" fill="#E98862"/>
<path d="M237.887 52.5123C239.01 52.5469 239.957 51.3741 239.991 50.2518C240.026 49.1294 239.135 48.482 238.013 48.4473L237.411 49.1814L236.922 52.4824L237.887 52.5123Z" fill="#E98862"/>
<path d="M226.244 51.7685C226.447 52.0089 226.707 52.1948 227 52.3093C227.293 52.4237 227.61 52.4631 227.922 52.4237C228.589 52.3397 229.032 52.6136 229.589 52.5586C230.057 52.5126 230.138 52.2964 230.937 52.2492C234.019 52.0666 236.331 51.8723 236.482 48.0048L238.443 46.2627C238.443 46.2627 239.319 56.9801 233.522 58.4047C229.96 59.2795 226.62 58.9598 226.19 55.6144C225.841 52.8961 226.244 51.7685 226.244 51.7685Z" fill="#0C0C0C"/>
<path d="M227.704 49.5304C227.956 49.5304 228.16 49.3266 228.16 49.0753C228.16 48.8239 227.956 48.6201 227.704 48.6201C227.453 48.6201 227.249 48.8239 227.249 49.0753C227.249 49.3266 227.453 49.5304 227.704 49.5304Z" fill="#0C0C0C"/>
<path d="M231.771 49.4455C232.022 49.4455 232.226 49.2417 232.226 48.9903C232.226 48.7389 232.022 48.5352 231.771 48.5352C231.519 48.5352 231.315 48.7389 231.315 48.9903C231.315 49.2417 231.519 49.4455 231.771 49.4455Z" fill="#0C0C0C"/>
<path d="M236.803 50.6881C236.803 50.6881 236.525 45.1291 234.848 44.7555C233.73 44.5066 230.982 46.0477 228.472 45.5214C227.374 45.2912 226.323 45.5444 226.207 46.0634C226.161 46.2687 225.292 44.4474 227.059 42.2313C228.466 40.4669 233.039 39.9705 235.074 40.5944C240.708 42.3225 238.24 48.6967 238.24 48.6967L237.953 50.6061L236.803 50.6881Z" fill="#0C0C0C"/>
<path d="M239.363 46.2054C241.022 46.2054 242.366 44.8611 242.366 43.2028C242.366 41.5445 241.022 40.2002 239.363 40.2002C237.705 40.2002 236.361 41.5445 236.361 43.2028C236.361 44.8611 237.705 46.2054 239.363 46.2054Z" fill="#0C0C0C"/>
<g opacity="0.52">
<path d="M229.644 52.3804H229.637C229.276 52.37 228.67 52.3125 228.677 52.042C228.684 51.8177 229.366 49.4147 229.444 49.1412C229.451 49.1177 229.466 49.0978 229.488 49.0859C229.509 49.074 229.534 49.071 229.558 49.0777C229.581 49.0844 229.601 49.1002 229.613 49.1215C229.625 49.1429 229.628 49.1681 229.621 49.1916C229.318 50.2559 228.866 51.8946 228.861 52.0464C228.895 52.1113 229.268 52.1845 229.642 52.1953C229.667 52.195 229.69 52.2045 229.708 52.2215C229.725 52.2386 229.735 52.2619 229.736 52.2864C229.736 52.3108 229.726 52.3343 229.709 52.3518C229.692 52.3692 229.669 52.3792 229.644 52.3795V52.3804Z" fill="#0C0C0C"/>
</g>
<path d="M228.543 47.5287C228.17 47.4181 227.773 47.4101 227.395 47.5057C227.209 47.5514 227.031 47.6248 226.867 47.7235C226.704 47.8202 226.555 47.9371 226.422 48.0714C226.398 48.0921 226.384 48.1211 226.383 48.1521C226.381 48.1831 226.392 48.2135 226.412 48.2366C226.433 48.2597 226.462 48.2736 226.493 48.2753C226.524 48.277 226.554 48.2664 226.578 48.2457L226.585 48.2397C226.709 48.1276 226.847 48.0316 226.995 47.954C227.141 47.8767 227.298 47.8219 227.46 47.7914C227.78 47.7288 228.111 47.7519 228.42 47.8584L228.431 47.8628C228.453 47.8712 228.476 47.8752 228.5 47.8746C228.523 47.874 228.546 47.8687 228.567 47.8591C228.589 47.8494 228.608 47.8357 228.624 47.8186C228.64 47.8015 228.652 47.7814 228.66 47.7595C228.668 47.7375 228.672 47.7142 228.671 47.6909C228.67 47.6676 228.664 47.6447 228.654 47.6236C228.644 47.6025 228.63 47.5835 228.612 47.5679C228.595 47.5523 228.575 47.5403 228.553 47.5327L228.543 47.5287Z" fill="#0C0C0C"/>
<path d="M231.225 47.8598C231.521 47.7236 231.849 47.6684 232.173 47.6998C232.338 47.7142 232.499 47.7536 232.652 47.8165C232.807 47.8793 232.953 47.9614 233.088 48.0608L233.095 48.0658C233.12 48.0822 233.151 48.0883 233.18 48.0829C233.209 48.0776 233.236 48.0612 233.253 48.037C233.271 48.0129 233.279 47.983 233.275 47.9533C233.271 47.9236 233.256 47.8965 233.233 47.8775C233.088 47.7569 232.927 47.6551 232.756 47.5746C232.583 47.4923 232.399 47.4365 232.209 47.409C231.824 47.3509 231.43 47.3976 231.069 47.5442C231.026 47.5625 230.993 47.5968 230.975 47.6396C230.958 47.6825 230.958 47.7304 230.976 47.7731C230.994 47.8158 231.028 47.8498 231.07 47.8677C231.113 47.8857 231.161 47.8861 231.204 47.869L231.212 47.8653L231.225 47.8598Z" fill="#0C0C0C"/>
<path d="M249.664 75.0437C249.407 76.9874 249.156 79.6574 248.931 82.418C248.054 83.3511 247.117 84.2252 246.125 85.0347C245.494 85.547 244.843 86.034 244.172 86.4957C240.543 88.973 236.398 90.5929 232.051 91.2329C227.704 91.8729 223.268 91.5162 219.079 90.1899C219.022 87.6256 218.944 84.1667 218.866 80.9979C218.778 77.3427 218.688 74.0698 218.64 72.9944C218.442 68.7266 217.31 65.8789 218.166 63.5504C218.421 62.8612 218.833 62.2401 219.367 61.7356C221.36 59.7854 226.309 59.8298 228.295 59.9069C228.329 59.9083 227.716 64.49 234.247 64.4347C239.048 64.3954 239.408 60.3381 239.408 60.3381C239.408 60.3381 241.774 60.5842 243.345 60.857C245.915 61.3071 247.586 62.2497 248.886 63.6573C250.099 64.9698 250.814 66.3631 249.664 75.0437Z" fill="#367CFF"/>
<path d="M211.264 60.3592L211.462 55.4704C211.466 55.3629 211.449 55.2556 211.409 55.1554C211.37 55.0553 211.31 54.9644 211.234 54.8885C211.158 54.8127 211.066 54.7536 210.966 54.7151C210.865 54.6765 210.758 54.6594 210.65 54.6646C210.452 54.6806 210.267 54.7696 210.131 54.9142C209.995 55.0588 209.918 55.2488 209.914 55.4474L209.871 56.4958L208.491 53.1385C208.344 52.7625 207.923 52.3951 207.512 52.5878C207.349 52.6516 207.213 52.7687 207.125 52.9201C207.037 53.0714 207.003 53.2481 207.029 53.4212C207.025 53.4217 207.021 53.4225 207.017 53.4237C207.014 53.4252 207.012 53.4269 207.01 53.4288L206.783 52.8491C206.741 52.7417 206.676 52.6451 206.592 52.5662C206.507 52.4873 206.407 52.4282 206.297 52.3931C206.187 52.3581 206.071 52.348 205.957 52.3636C205.842 52.3792 205.733 52.4201 205.637 52.4833C205.487 52.5858 205.377 52.7368 205.325 52.9108C205.273 53.0849 205.282 53.2715 205.351 53.4394L205.448 53.686C205.442 53.6921 205.437 53.6992 205.434 53.7069C205.33 53.5555 205.176 53.4459 204.999 53.3977C204.822 53.3495 204.633 53.3658 204.467 53.4438C204.287 53.5346 204.149 53.6897 204.079 53.8782C204.009 54.0667 204.012 54.2747 204.089 54.4607L204.328 55.0735C204.319 55.0672 204.308 55.0633 204.297 55.062C204.285 55.0607 204.274 55.0621 204.263 55.0661C204.251 55.0717 204.24 55.0806 204.233 55.0919C204.103 54.9826 203.941 54.919 203.771 54.9109C203.601 54.9028 203.434 54.9506 203.294 55.047C203.149 55.1514 203.044 55.3015 202.995 55.4731C202.947 55.6447 202.957 55.8277 203.025 55.9926L205.046 61.1632C205.329 61.8865 205.821 62.509 206.46 62.9507C207.098 63.3925 207.854 63.6334 208.631 63.6427C209.301 63.6506 209.947 63.3971 210.433 62.9361C210.918 62.4751 211.205 61.8429 211.232 61.1738L211.264 60.3592Z" fill="#E98862"/>
<g opacity="0.2">
<path d="M208.378 56.7525C208.361 56.7593 208.341 56.7589 208.324 56.7515C208.307 56.7441 208.293 56.7302 208.286 56.7129L206.978 53.5181C206.974 53.5093 206.971 53.4998 206.971 53.4901C206.971 53.4803 206.972 53.4707 206.976 53.4616C206.979 53.4526 206.985 53.4443 206.992 53.4374C206.998 53.4305 207.006 53.425 207.015 53.4213C207.024 53.4177 207.034 53.4159 207.044 53.416C207.054 53.4162 207.063 53.4183 207.072 53.4223C207.081 53.4263 207.089 53.4321 207.095 53.4392C207.102 53.4464 207.107 53.4548 207.11 53.464L208.419 56.6588C208.422 56.6675 208.424 56.6768 208.424 56.6862C208.424 56.6956 208.422 56.7049 208.418 56.7136C208.415 56.7222 208.409 56.7301 208.403 56.7367C208.396 56.7433 208.388 56.7485 208.379 56.752L208.378 56.7525Z" fill="#0C0C0C"/>
</g>
<g opacity="0.2">
<path d="M206.985 57.3677C206.968 57.3745 206.948 57.3742 206.931 57.3667C206.914 57.3593 206.9 57.3453 206.893 57.3279L205.433 53.7624C205.426 53.745 205.427 53.7256 205.434 53.7084C205.441 53.6911 205.455 53.6775 205.472 53.6703C205.49 53.6641 205.509 53.6646 205.526 53.6718C205.543 53.679 205.557 53.6924 205.564 53.7092L207.024 57.2747C207.032 57.2923 207.032 57.3119 207.024 57.3294C207.017 57.3469 207.003 57.3608 206.985 57.3679V57.3677Z" fill="#0C0C0C"/>
</g>
<g opacity="0.2">
<path d="M205.48 58.0428C205.463 58.0496 205.443 58.0492 205.426 58.0418C205.409 58.0343 205.395 58.0204 205.388 58.003L204.224 55.159C204.216 55.1415 204.216 55.1218 204.224 55.1044C204.231 55.0869 204.245 55.073 204.263 55.0659C204.28 55.0587 204.3 55.0588 204.317 55.0661C204.335 55.0734 204.349 55.0874 204.356 55.1049L205.521 57.9482C205.528 57.9657 205.528 57.9854 205.521 58.0029C205.513 58.0203 205.5 58.0342 205.482 58.0414L205.48 58.0428Z" fill="#0C0C0C"/>
</g>
<path d="M227.448 68.0232L215.55 86.3159C215.117 86.9808 214.537 87.5376 213.856 87.9436C212.842 87.3844 211.863 86.7632 210.925 86.0836C208.927 84.6417 207.121 82.9503 205.552 81.0504L203.053 61.6739L213.055 60.0713L214.195 69.3981L218.764 62.3733L227.448 68.0232Z" fill="#367CFF"/>
<path d="M228.843 53.3782C229.934 53.4507 231.019 53.1573 231.925 52.5445C231.956 52.5235 231.993 52.5118 232.031 52.5108C232.068 52.5099 232.106 52.5197 232.138 52.5392C232.171 52.5587 232.197 52.587 232.214 52.6209C232.231 52.6547 232.238 52.6927 232.234 52.7303C232.161 53.375 231.843 54.5606 230.49 54.7116C229.617 54.809 228.984 54.1384 228.665 53.6924C228.643 53.6616 228.63 53.6251 228.628 53.5872C228.626 53.5493 228.635 53.5117 228.654 53.4787C228.672 53.4457 228.7 53.4187 228.734 53.4009C228.767 53.3831 228.805 53.3752 228.843 53.3782Z" fill="#1B6AEA"/>
<path d="M252.891 77.0993C251.132 80.1306 248.84 82.819 246.125 85.0344C245.494 85.5467 244.843 86.0337 244.172 86.4954L239.525 68.8163L249.99 66.0635L252.891 77.0993Z" fill="#367CFF"/>
<path d="M244.274 86.4269C244.241 86.4486 244.205 86.473 244.172 86.496C244.139 86.519 244.106 86.542 244.073 86.5635L240.531 73.0954L240.754 73.0371L244.274 86.4269Z" fill="#0C0C0C"/>
<path d="M218.895 81.8302C218.866 81.829 218.839 81.817 218.818 81.7967C218.798 81.7764 218.786 81.7491 218.784 81.7203L218.556 76.7015C218.555 76.6709 218.565 76.6411 218.586 76.6185C218.607 76.596 218.635 76.5825 218.666 76.5812C218.696 76.5798 218.726 76.5906 218.749 76.6112C218.771 76.6318 218.785 76.6606 218.786 76.6911L219.014 81.71C219.016 81.7404 219.005 81.7702 218.984 81.7927C218.964 81.8153 218.935 81.8287 218.905 81.8302H218.895Z" fill="#0C0C0C"/>
<path d="M132.821 128.273C149.11 128.273 162.316 115.068 162.316 98.7783C162.316 82.4886 149.11 69.2832 132.821 69.2832C116.531 69.2832 103.325 82.4886 103.325 98.7783C103.325 115.068 116.531 128.273 132.821 128.273Z" fill="#1B6AEA"/>
<path opacity="0.09" d="M162.316 98.7771C162.316 104.611 160.586 110.313 157.345 115.163C154.104 120.014 149.498 123.794 144.108 126.027C138.719 128.259 132.789 128.843 127.067 127.705C121.346 126.567 116.09 123.758 111.965 119.633C107.841 115.508 105.031 110.253 103.893 104.531C102.755 98.8098 103.339 92.8794 105.572 87.49C107.804 82.1005 111.585 77.4941 116.435 74.2532C121.285 71.0123 126.988 69.2824 132.821 69.2824C136.699 69.2681 140.54 70.0212 144.125 71.4984C147.71 72.9755 150.967 75.1476 153.709 77.8893C156.451 80.6309 158.623 83.8881 160.1 87.473C161.577 91.058 162.33 94.8998 162.316 98.7771Z" fill="#367CFF"/>
<path d="M119.765 81.3807C119.765 81.3807 119.469 85.8333 118.467 87.4487C115.583 92.0993 114.747 97.3311 117.635 100.065C120.523 102.799 138.944 102.836 140.339 96.5495C141.513 91.2566 138.993 90.6875 138.379 86.3213C138.102 84.3458 137.338 80.2031 137.338 80.2031" fill="#0A0A0A"/>
<path d="M135.571 95.6268C135.539 95.6227 135.187 101.477 128.385 100.968C123.676 100.615 121.998 95.6194 121.89 95.6194C122.397 95.5117 123.252 95.3547 123.478 95.2345C124.22 94.836 125.137 94.4216 125.376 92.9815C125.514 92.1527 125.28 87.906 125.353 87.0664L132.581 88.6796C132.48 90.4523 131.773 94.5641 134.25 95.2916C134.661 95.4111 135.105 95.5218 135.571 95.6268Z" fill="#E98862"/>
<path opacity="0.5" d="M132.68 93.6096C132.567 93.2447 132.494 92.8685 132.463 92.4877C132.384 91.6189 132.399 90.744 132.51 89.8786C131.041 89.6805 129.657 89.0743 128.516 88.1289C128.381 88.6246 127.643 90.7903 127.848 91.2616C128.235 92.1514 130.049 93.6096 132.68 93.6096Z" fill="#0C0C0C"/>
<path d="M131.746 91.7862C128.896 92.0625 125.209 90.922 124.446 87.1272L123.756 83.7031C122.993 79.9083 124.367 76.4308 127.939 75.7118C131.512 74.9926 134.802 77.5306 135.566 81.3263L135.871 82.842C136.164 84.2982 136.83 91.2943 131.746 91.7862Z" fill="#E98862"/>
<path opacity="0.1" d="M129.934 86.8145C130.403 86.7586 130.75 86.4343 130.709 86.0903C130.668 85.7462 130.254 85.5127 129.786 85.5686C129.317 85.6246 128.97 85.9488 129.011 86.2929C129.052 86.6369 129.465 86.8705 129.934 86.8145Z" fill="#0C0C0C"/>
<path opacity="0.1" d="M134.889 85.439C134.932 85.7823 135.345 86.0146 135.814 85.9603C135.895 85.9506 135.975 85.9325 136.052 85.9064C136.074 85.4968 136.075 85.1027 136.063 84.738C135.933 84.7055 135.798 84.6977 135.665 84.715C135.196 84.77 134.849 85.0942 134.889 85.439Z" fill="#0C0C0C"/>
<path opacity="0.5" d="M132.818 86.4991H132.825C132.969 86.4686 133.112 86.4302 133.253 86.384C133.463 86.3149 133.736 86.1986 133.699 86.0089C133.655 85.7925 132.594 83.5789 132.473 83.3271C132.461 83.3064 132.442 83.2909 132.42 83.2837C132.398 83.2765 132.373 83.2782 132.352 83.2884C132.331 83.2986 132.314 83.3165 132.306 83.3386C132.297 83.3606 132.298 83.385 132.307 83.4067C132.76 84.3506 133.489 85.8996 133.519 86.0451C133.495 86.113 133.148 86.2456 132.788 86.3181C132.765 86.3234 132.745 86.3371 132.732 86.3565C132.719 86.3759 132.714 86.3996 132.718 86.4226C132.722 86.4457 132.734 86.4665 132.753 86.4808C132.771 86.4951 132.794 86.5018 132.818 86.4995V86.4991Z" fill="#0C0C0C"/>
<path d="M120.905 84.9323L124.109 84.3065C126.528 83.2935 127.215 79.0777 127.215 79.0777C127.215 79.0777 130.201 81.9216 137.338 80.2019C137.338 80.2019 135.788 70.2387 125.249 73.2629C121.851 74.2379 119.444 77.7016 119.802 82.2891C120.053 85.5046 120.905 84.9323 120.905 84.9323Z" fill="#0A0A0A"/>
<path d="M124.9 88.2379C123.814 88.4564 122.7 87.4719 122.483 86.386C122.265 85.3 123.024 84.5241 124.11 84.3057L124.815 84.9206L125.834 88.05L124.9 88.2379Z" fill="#E98862"/>
<path d="M133.243 81.562C133.514 81.3696 133.832 81.2528 134.164 81.2235C134.33 81.2077 134.498 81.2169 134.662 81.2509C134.827 81.2845 134.987 81.3387 135.139 81.4121L135.143 81.4142C135.16 81.4209 135.179 81.421 135.196 81.4144C135.212 81.4079 135.226 81.3951 135.234 81.3788C135.241 81.3625 135.242 81.3439 135.237 81.3268C135.231 81.3097 135.219 81.2954 135.203 81.2868C135.043 81.202 134.872 81.1378 134.695 81.0958C134.517 81.0524 134.334 81.0361 134.151 81.0474C133.781 81.0679 133.423 81.1872 133.115 81.3927C133.103 81.4003 133.093 81.4103 133.085 81.4219C133.077 81.4336 133.071 81.4468 133.068 81.4606C133.065 81.4745 133.065 81.4888 133.068 81.5027C133.071 81.5166 133.077 81.5298 133.085 81.5415C133.093 81.5532 133.103 81.5631 133.115 81.5708C133.127 81.5785 133.14 81.5837 133.154 81.5861C133.168 81.5885 133.182 81.588 133.196 81.5848C133.21 81.5816 133.223 81.5756 133.234 81.5673L133.236 81.5656L133.243 81.562Z" fill="#0C0C0C"/>
<path d="M130.316 81.9665C129.953 81.8942 129.576 81.9209 129.226 82.0437C129.053 82.1033 128.89 82.1886 128.743 82.2969C128.596 82.4035 128.463 82.5282 128.347 82.668C128.335 82.6819 128.329 82.6999 128.33 82.7181C128.331 82.7363 128.339 82.7533 128.353 82.7656C128.366 82.7779 128.384 82.7845 128.402 82.784C128.42 82.7835 128.438 82.7759 128.451 82.7629L128.454 82.759C128.566 82.6329 128.693 82.5214 128.833 82.4272C128.971 82.3329 129.123 82.26 129.283 82.211C129.6 82.1115 129.938 82.0977 130.263 82.1712L130.271 82.173C130.285 82.1766 130.299 82.1775 130.313 82.1756C130.327 82.1736 130.34 82.1689 130.352 82.1617C130.364 82.1545 130.375 82.145 130.383 82.1336C130.391 82.1223 130.397 82.1094 130.401 82.0958C130.404 82.0821 130.405 82.0679 130.402 82.054C130.4 82.0401 130.395 82.0268 130.388 82.0149C130.38 82.003 130.37 81.9926 130.359 81.9845C130.347 81.9764 130.334 81.9707 130.321 81.9677L130.316 81.9665Z" fill="#0C0C0C"/>
<path d="M124.111 84.2542C126.264 83.4528 126.979 81.9658 127.199 80.8591C127.341 80.1211 127.328 79.3615 127.16 78.6289L127.093 78.6473C127.259 79.3703 127.271 80.12 127.13 80.8483C126.913 81.9365 126.21 83.3998 124.087 84.1895L124.111 84.2542Z" fill="#0C0C0C"/>
<path d="M151.335 94.4611L152.624 90.0869C152.652 89.9908 152.7 89.9016 152.765 89.8251C152.83 89.7486 152.91 89.6864 153 89.6424C153.09 89.5985 153.188 89.5737 153.288 89.5698C153.388 89.5658 153.488 89.5828 153.581 89.6195C153.751 89.6927 153.888 89.8264 153.965 89.9947C154.042 90.163 154.053 90.3539 153.998 90.5303L153.721 91.4682L155.944 88.9178C156.186 88.6298 156.667 88.4313 156.972 88.7244C157.097 88.8294 157.182 88.9736 157.215 89.1335C157.247 89.2933 157.224 89.4594 157.15 89.6046C157.153 89.6061 157.156 89.6081 157.159 89.6103C157.161 89.6123 157.162 89.6146 157.164 89.617L157.537 89.1729C157.606 89.0907 157.693 89.025 157.791 88.9806C157.889 88.9362 157.995 88.9141 158.103 88.9161C158.21 88.918 158.316 88.9439 158.412 88.9918C158.508 89.0398 158.592 89.1085 158.658 89.1931C158.76 89.3285 158.812 89.4946 158.806 89.6637C158.8 89.8328 158.735 89.9946 158.624 90.1221L158.465 90.3111C158.469 90.3183 158.471 90.3261 158.471 90.3341C158.608 90.2315 158.777 90.1809 158.948 90.1914C159.119 90.2019 159.281 90.2728 159.404 90.3915C159.535 90.5252 159.611 90.7036 159.617 90.8909C159.622 91.0782 159.557 91.2607 159.434 91.4019L159.039 91.8711C159.049 91.8683 159.06 91.8681 159.07 91.8703C159.081 91.8726 159.09 91.8773 159.098 91.884C159.108 91.8926 159.114 91.9037 159.118 91.916C159.265 91.8585 159.427 91.8512 159.58 91.8951C159.732 91.939 159.865 92.0317 159.959 92.1589C160.056 92.2943 160.104 92.4582 160.095 92.6242C160.087 92.7902 160.023 92.9486 159.913 93.0736L156.583 97.0334C156.118 97.5872 155.497 97.9893 154.801 98.1881C154.105 98.3868 153.366 98.3733 152.678 98.1491C152.084 97.9558 151.59 97.5389 151.299 96.9867C151.008 96.4346 150.944 95.7909 151.121 95.1923L151.335 94.4611Z" fill="#E98862"/>
<g opacity="0.2">
<path d="M154.961 92.1407C154.974 92.1515 154.991 92.1567 155.008 92.1553C155.026 92.1539 155.042 92.146 155.053 92.1331L157.163 89.7049C157.175 89.6916 157.181 89.6742 157.179 89.6566C157.178 89.639 157.17 89.6226 157.157 89.611C157.143 89.5994 157.126 89.5936 157.108 89.5949C157.091 89.5961 157.074 89.6043 157.063 89.6177L154.952 92.0456C154.947 92.0522 154.942 92.0599 154.939 92.0682C154.937 92.0765 154.936 92.0853 154.936 92.094C154.937 92.1027 154.939 92.1112 154.943 92.119C154.947 92.1269 154.952 92.1338 154.959 92.1396L154.961 92.1407Z" fill="#0C0C0C"/>
</g>
<g opacity="0.2">
<path d="M156.006 93.101C156.02 93.1119 156.037 93.1172 156.054 93.1158C156.071 93.1144 156.087 93.1064 156.098 93.0934L158.453 90.3837C158.459 90.3771 158.464 90.3694 158.466 90.3611C158.469 90.3528 158.47 90.3441 158.47 90.3353C158.469 90.3266 158.467 90.3181 158.463 90.3103C158.459 90.3024 158.453 90.2955 158.447 90.2897C158.433 90.2788 158.416 90.2733 158.398 90.2746C158.381 90.2758 158.365 90.2836 158.353 90.2964L155.999 93.0062C155.994 93.0128 155.989 93.0204 155.987 93.0287C155.984 93.037 155.983 93.0458 155.983 93.0545C155.984 93.0632 155.986 93.0717 155.99 93.0796C155.994 93.0874 156 93.0944 156.006 93.1001L156.006 93.101Z" fill="#0C0C0C"/>
</g>
<g opacity="0.2">
<path d="M157.132 94.1468C157.146 94.1577 157.163 94.163 157.18 94.1616C157.197 94.1601 157.213 94.1521 157.225 94.1392L159.103 91.9778C159.114 91.9644 159.119 91.9474 159.117 91.9304C159.115 91.9134 159.107 91.8977 159.094 91.8865C159.081 91.8753 159.065 91.8695 159.048 91.8702C159.031 91.8709 159.014 91.8781 159.003 91.8903L157.124 94.0519C157.118 94.0585 157.114 94.0662 157.111 94.0745C157.108 94.0828 157.107 94.0915 157.108 94.1003C157.108 94.109 157.111 94.1175 157.115 94.1253C157.119 94.1332 157.124 94.1401 157.131 94.1458L157.132 94.1468Z" fill="#0C0C0C"/>
</g>
<path d="M159.181 96.3704L154.197 118.983C154.185 119.034 154.174 119.087 154.16 119.137C153.04 120.309 151.828 121.387 150.534 122.362C150.274 122.556 150.014 122.747 149.746 122.931C149.581 122.95 149.415 122.959 149.249 122.959C148.361 122.959 147.488 122.725 146.719 122.281C145.949 121.837 145.31 121.198 144.866 120.429L135.367 103.992L144.138 98.9252L147.11 104.068L149.288 94.1895L159.181 96.3704Z" fill="#0CBC8B"/>
<path d="M143.841 106.681C143.811 107.04 143.751 107.68 143.669 108.522C143.254 112.83 142.285 122.43 141.836 126.867C136.164 128.68 130.078 128.741 124.371 127.044H124.369C120.154 125.782 116.276 123.592 113.019 120.634C113.037 116.668 112.98 112.206 112.713 109.337C111.914 100.766 112.669 99.4239 113.91 98.183C114.011 98.0817 114.117 97.9828 114.223 97.8861C115.505 96.7211 117.115 95.9614 119.46 95.6434C121.012 95.4342 123.347 95.2822 123.347 95.2822C123.347 95.2822 123.545 99.2833 128.257 99.5043C134.674 99.8061 134.245 95.2822 134.278 95.2822C135.892 95.2822 139.483 95.3835 141.748 96.5369C141.751 96.5369 141.751 96.5369 141.753 96.5392C142.209 96.7613 142.624 97.0595 142.98 97.421C145.575 100.17 144.295 101.345 143.841 106.681Z" fill="#0CBC8B"/>
<path d="M133.772 87.2483C132.846 87.719 131.79 87.8679 130.77 87.6714C130.735 87.6648 130.698 87.6683 130.665 87.6816C130.632 87.6948 130.603 87.7174 130.582 87.7465C130.56 87.7756 130.548 87.8101 130.546 87.846C130.544 87.8819 130.552 87.9177 130.569 87.9491C130.874 88.4848 131.595 89.4009 132.832 89.0277C133.631 88.7866 133.933 87.9647 134.045 87.4562C134.053 87.421 134.05 87.3843 134.038 87.3505C134.025 87.3167 134.003 87.2871 133.975 87.2653C133.946 87.2434 133.912 87.2302 133.876 87.2272C133.84 87.2242 133.804 87.2315 133.772 87.2483Z" fill="#1B6AEA"/>
<path d="M133.83 83.131C134.077 83.131 134.278 82.9307 134.278 82.6837C134.278 82.4366 134.077 82.2363 133.83 82.2363C133.583 82.2363 133.383 82.4366 133.383 82.6837C133.383 82.9307 133.583 83.131 133.83 83.131Z" fill="#0C0C0C"/>
<path d="M129.531 83.8829C129.778 83.8829 129.979 83.6827 129.979 83.4356C129.979 83.1886 129.778 82.9883 129.531 82.9883C129.284 82.9883 129.084 83.1886 129.084 83.4356C129.084 83.6827 129.284 83.8829 129.531 83.8829Z" fill="#0C0C0C"/>
<path d="M142.852 116.337C142.849 116.337 142.846 116.337 142.843 116.337C142.825 116.334 142.809 116.325 142.797 116.31C142.786 116.296 142.782 116.277 142.784 116.259L143.575 108.291C143.576 108.282 143.579 108.273 143.583 108.265C143.588 108.258 143.594 108.251 143.601 108.245C143.609 108.24 143.617 108.236 143.626 108.233C143.635 108.231 143.644 108.231 143.653 108.232C143.671 108.235 143.687 108.244 143.699 108.259C143.71 108.274 143.714 108.292 143.712 108.31L142.921 116.278C142.919 116.294 142.91 116.31 142.898 116.32C142.885 116.331 142.869 116.337 142.852 116.337Z" fill="#0C0C0C"/>
<path d="M138.065 115.953L142.388 114.023C142.482 113.98 142.585 113.958 142.689 113.958C142.793 113.958 142.896 113.979 142.991 114.02C143.086 114.062 143.172 114.123 143.242 114.199C143.313 114.275 143.367 114.365 143.401 114.463C143.457 114.647 143.444 114.845 143.363 115.019C143.282 115.193 143.14 115.331 142.963 115.406L142.036 115.821L145.549 115.857C145.94 115.854 146.42 116.1 146.394 116.539C146.395 116.708 146.339 116.873 146.235 117.006C146.13 117.139 145.984 117.233 145.819 117.272C145.82 117.276 145.82 117.28 145.82 117.283C145.82 117.286 145.82 117.289 145.819 117.292L146.421 117.288C146.533 117.287 146.643 117.311 146.744 117.358C146.845 117.405 146.934 117.475 147.005 117.561C147.075 117.647 147.126 117.747 147.153 117.855C147.18 117.964 147.183 118.076 147.161 118.186C147.122 118.357 147.026 118.51 146.888 118.619C146.75 118.728 146.579 118.786 146.404 118.784L146.148 118.786C146.144 118.793 146.14 118.8 146.134 118.806C146.307 118.845 146.461 118.944 146.568 119.086C146.675 119.228 146.728 119.404 146.717 119.581C146.7 119.775 146.61 119.955 146.466 120.086C146.322 120.216 146.134 120.288 145.939 120.286L145.303 120.29C145.312 120.296 145.319 120.305 145.324 120.314C145.329 120.324 145.332 120.335 145.332 120.346C145.332 120.359 145.328 120.372 145.32 120.382C145.465 120.46 145.581 120.583 145.649 120.733C145.717 120.883 145.734 121.051 145.697 121.211C145.655 121.379 145.558 121.527 145.421 121.632C145.285 121.738 145.117 121.794 144.944 121.792L139.573 121.83C138.822 121.836 138.086 121.616 137.46 121.201C136.834 120.785 136.346 120.192 136.059 119.498C135.812 118.899 135.808 118.227 136.048 117.625C136.288 117.023 136.753 116.539 137.345 116.274L138.065 115.953Z" fill="#E98862"/>
<g opacity="0.2">
<path d="M142.342 117.253C142.342 117.271 142.35 117.289 142.363 117.302C142.375 117.314 142.393 117.322 142.411 117.322L145.751 117.352C145.77 117.352 145.787 117.345 145.8 117.332C145.814 117.319 145.821 117.302 145.821 117.283C145.821 117.265 145.814 117.247 145.801 117.234C145.788 117.221 145.771 117.214 145.753 117.214L142.412 117.184C142.394 117.184 142.376 117.191 142.363 117.204C142.35 117.217 142.343 117.234 142.343 117.253H142.342Z" fill="#0C0C0C"/>
</g>
<g opacity="0.2">
<path d="M142.289 118.725C142.289 118.744 142.296 118.761 142.309 118.774C142.322 118.787 142.339 118.794 142.358 118.794L146.085 118.828C146.103 118.828 146.121 118.821 146.134 118.808C146.147 118.795 146.154 118.777 146.154 118.759C146.153 118.741 146.146 118.723 146.133 118.711C146.12 118.698 146.103 118.69 146.085 118.69L142.357 118.656C142.339 118.656 142.322 118.664 142.309 118.676C142.296 118.689 142.289 118.707 142.289 118.725Z" fill="#0C0C0C"/>
</g>
<g opacity="0.2">
<path d="M142.221 120.319C142.221 120.337 142.228 120.355 142.241 120.368C142.254 120.381 142.271 120.388 142.29 120.388L145.263 120.415C145.281 120.415 145.299 120.408 145.312 120.395C145.325 120.382 145.332 120.364 145.332 120.346C145.332 120.327 145.325 120.31 145.312 120.297C145.299 120.284 145.281 120.277 145.263 120.277L142.29 120.25C142.271 120.25 142.254 120.257 142.241 120.27C142.228 120.283 142.221 120.301 142.221 120.319V120.319Z" fill="#0C0C0C"/>
</g>
<path d="M139.304 123.65L124.371 127.044H124.369C120.154 125.782 116.276 123.592 113.019 120.634C112.669 120.317 112.327 119.991 111.992 119.658C111.409 119.076 110.851 118.47 110.318 117.842L112.409 101.026C112.637 99.6705 113.394 98.4611 114.514 97.6639C115.634 96.8667 117.024 96.5469 118.38 96.775C119.735 97.003 120.945 97.7602 121.742 98.88C122.539 99.9997 122.859 101.39 122.631 102.746L121.309 118.535L137.959 114.766L139.304 123.65Z" fill="#0CBC8B"/>
<path d="M117.941 119.154C117.932 119.155 117.923 119.154 117.914 119.151C117.906 119.148 117.898 119.144 117.891 119.138C117.884 119.132 117.878 119.125 117.874 119.117C117.87 119.108 117.868 119.1 117.867 119.09C117.866 119.081 117.867 119.072 117.87 119.064C117.873 119.055 117.878 119.047 117.883 119.04C117.889 119.033 117.897 119.028 117.905 119.023C117.913 119.019 117.922 119.017 117.931 119.016L121.269 118.303C121.278 118.301 121.287 118.302 121.296 118.304C121.305 118.306 121.313 118.31 121.32 118.315C121.328 118.321 121.334 118.327 121.339 118.335C121.343 118.343 121.346 118.352 121.348 118.361C121.349 118.37 121.349 118.379 121.346 118.388C121.344 118.396 121.34 118.405 121.335 118.412C121.33 118.419 121.323 118.425 121.315 118.43C121.307 118.435 121.298 118.438 121.29 118.439L117.95 119.153C117.947 119.154 117.944 119.154 117.941 119.154Z" fill="#0C0C0C"/>
<path d="M139.303 123.65C139.307 123.667 139.304 123.686 139.295 123.701C139.285 123.717 139.27 123.728 139.253 123.732L124.746 127.151C124.654 127.126 124.564 127.101 124.475 127.073L139.151 123.617L137.844 114.869L121.293 118.439C121.282 118.441 121.271 118.44 121.261 118.437C121.251 118.434 121.241 118.429 121.233 118.421C121.226 118.413 121.221 118.403 121.218 118.393C121.215 118.383 121.214 118.372 121.215 118.361L122.143 109.339C122.144 109.33 122.148 109.321 122.152 109.314C122.157 109.306 122.164 109.3 122.171 109.294C122.179 109.289 122.187 109.286 122.196 109.284C122.205 109.282 122.214 109.282 122.223 109.283C122.241 109.286 122.257 109.296 122.268 109.311C122.279 109.325 122.283 109.344 122.281 109.362L121.367 118.292L137.874 114.715C137.883 114.712 137.892 114.712 137.901 114.713C137.91 114.715 137.919 114.718 137.927 114.724C137.935 114.728 137.942 114.734 137.947 114.741C137.953 114.748 137.957 114.756 137.959 114.765L139.303 123.65Z" fill="#0C0C0C"/>
<path d="M27.0453 162.257C41.982 162.257 54.0906 150.148 54.0906 135.211C54.0906 120.275 41.982 108.166 27.0453 108.166C12.1086 108.166 0 120.275 0 135.211C0 150.148 12.1086 162.257 27.0453 162.257Z" fill="#1B6AEA"/>
<path opacity="0.09" d="M27.0453 162.257C41.982 162.257 54.0906 150.148 54.0906 135.211C54.0906 120.275 41.982 108.166 27.0453 108.166C12.1086 108.166 0 120.275 0 135.211C0 150.148 12.1086 162.257 27.0453 162.257Z" fill="#367CFF"/>
<path d="M19.5972 119.872C19.5972 119.872 19.8902 128.017 25.327 128.392L26.2479 117.65L19.5972 119.872Z" fill="#0A0A0A"/>
<path d="M20.6442 130.056C22.423 130.056 23.865 128.614 23.865 126.835C23.865 125.056 22.423 123.614 20.6442 123.614C18.8654 123.614 17.4233 125.056 17.4233 126.835C17.4233 128.614 18.8654 130.056 20.6442 130.056Z" fill="#0A0A0A"/>
<path d="M33.2463 132.172C33.2176 132.168 32.8994 137.45 26.7635 136.99C22.5156 136.672 21.0012 132.165 20.9041 132.165C21.3895 132.085 21.8683 131.968 22.3367 131.818C23.0055 131.458 23.8332 131.085 24.0487 129.786C24.173 129.037 23.9623 125.207 24.027 124.449L30.5474 125.905C30.4553 127.504 29.8185 131.213 32.0536 131.87C32.4251 131.978 32.8257 132.078 33.2463 132.172Z" fill="#E98862"/>
<path opacity="0.5" d="M30.6389 130.354C30.5367 130.024 30.4709 129.684 30.4427 129.341C30.3711 128.557 30.3854 127.768 30.4853 126.987C29.1601 126.808 27.9116 126.261 26.8816 125.408C26.7605 125.855 26.0947 127.809 26.2791 128.234C26.6277 129.039 28.2653 130.354 30.6389 130.354Z" fill="#0C0C0C"/>
<path d="M29.6174 128.931C27.035 128.964 23.8065 127.661 23.4064 124.192L23.0454 121.061C22.6451 117.592 24.1427 114.568 27.4091 114.192C30.6753 113.816 33.4409 116.346 33.8413 119.815L34.0011 121.201C34.1546 122.533 34.2251 128.872 29.6174 128.931Z" fill="#E98862"/>
<path d="M33.0646 121.108C33.2883 121.108 33.4696 120.926 33.4696 120.703C33.4696 120.479 33.2883 120.298 33.0646 120.298C32.841 120.298 32.6597 120.479 32.6597 120.703C32.6597 120.926 32.841 121.108 33.0646 121.108Z" fill="#0C0C0C"/>
<path d="M28.9255 121.58C29.1491 121.58 29.3304 121.399 29.3304 121.175C29.3304 120.952 29.1491 120.771 28.9255 120.771C28.7018 120.771 28.5205 120.952 28.5205 121.175C28.5205 121.399 28.7018 121.58 28.9255 121.58Z" fill="#0C0C0C"/>
<path opacity="0.5" d="M30.9799 124.26H30.9863C31.1186 124.243 31.25 124.22 31.3798 124.189C31.5736 124.142 31.8292 124.059 31.8091 123.886C31.7861 123.688 30.999 121.618 30.9092 121.382C30.9053 121.372 30.8994 121.363 30.892 121.355C30.8845 121.347 30.8755 121.341 30.8656 121.336C30.8556 121.332 30.8449 121.329 30.834 121.329C30.8231 121.329 30.8123 121.331 30.8021 121.335C30.792 121.338 30.7826 121.344 30.7747 121.352C30.7668 121.359 30.7605 121.368 30.756 121.378C30.7516 121.388 30.7491 121.399 30.7488 121.41C30.7485 121.421 30.7504 121.431 30.7542 121.442C31.0901 122.323 31.6291 123.772 31.6443 123.905C31.4371 124.022 31.2049 124.087 30.9672 124.095C30.9453 124.097 30.9249 124.107 30.9106 124.124C30.8963 124.141 30.8892 124.162 30.8909 124.184C30.8926 124.206 30.9029 124.226 30.9196 124.241C30.9362 124.255 30.9579 124.262 30.9799 124.26V124.26Z" fill="#0C0C0C"/>
<path opacity="0.5" d="M30.3959 125.703C30.9264 125.673 31.4424 125.519 31.9022 125.252C31.9203 125.241 31.9334 125.223 31.9388 125.203C31.9442 125.182 31.9414 125.16 31.9311 125.142C31.9208 125.123 31.9037 125.109 31.8834 125.102C31.8631 125.096 31.841 125.098 31.8219 125.107C30.8287 125.657 29.8788 125.688 29.0753 125.199C29.0591 125.189 29.0423 125.179 29.0251 125.171C29.0052 125.163 28.9831 125.163 28.9633 125.171C28.9436 125.179 28.9277 125.195 28.919 125.214C28.9104 125.234 28.9095 125.256 28.9167 125.276C28.9239 125.296 28.9386 125.313 28.9577 125.322C28.9639 125.326 28.9745 125.332 28.989 125.341C29.4114 125.599 29.9013 125.725 30.3959 125.703Z" fill="#0C0C0C"/>
<path d="M20.3896 121.95L23.3165 121.629C25.5678 120.902 26.5032 117.163 26.5032 117.163C26.5032 117.163 28.5207 119.457 34.4991 118.41C34.4991 118.41 34.2675 110.702 25.1751 111.787C22.0093 112.166 19.6221 115.34 19.5974 119.492C19.5804 122.4 20.3896 121.95 20.3896 121.95Z" fill="#0A0A0A"/>
<path d="M23.731 125.225C22.7383 125.34 21.8111 124.371 21.6967 123.378C21.5823 122.385 22.3236 121.745 23.3163 121.631L23.9046 122.237L24.5844 125.127L23.731 125.225Z" fill="#E98862"/>
<path d="M31.6327 119.692C31.9255 119.53 32.2564 119.449 32.5909 119.459C32.7561 119.462 32.9198 119.491 33.0765 119.543C33.2321 119.594 33.3807 119.665 33.5187 119.753C33.5325 119.762 33.5424 119.776 33.5463 119.792C33.5502 119.808 33.5479 119.825 33.5397 119.839C33.5316 119.853 33.5182 119.863 33.5025 119.868C33.4868 119.873 33.4699 119.871 33.4554 119.863L33.4513 119.861C33.3205 119.784 33.1805 119.723 33.0346 119.68C32.89 119.637 32.7397 119.616 32.5888 119.618C32.2886 119.619 31.9942 119.7 31.7354 119.852L31.7292 119.856C31.7185 119.863 31.7065 119.868 31.6939 119.87C31.6813 119.873 31.6684 119.872 31.6559 119.869C31.6434 119.867 31.6316 119.861 31.6212 119.854C31.6109 119.846 31.6021 119.837 31.5954 119.826C31.5888 119.815 31.5844 119.803 31.5825 119.79C31.5807 119.778 31.5814 119.765 31.5847 119.752C31.5879 119.74 31.5936 119.728 31.6014 119.718C31.6093 119.708 31.619 119.7 31.6302 119.693L31.6327 119.692Z" fill="#0C0C0C"/>
<path d="M29.0094 120.175C28.7232 120.084 28.4181 120.071 28.1251 120.137C27.9776 120.169 27.8358 120.224 27.7045 120.298C27.5719 120.373 27.449 120.463 27.3389 120.568L27.3355 120.571C27.323 120.58 27.3075 120.585 27.2919 120.583C27.2764 120.582 27.262 120.575 27.2513 120.564C27.2407 120.552 27.2346 120.537 27.2342 120.522C27.2338 120.506 27.2391 120.491 27.2491 120.479C27.3639 120.362 27.4929 120.26 27.6332 120.175C27.7743 120.089 27.9274 120.025 28.0876 119.985C28.4116 119.901 28.7521 119.905 29.0737 119.998C29.0861 120.001 29.0978 120.007 29.1079 120.014C29.1181 120.022 29.1267 120.032 29.133 120.043C29.1393 120.054 29.1433 120.067 29.1448 120.079C29.1462 120.092 29.1451 120.105 29.1414 120.117C29.1377 120.13 29.1316 120.141 29.1235 120.151C29.1153 120.161 29.1052 120.169 29.0938 120.175C29.0824 120.181 29.0699 120.184 29.0571 120.185C29.0443 120.186 29.0315 120.184 29.0193 120.18H29.0168L29.0094 120.175Z" fill="#0C0C0C"/>
<path opacity="0.52" d="M30.4513 126.487C30.5473 126.483 30.6428 126.471 30.7368 126.451C30.7577 126.446 30.7758 126.433 30.7872 126.415C30.7987 126.397 30.8026 126.375 30.7981 126.353C30.7937 126.332 30.7812 126.314 30.7634 126.302C30.7455 126.29 30.7237 126.285 30.7025 126.289C30.5558 126.332 30.4016 126.343 30.2502 126.321C30.0989 126.3 29.9539 126.246 29.8249 126.164C29.8079 126.15 29.786 126.144 29.7641 126.146C29.7422 126.148 29.7221 126.159 29.7082 126.176C29.6943 126.193 29.6877 126.215 29.6899 126.237C29.6921 126.259 29.7029 126.279 29.7199 126.293C29.9339 126.44 30.1923 126.509 30.4513 126.487Z" fill="#0C0C0C"/>
<path opacity="0.1" d="M28.3648 124.323C28.7906 124.308 29.1269 124.043 29.116 123.73C29.1051 123.418 28.751 123.177 28.3252 123.192C27.8994 123.207 27.5631 123.472 27.574 123.784C27.5849 124.097 27.939 124.338 28.3648 124.323Z" fill="#0C0C0C"/>
<path opacity="0.1" d="M32.9218 123.462C32.9338 123.774 33.2877 124.014 33.7136 124C33.7872 123.998 33.8603 123.987 33.9318 123.97C33.9822 123.603 34.0131 123.249 34.0299 122.92C33.9153 122.881 33.7943 122.864 33.6733 122.869C33.2483 122.883 32.9122 123.148 32.9218 123.462Z" fill="#0C0C0C"/>
<path d="M42.4105 137.735C42.3921 139.579 41.759 141.778 41.5334 144.435C41.4735 145.144 39.9515 147.195 39.7305 149.477C39.4519 152.382 40.0714 156.913 40.1543 158.872C35.8763 161.239 31.0371 162.404 26.1505 162.241C21.2639 162.079 16.5125 160.597 12.4008 157.951C12.2903 152.918 12.1591 146.705 11.991 145.215C11.4454 140.298 11.5928 137.187 12.3801 135.732C13.6671 133.356 15.9578 132.631 18.3544 132.304C19.8187 132.106 22.0173 131.966 22.0173 131.966C22.0173 131.966 22.2038 135.735 26.6471 135.944C32.6951 136.23 32.2922 131.966 32.3221 131.966C34.5161 131.966 38.674 132.491 40.2671 133.577C41.957 134.726 42.4312 136.089 42.4105 137.735Z" fill="#FFC239"/>
<path d="M21.5157 140.603L13.3105 158.509C10.1601 156.649 7.41907 154.17 5.25269 151.222L12.0972 136.285L21.5157 140.603Z" fill="#FFC239"/>
<path d="M49.0388 150.952C47.4314 153.195 45.4913 155.179 43.2855 156.837C42.5595 157.385 41.8057 157.895 41.0271 158.366L32.6055 139.851L42.0354 135.56L49.0388 150.952Z" fill="#FFC239"/>
<path d="M83.3308 56.3169C98.8823 56.3169 111.489 43.7099 111.489 28.1584C111.489 12.607 98.8823 0 83.3308 0C67.7793 0 55.1724 12.607 55.1724 28.1584C55.1724 43.7099 67.7793 56.3169 83.3308 56.3169Z" fill="#1B6AEA"/>
<path opacity="0.09" d="M83.3308 56.3169C98.8823 56.3169 111.489 43.7099 111.489 28.1584C111.489 12.607 98.8823 0 83.3308 0C67.7793 0 55.1724 12.607 55.1724 28.1584C55.1724 43.7099 67.7793 56.3169 83.3308 56.3169Z" fill="#367CFF"/>
<path d="M88.7755 11.2964C88.7755 11.2964 90.5586 9.36392 90.4207 5.6831C90.3141 2.83316 88.0772 5.09695 88.0772 5.09695C88.0772 5.09695 87.9803 3.04566 86.5577 3.50841C85.1352 3.97116 84.6978 6.22367 84.6978 6.22367" fill="#0C0C0C"/>
<path d="M79.056 5.1084C79.056 5.1084 71.9547 7.19538 76.3488 16.5346L76.9973 16.4614L78.3137 16.3132" fill="#0C0C0C"/>
<path d="M89.1196 26.2216C89.0874 26.2175 88.7282 32.1752 81.807 31.6549C77.0156 31.296 75.3071 26.2124 75.1973 26.2124C75.7139 26.1026 76.3523 25.9361 76.606 25.8788C77.159 25.7505 77.6598 25.4568 78.0418 25.0369C78.4239 24.6169 78.669 24.0906 78.7446 23.528C78.8848 22.6835 78.6469 18.3631 78.7201 17.5088L86.0749 19.1503C85.9722 20.955 85.253 25.1384 87.7739 25.8788C88.1936 26.0015 88.6456 26.1143 89.1196 26.2216Z" fill="#E98862"/>
<path opacity="0.52" d="M86.1781 24.1702C86.063 23.7989 85.9888 23.4161 85.9568 23.0287C85.876 22.1446 85.8922 21.2544 86.0049 20.3738C84.5101 20.172 83.1018 19.555 81.9401 18.5928C81.8033 19.0972 81.0524 21.3011 81.2603 21.7805C81.6535 22.6866 83.5006 24.1702 86.1781 24.1702Z" fill="#0C0C0C"/>
<path d="M84.9777 22.2734C82.0769 22.5342 78.3323 21.3488 77.5816 17.482L76.904 13.9929C76.1533 10.1252 77.5756 6.59698 81.2163 5.89019C84.8571 5.18317 88.187 7.78954 88.938 11.6564L89.2373 13.2009C89.3312 13.7331 89.3886 14.271 89.4091 14.8109C89.474 16.2383 89.5672 18.4077 88.8812 20.0114C88.2338 21.5258 86.8315 22.1069 84.9777 22.2734Z" fill="#E98862"/>
<path opacity="0.5" d="M85.4162 18.4512C85.9475 18.4412 86.469 18.3065 86.9387 18.058C86.9489 18.0534 86.958 18.0467 86.9656 18.0385C86.9732 18.0302 86.979 18.0205 86.9828 18.0099C86.9865 17.9994 86.988 17.9881 86.9873 17.977C86.9866 17.9658 86.9836 17.9548 86.9786 17.9448C86.9735 17.9348 86.9665 17.926 86.9579 17.9187C86.9494 17.9115 86.9394 17.9061 86.9287 17.9028C86.918 17.8995 86.9067 17.8985 86.8956 17.8996C86.8844 17.9008 86.8736 17.9043 86.8638 17.9097C85.8509 18.4211 84.9003 18.4162 84.1159 17.8973C84.1001 17.8863 84.0837 17.8762 84.0669 17.8669C84.0571 17.8621 84.0464 17.8593 84.0356 17.8586C84.0247 17.8579 84.0138 17.8593 84.0035 17.8628C83.9932 17.8664 83.9836 17.8719 83.9755 17.8791C83.9673 17.8863 83.9606 17.895 83.9558 17.9048C83.951 17.9146 83.9481 17.9252 83.9474 17.9361C83.9467 17.9469 83.9482 17.9578 83.9517 17.9682C83.9552 17.9785 83.9607 17.988 83.9679 17.9962C83.9751 18.0044 83.9839 18.0111 83.9936 18.0159C83.9999 18.0193 84.01 18.0262 84.0243 18.0357C84.4365 18.3096 84.9212 18.4543 85.4162 18.4512Z" fill="#0C0C0C"/>
<path opacity="0.52" d="M85.4413 19.2374C85.5374 19.2371 85.6333 19.2286 85.728 19.2121C85.7387 19.2102 85.749 19.2063 85.7582 19.2005C85.7674 19.1947 85.7754 19.1872 85.7817 19.1783C85.788 19.1694 85.7925 19.1594 85.7949 19.1487C85.7973 19.1381 85.7976 19.1271 85.7958 19.1164C85.7939 19.1057 85.79 19.0954 85.7842 19.0862C85.7784 19.077 85.7709 19.069 85.762 19.0627C85.7531 19.0564 85.7431 19.0519 85.7324 19.0495C85.7218 19.0471 85.7108 19.0468 85.7001 19.0486C85.5518 19.0858 85.3973 19.0909 85.2469 19.0636C85.0965 19.0364 84.9536 18.9774 84.8278 18.8907C84.8112 18.8767 84.7898 18.8697 84.7682 18.8713C84.7466 18.8729 84.7265 18.8829 84.7121 18.8992C84.6978 18.9154 84.6904 18.9367 84.6915 18.9583C84.6927 18.98 84.7022 19.0003 84.7182 19.015C84.9263 19.1706 85.1818 19.2491 85.4413 19.2374Z" fill="#0C0C0C"/>
<path d="M88.0666 14.1752C88.3189 14.1752 88.5234 13.9707 88.5234 13.7185C88.5234 13.4662 88.3189 13.2617 88.0666 13.2617C87.8144 13.2617 87.6099 13.4662 87.6099 13.7185C87.6099 13.9707 87.8144 14.1752 88.0666 14.1752Z" fill="#0C0C0C"/>
<path d="M83.6247 14.6948C83.877 14.6948 84.0815 14.4903 84.0815 14.238C84.0815 13.9857 83.877 13.7812 83.6247 13.7812C83.3725 13.7812 83.168 13.9857 83.168 14.238C83.168 14.4903 83.3725 14.6948 83.6247 14.6948Z" fill="#0C0C0C"/>
<path d="M78.0362 18.6169C76.9298 18.8317 75.8031 17.8222 75.588 16.7157C75.373 15.6093 76.1518 14.8252 77.2581 14.6104L77.9718 15.2409L78.987 18.4323L78.0362 18.6169Z" fill="#E98862"/>
<path d="M78.8168 16.6345C78.8168 16.6345 78.1987 11.0827 79.8003 10.4431C80.867 10.017 83.8371 11.1018 86.239 10.1772C87.2897 9.77246 88.3718 9.85488 88.5698 10.3501C88.6483 10.546 88.797 7.49808 86.6907 5.58653C85.0138 4.06475 80.4829 4.36934 78.5675 5.31464C73.2638 7.93205 77.0731 14.8919 77.0731 14.8919L77.6648 16.7374L78.8168 16.6345Z" fill="#0C0C0C"/>
<g opacity="0.52">
<path d="M86.0969 17.0761H86.1041C86.4609 17.007 87.0517 16.8535 87.0019 16.5866C86.9593 16.3654 85.8969 14.0945 85.7762 13.8364C85.7711 13.8254 85.7638 13.8155 85.7548 13.8073C85.7459 13.7992 85.7354 13.7928 85.7239 13.7887C85.7125 13.7846 85.7004 13.7827 85.6883 13.7833C85.6762 13.7839 85.6643 13.7868 85.6533 13.792C85.6423 13.7971 85.6324 13.8044 85.6242 13.8133C85.6161 13.8223 85.6097 13.8328 85.6056 13.8442C85.6015 13.8556 85.5996 13.8678 85.6002 13.8799C85.6008 13.892 85.6037 13.9039 85.6088 13.9149C86.0799 14.9205 86.7913 16.4704 86.8203 16.6212C86.7973 16.6902 86.44 16.8235 86.0707 16.8942C86.0463 16.8978 86.0243 16.911 86.0096 16.9309C85.9949 16.9507 85.9886 16.9756 85.9923 17C85.9959 17.0244 86.0091 17.0464 86.0289 17.0611C86.0488 17.0758 86.0736 17.082 86.0981 17.0784L86.0969 17.0761Z" fill="#0C0C0C"/>
</g>
<path d="M86.3491 11.511C86.7061 11.3398 87.1027 11.2683 87.497 11.3038C87.6904 11.3201 87.8803 11.3652 88.0603 11.4378C88.2381 11.5085 88.4063 11.6013 88.5608 11.7141C88.5895 11.7339 88.6094 11.7641 88.6163 11.7983C88.6232 11.8325 88.6165 11.868 88.5977 11.8974C88.5789 11.9268 88.5495 11.9477 88.5155 11.9558C88.4816 11.9639 88.4459 11.9586 88.4158 11.9408L88.4055 11.9371C88.2653 11.8477 88.1145 11.7761 87.9565 11.7242C87.8012 11.6723 87.6389 11.6443 87.4751 11.6411C87.1523 11.6321 86.8329 11.7086 86.5492 11.8628L86.5374 11.8695C86.5143 11.8826 86.4889 11.8911 86.4625 11.8945C86.4361 11.8978 86.4094 11.896 86.3837 11.889C86.3581 11.882 86.3341 11.87 86.3131 11.8537C86.292 11.8374 86.2744 11.8171 86.2613 11.7941C86.2481 11.771 86.2396 11.7455 86.2362 11.7192C86.2329 11.6928 86.2348 11.666 86.2418 11.6404C86.2488 11.6147 86.2608 11.5907 86.277 11.5697C86.2933 11.5487 86.3136 11.5311 86.3367 11.5179L86.3491 11.511Z" fill="#0C0C0C"/>
<path d="M83.7305 12.2189C83.4196 12.1319 83.0912 12.1285 82.7786 12.209C82.6197 12.2485 82.4677 12.3119 82.3278 12.3971C82.185 12.4828 82.0535 12.586 81.9364 12.7044L81.9291 12.7118C81.9038 12.7362 81.8701 12.7498 81.8349 12.7497C81.7998 12.7496 81.7661 12.7358 81.7411 12.7112C81.716 12.6866 81.7015 12.6532 81.7007 12.6181C81.6999 12.583 81.7129 12.5489 81.7368 12.5232C81.8622 12.3786 82.0054 12.2504 82.163 12.1418C82.3224 12.0309 82.4976 11.9445 82.6826 11.8855C82.8675 11.8245 83.0599 11.7892 83.2544 11.7805C83.4537 11.7696 83.6534 11.7869 83.8477 11.8321C83.9 11.8443 83.9453 11.8768 83.9736 11.9224C84.0019 11.968 84.011 12.023 83.9988 12.0752C83.9865 12.1275 83.9541 12.1728 83.9085 12.2011C83.8629 12.2294 83.8079 12.2385 83.7556 12.2262L83.7437 12.223L83.7305 12.2189Z" fill="#0C0C0C"/>
<path d="M85.1314 7.83335C85.9212 7.51328 86.1795 6.31144 85.7084 5.14895C85.2373 3.98646 84.2151 3.30354 83.4254 3.6236C82.6356 3.94366 82.3773 5.14551 82.8484 6.308C83.3195 7.47049 84.3417 8.15341 85.1314 7.83335Z" fill="#0C0C0C"/>
<path d="M98.6854 32.3791C98.713 34.2877 97.9671 36.4333 97.7185 39.3388C97.6678 39.9281 97.5481 41.2266 97.3893 42.9187C97.1291 45.7206 96.7607 49.5952 96.4384 53.0877C91.8291 55.507 86.64 56.6031 81.446 56.2544C76.252 55.9058 71.2559 54.1261 67.0112 51.1124C66.9099 51.0364 66.8086 50.9628 66.7073 50.8914C66.438 46.9431 66.1203 42.799 65.8302 40.1814C65.2845 35.2937 64.5409 32.8603 64.9576 31.2165C64.991 31.0765 65.0357 30.9394 65.0912 30.8067C66.2906 27.8966 70.11 26.5982 72.6978 26.2482C74.2771 26.0341 76.653 25.8799 76.653 25.8799C76.653 25.8799 76.8533 29.9502 81.6489 30.1759C88.178 30.4844 87.7429 25.8799 87.7751 25.8799C88.8318 25.8799 94.5897 26.6488 96.0286 27.5881C96.2699 27.7447 96.5006 27.917 96.7193 28.1038C97.3445 28.6253 97.8454 29.2797 98.1855 30.0193C98.5257 30.7589 98.6964 31.5651 98.6854 32.3791Z" fill="#383838"/>
<path d="M74.6454 35.3308L67.0112 51.1126C66.9099 51.0366 66.8086 50.9629 66.7073 50.8916C63.7479 48.7216 61.238 45.9975 59.3171 42.8706L64.9576 31.2167L65.1809 30.7539L74.6454 35.3308Z" fill="#383838"/>
<path d="M73.909 37.1459L66.9654 51.0767C66.9194 51.0422 66.8756 51.0099 66.8296 50.98L73.7639 37.0745C73.7739 37.0551 73.791 37.0405 73.8117 37.0336C73.8323 37.0267 73.8549 37.0282 73.8744 37.0377C73.8934 37.0474 73.9076 37.0643 73.9141 37.0846C73.9206 37.1049 73.9187 37.1269 73.909 37.1459Z" fill="#1B6AEA"/>
<path d="M109.114 39.4949C107.731 42.6314 105.787 45.4898 103.38 47.9303L97.3892 42.9184L89.7803 36.5504L96.7192 28.1034L96.7399 28.0781L109.114 39.4949Z" fill="#383838"/>
<path d="M97.4815 42.9798C97.5011 42.9788 97.5196 42.9708 97.5337 42.9572C97.5478 42.9437 97.5565 42.9254 97.5582 42.9059L97.9535 38.2715C97.9553 38.2501 97.9486 38.2289 97.9348 38.2124C97.921 38.196 97.9012 38.1857 97.8798 38.1838C97.8585 38.1823 97.8374 38.1891 97.8211 38.2029C97.8047 38.2166 97.7944 38.2362 97.7923 38.2575L97.397 42.8921C97.3952 42.9135 97.402 42.9347 97.4158 42.9511C97.4296 42.9675 97.4493 42.9777 97.4707 42.9796L97.4815 42.9798Z" fill="#1B6AEA"/>
<path d="M215.922 178.251C230.755 178.251 242.779 166.226 242.779 151.393C242.779 136.561 230.755 124.536 215.922 124.536C201.089 124.536 189.065 136.561 189.065 151.393C189.065 166.226 201.089 178.251 215.922 178.251Z" fill="#1B6AEA"/>
<path opacity="0.09" d="M189.064 151.393C189.064 156.705 190.639 161.897 193.59 166.314C196.541 170.73 200.736 174.173 205.643 176.205C210.551 178.238 215.951 178.77 221.16 177.734C226.37 176.698 231.155 174.14 234.911 170.384C238.667 166.628 241.225 161.842 242.262 156.633C243.298 151.423 242.766 146.023 240.733 141.115C238.701 136.208 235.258 132.014 230.842 129.063C226.425 126.111 221.233 124.536 215.921 124.536C212.39 124.523 208.892 125.209 205.628 126.554C202.364 127.899 199.398 129.877 196.901 132.373C194.405 134.87 192.427 137.836 191.082 141.1C189.737 144.364 189.051 147.862 189.064 151.393Z" fill="#367CFF"/>
<path d="M228.108 136.571C227.679 141.544 228.077 143.23 230.142 146.079C231.883 148.481 221.974 146.44 217.589 145.659L221.458 134.351C221.458 134.351 228.259 134.825 228.108 136.571Z" fill="#0A0A0A"/>
<path d="M212.981 134.503C211.687 139.323 211.833 140.815 209.301 143.346C207.203 145.445 215.38 145.871 219.768 146.634L219.99 134.685C219.99 134.685 213.436 132.81 212.981 134.503Z" fill="#0A0A0A"/>
<path d="M213.417 148.523C213.446 148.519 213.767 153.851 219.96 153.386C224.248 153.065 225.777 148.516 225.875 148.516C225.385 148.434 224.902 148.317 224.429 148.165C223.754 147.802 222.918 147.425 222.701 146.114C222.575 145.358 222.788 141.492 222.723 140.727L216.141 142.196C216.233 143.81 216.878 147.554 214.622 148.216C214.246 148.327 213.841 148.428 213.417 148.523Z" fill="#E98862"/>
<path opacity="0.5" d="M216.049 146.688C216.152 146.356 216.218 146.013 216.247 145.667C216.319 144.875 216.305 144.079 216.204 143.291C217.542 143.11 218.802 142.558 219.842 141.697C219.964 142.149 220.636 144.121 220.45 144.55C220.098 145.36 218.445 146.688 216.049 146.688Z" fill="#0C0C0C"/>
<path d="M216.9 145.027C219.495 145.278 222.852 144.24 223.548 140.785L224.175 137.667C224.871 134.211 223.619 131.045 220.366 130.39C217.113 129.735 214.117 132.048 213.421 135.503L213.144 136.884C212.877 138.209 212.271 144.58 216.9 145.027Z" fill="#E98862"/>
<path d="M227.315 138.651L224.389 138.33C218.662 137.277 217.259 132.656 217.259 132.656C217.259 132.656 214.857 135.863 212.817 135.126C212.817 135.126 213.474 127.393 222.53 128.752C226.087 129.286 228.108 132.235 228.108 136.191C228.108 139.1 227.315 138.651 227.315 138.651Z" fill="#0A0A0A"/>
<path opacity="0.1" d="M219.389 140.023C219.426 139.709 219.111 139.414 218.684 139.363C218.257 139.312 217.88 139.525 217.843 139.838C217.805 140.151 218.121 140.447 218.548 140.498C218.975 140.548 219.352 140.336 219.389 140.023Z" fill="#0C0C0C"/>
<path opacity="0.1" d="M214.039 139.247C214.001 139.559 213.624 139.772 213.197 139.721C213.123 139.712 213.051 139.696 212.98 139.672C212.961 139.299 212.959 138.94 212.97 138.608C213.089 138.579 213.212 138.572 213.333 138.587C213.759 138.638 214.075 138.933 214.039 139.247Z" fill="#0C0C0C"/>
<path opacity="0.5" d="M215.924 140.214H215.918C215.786 140.186 215.656 140.151 215.528 140.109C215.337 140.045 215.087 139.941 215.122 139.768C215.162 139.571 216.128 137.555 216.238 137.326C216.243 137.316 216.25 137.307 216.258 137.299C216.266 137.291 216.276 137.285 216.286 137.282C216.297 137.278 216.308 137.276 216.319 137.276C216.33 137.277 216.341 137.28 216.351 137.285C216.361 137.289 216.37 137.296 216.378 137.305C216.385 137.313 216.391 137.323 216.394 137.334C216.398 137.344 216.399 137.355 216.399 137.367C216.398 137.378 216.395 137.389 216.39 137.399C215.977 138.257 215.313 139.668 215.286 139.801C215.485 139.936 215.713 140.021 215.951 140.049C215.972 140.054 215.991 140.066 216.003 140.084C216.015 140.102 216.02 140.123 216.016 140.145C216.013 140.166 216.002 140.185 215.984 140.198C215.967 140.211 215.946 140.217 215.924 140.215V140.214Z" fill="#0C0C0C"/>
<path d="M223.134 141.797C224.123 141.996 225.137 141.1 225.336 140.111C225.535 139.122 224.843 138.416 223.855 138.217L223.212 138.777L222.284 141.626L223.134 141.797Z" fill="#E98862"/>
<path d="M215.538 135.717C215.416 135.631 215.282 135.561 215.142 135.51C215 135.457 214.85 135.423 214.699 135.41C214.547 135.396 214.394 135.404 214.245 135.435C214.095 135.466 213.949 135.515 213.811 135.583L213.807 135.584C213.792 135.59 213.775 135.589 213.761 135.583C213.746 135.577 213.734 135.566 213.727 135.552C213.721 135.537 213.719 135.521 213.724 135.506C213.729 135.49 213.739 135.477 213.752 135.469C213.899 135.392 214.054 135.334 214.215 135.295C214.377 135.256 214.544 135.241 214.71 135.251C215.048 135.27 215.374 135.379 215.654 135.566C215.675 135.581 215.689 135.603 215.693 135.628C215.697 135.653 215.692 135.678 215.678 135.699C215.664 135.719 215.642 135.734 215.617 135.739C215.593 135.744 215.567 135.739 215.546 135.726L215.544 135.724L215.538 135.717Z" fill="#0C0C0C"/>
<path d="M218.202 136.086C218.533 136.02 218.876 136.044 219.195 136.156C219.352 136.21 219.501 136.288 219.636 136.387C219.77 136.483 219.891 136.597 219.996 136.724C220.008 136.737 220.014 136.753 220.013 136.77C220.012 136.787 220.005 136.803 219.992 136.815C219.98 136.826 219.963 136.832 219.946 136.831C219.929 136.831 219.913 136.823 219.902 136.811L219.898 136.807C219.796 136.692 219.68 136.591 219.553 136.505C219.427 136.419 219.289 136.353 219.144 136.308C218.854 136.218 218.546 136.205 218.251 136.272L218.244 136.274C218.219 136.28 218.193 136.276 218.171 136.263C218.149 136.249 218.133 136.228 218.127 136.203C218.121 136.178 218.125 136.152 218.138 136.13C218.152 136.109 218.173 136.093 218.198 136.087L218.202 136.086Z" fill="#0C0C0C"/>
<path d="M203.443 175.179C202.387 174.718 201.597 174.226 199.794 172.868C198.493 171.891 197.284 170.798 196.182 169.601L205.439 151.986L205.842 151.221L214.192 155.61L206.949 169.394L206.915 169.455L206.978 169.7" fill="#EA394A"/>
<path d="M234.23 161.008C233.987 163.62 233.934 167.683 233.951 171.295C230.46 174.461 226.198 176.652 221.591 177.648C216.985 178.645 212.198 178.41 207.711 176.97C207.162 171.522 206.345 163.518 205.885 158.589C205.419 153.483 204.047 151.797 207.791 149.352C209.854 148.302 213.124 148.21 214.593 148.21C214.095 153.049 224.293 153.645 224.547 148.21C232.175 148.923 235.706 149.1 234.23 161.008Z" fill="#EA394A"/>
<path d="M215.055 140.895C215.898 141.324 216.86 141.459 217.788 141.28C217.82 141.274 217.854 141.277 217.884 141.29C217.915 141.302 217.941 141.322 217.96 141.349C217.979 141.375 217.991 141.407 217.992 141.44C217.994 141.472 217.987 141.505 217.971 141.534C217.695 142.021 217.037 142.856 215.911 142.516C215.183 142.296 214.908 141.549 214.806 141.085C214.798 141.053 214.801 141.019 214.812 140.988C214.823 140.957 214.843 140.93 214.869 140.91C214.896 140.89 214.927 140.878 214.96 140.876C214.993 140.873 215.025 140.88 215.055 140.895Z" fill="#1B6AEA"/>
<path d="M215.002 137.146C215.227 137.146 215.409 136.963 215.409 136.738C215.409 136.513 215.227 136.331 215.002 136.331C214.777 136.331 214.595 136.513 214.595 136.738C214.595 136.963 214.777 137.146 215.002 137.146Z" fill="#0C0C0C"/>
<path d="M218.917 137.83C219.142 137.83 219.324 137.648 219.324 137.423C219.324 137.198 219.142 137.016 218.917 137.016C218.692 137.016 218.51 137.198 218.51 137.423C218.51 137.648 218.692 137.83 218.917 137.83Z" fill="#0C0C0C"/>
<path d="M206.787 167.382H206.795C206.811 167.379 206.826 167.37 206.836 167.357C206.846 167.344 206.851 167.327 206.848 167.31L206.128 160.055C206.127 160.047 206.125 160.039 206.121 160.032C206.117 160.025 206.111 160.018 206.104 160.013C206.098 160.008 206.09 160.005 206.082 160.003C206.074 160.001 206.066 160 206.057 160.002C206.049 160.003 206.041 160.006 206.034 160.01C206.027 160.014 206.021 160.019 206.016 160.026C206.011 160.033 206.007 160.04 206.005 160.048C206.003 160.056 206.003 160.064 206.004 160.073L206.724 167.328C206.726 167.343 206.734 167.357 206.745 167.367C206.757 167.377 206.772 167.382 206.787 167.382Z" fill="#0C0C0C"/>
<path d="M205.845 161.856H198.495V170.872H205.845V161.856Z" fill="#1B6AEA"/>
<path d="M202.835 166.364C202.835 165.769 203.012 165.187 203.343 164.692C203.674 164.197 204.144 163.811 204.694 163.583C205.244 163.356 205.849 163.296 206.433 163.412C207.017 163.529 207.554 163.815 207.975 164.237C208.396 164.658 208.682 165.194 208.798 165.778C208.914 166.362 208.855 166.967 208.627 167.517C208.399 168.067 208.013 168.537 207.518 168.868C207.023 169.199 206.441 169.375 205.845 169.375C205.047 169.374 204.282 169.057 203.718 168.492C203.153 167.928 202.836 167.162 202.835 166.364ZM204.068 166.364C204.068 166.716 204.172 167.059 204.368 167.352C204.563 167.644 204.84 167.872 205.165 168.006C205.49 168.141 205.847 168.176 206.192 168.107C206.537 168.039 206.854 167.87 207.102 167.621C207.351 167.372 207.52 167.056 207.589 166.711C207.657 166.366 207.622 166.009 207.487 165.684C207.353 165.359 207.125 165.082 206.833 164.886C206.541 164.691 206.197 164.587 205.845 164.587C205.374 164.587 204.922 164.775 204.589 165.108C204.256 165.441 204.069 165.893 204.068 166.364Z" fill="#1B6AEA"/>
<path d="M205.787 167.479C205.812 167.327 205.889 167.188 206.006 167.087C206.123 166.986 206.272 166.929 206.426 166.927C206.422 166.921 206.419 166.914 206.417 166.906L206.198 166.859C206.046 166.829 205.908 166.747 205.809 166.627C205.71 166.507 205.655 166.356 205.655 166.201C205.656 166.103 205.679 166.007 205.722 165.92C205.765 165.832 205.827 165.755 205.903 165.695C205.98 165.634 206.069 165.591 206.164 165.569C206.259 165.546 206.357 165.546 206.453 165.566L206.969 165.678C206.969 165.676 206.969 165.674 206.969 165.672C206.97 165.668 206.972 165.664 206.974 165.66C206.839 165.597 206.73 165.49 206.664 165.356C206.598 165.223 206.579 165.072 206.61 164.926C206.667 164.544 207.125 164.418 207.461 164.491L208.798 164.73L208.347 164.431C208.205 164.332 208.105 164.183 208.068 164.014C208.031 163.845 208.06 163.668 208.149 163.519C208.197 163.444 208.26 163.379 208.335 163.329C208.409 163.279 208.492 163.245 208.58 163.228C208.668 163.212 208.759 163.213 208.846 163.233C208.933 163.252 209.016 163.289 209.088 163.342L214.48 169.512L213.283 168.968C212.911 169.515 212.385 169.938 211.771 170.183C211.158 170.429 210.485 170.485 209.839 170.346L206.915 169.708C206.763 169.678 206.625 169.596 206.526 169.476C206.427 169.356 206.372 169.206 206.371 169.05C206.373 168.91 206.42 168.774 206.505 168.662C206.59 168.55 206.708 168.469 206.843 168.429C206.839 168.419 206.837 168.408 206.839 168.397C206.84 168.387 206.844 168.378 206.85 168.37C206.857 168.362 206.865 168.356 206.874 168.351L206.334 168.235C206.164 168.202 206.013 168.105 205.912 167.965C205.81 167.825 205.765 167.651 205.787 167.479Z" fill="#E98862"/>
<path opacity="0.2" d="M207.946 165.896C207.96 165.893 207.972 165.885 207.981 165.874C207.99 165.863 207.995 165.849 207.995 165.834C207.994 165.82 207.989 165.806 207.98 165.795C207.97 165.784 207.958 165.777 207.943 165.774L207.04 165.621C207.032 165.62 207.024 165.62 207.016 165.621C207.007 165.623 207 165.626 206.993 165.631C206.986 165.636 206.98 165.642 206.975 165.649C206.971 165.656 206.968 165.663 206.966 165.672C206.965 165.68 206.965 165.688 206.967 165.696C206.969 165.705 206.973 165.712 206.978 165.719C206.983 165.726 206.989 165.731 206.996 165.735C207.003 165.74 207.011 165.742 207.02 165.743L207.923 165.896C207.93 165.898 207.938 165.898 207.946 165.896Z" fill="#0C0C0C"/>
<path opacity="0.2" d="M207.728 167.173C207.742 167.17 207.754 167.162 207.763 167.151C207.772 167.139 207.777 167.125 207.777 167.111C207.777 167.097 207.772 167.083 207.762 167.072C207.753 167.061 207.74 167.054 207.726 167.051L206.489 166.832C206.481 166.83 206.472 166.83 206.464 166.831C206.456 166.833 206.448 166.836 206.441 166.84C206.434 166.845 206.428 166.851 206.423 166.858C206.418 166.865 206.415 166.873 206.414 166.881C206.412 166.889 206.413 166.898 206.414 166.906C206.416 166.914 206.42 166.922 206.425 166.929C206.43 166.936 206.436 166.941 206.443 166.945C206.451 166.95 206.459 166.952 206.467 166.953L207.704 167.173C207.712 167.174 207.72 167.174 207.728 167.173Z" fill="#0C0C0C"/>
<path opacity="0.2" d="M207.5 168.558C207.515 168.555 207.527 168.547 207.536 168.535C207.545 168.524 207.55 168.51 207.549 168.495C207.549 168.481 207.544 168.467 207.534 168.456C207.524 168.445 207.511 168.438 207.497 168.436L206.91 168.346C206.894 168.344 206.879 168.349 206.866 168.359C206.854 168.369 206.845 168.383 206.843 168.398C206.841 168.414 206.844 168.43 206.853 168.443C206.862 168.456 206.876 168.465 206.891 168.468L207.478 168.558C207.486 168.559 207.493 168.559 207.5 168.558Z" fill="#0C0C0C"/>
<path d="M237.975 166.717C234.667 171.474 229.913 175.037 224.42 176.878L224.418 176.876C223.197 176.637 211.558 172.042 210.018 171.74L211.703 163.88C216.029 164.741 223.918 168.059 228.269 168.923L225.199 155.007C225.088 154.392 225.1 153.762 225.235 153.152C225.369 152.542 225.623 151.964 225.982 151.453C226.341 150.942 226.799 150.507 227.327 150.174C227.855 149.841 228.445 149.616 229.061 149.513C229.677 149.409 230.307 149.429 230.916 149.571C231.524 149.713 232.098 149.974 232.605 150.339C233.111 150.705 233.54 151.167 233.867 151.7C234.194 152.232 234.411 152.824 234.507 153.442L237.975 166.717Z" fill="#EA394A"/>
<path d="M231.566 169.947C231.582 169.946 231.597 169.94 231.608 169.929C231.62 169.919 231.627 169.904 231.628 169.888C231.629 169.873 231.624 169.857 231.615 169.845C231.605 169.832 231.591 169.824 231.576 169.821L228.305 168.712C228.297 168.71 228.288 168.711 228.28 168.713C228.272 168.715 228.264 168.718 228.258 168.723C228.251 168.728 228.245 168.734 228.241 168.741C228.237 168.749 228.234 168.756 228.233 168.765C228.231 168.781 228.235 168.798 228.245 168.811C228.255 168.825 228.27 168.834 228.286 168.836L231.557 169.946C231.56 169.946 231.563 169.947 231.566 169.947Z" fill="#0C0C0C"/>
<path d="M228.355 168.765C228.357 168.785 228.351 168.805 228.338 168.82C228.331 168.827 228.322 168.832 228.313 168.835C228.304 168.838 228.294 168.838 228.284 168.837L211.808 163.974L210.156 171.709L224.344 176.9C224.3 176.915 224.254 176.93 224.21 176.944C224.179 176.955 224.147 176.965 224.114 176.974L210.064 171.815C210.048 171.811 210.035 171.801 210.026 171.787C210.017 171.773 210.015 171.756 210.018 171.74L211.703 163.88C211.705 163.872 211.708 163.865 211.713 163.858C211.719 163.852 211.725 163.846 211.732 163.842C211.739 163.837 211.747 163.834 211.755 163.833C211.764 163.831 211.772 163.832 211.78 163.834L228.217 168.703L226.356 161.031C226.354 161.015 226.358 160.998 226.368 160.985C226.378 160.972 226.392 160.963 226.409 160.96C226.417 160.959 226.425 160.959 226.433 160.96C226.441 160.962 226.449 160.965 226.456 160.97C226.463 160.975 226.468 160.981 226.473 160.987C226.477 160.994 226.481 161.002 226.482 161.01L228.355 168.765Z" fill="#0C0C0C"/>
<path d="M13.5065 158.741C13.4912 158.741 13.476 158.738 13.4619 158.732C13.4479 158.727 13.4353 158.718 13.4246 158.707C13.414 158.697 13.4056 158.684 13.3999 158.67C13.3942 158.656 13.3913 158.641 13.3914 158.626C13.3914 158.611 13.3945 158.596 13.4004 158.582L17.9114 147.859C17.9233 147.831 17.9458 147.809 17.9741 147.798C18.0024 147.786 18.0342 147.786 18.0623 147.798C18.0904 147.81 18.1127 147.833 18.1242 147.861C18.1357 147.889 18.1355 147.921 18.1237 147.949L13.6126 158.671C13.6039 158.692 13.5891 158.71 13.5703 158.722C13.5514 158.735 13.5292 158.741 13.5065 158.741Z" fill="#0C0C0C"/>
<path d="M40.0509 158.863H40.0458C40.0307 158.864 40.0157 158.861 40.0014 158.856C39.9872 158.851 39.9742 158.843 39.963 158.833C39.9519 158.823 39.9428 158.81 39.9364 158.797C39.93 158.783 39.9264 158.768 39.9257 158.753L39.4229 147.787C39.4225 147.756 39.4336 147.727 39.4539 147.705C39.4743 147.682 39.5023 147.669 39.5324 147.666C39.5476 147.665 39.5627 147.668 39.5769 147.673C39.5912 147.678 39.6042 147.686 39.6154 147.696C39.6266 147.706 39.6357 147.719 39.6421 147.732C39.6485 147.746 39.6522 147.761 39.6529 147.776L40.1557 158.742C40.1571 158.772 40.1471 158.801 40.1275 158.824C40.108 158.846 40.0805 158.86 40.0509 158.863Z" fill="#0C0C0C"/>
</g>
<defs>
<clipPath id="clip0_5333_117877">
<rect width="256.775" height="178.251" fill="white"/>
</clipPath>
</defs>
</svg>
