<svg width="29" height="27" viewBox="0 0 29 27" fill="none" xmlns="http://www.w3.org/2000/svg">
<path d="M15.7004 14.475C16.3369 14.475 16.9474 14.7279 17.3974 15.1779C17.8475 15.628 18.1004 16.2385 18.1004 16.875V18.675C18.1004 21.1398 15.5948 22.875 11.5004 22.875C7.40599 22.875 4.90039 21.1398 4.90039 18.675V16.875C4.90039 16.2385 5.15325 15.628 5.60333 15.1779C6.05342 14.7279 6.66387 14.475 7.30039 14.475H15.7004ZM21.7004 14.475C22.3369 14.475 22.9474 14.7279 23.3974 15.1779C23.8475 15.628 24.1004 16.2385 24.1004 16.875V17.475C24.1004 19.9818 22.2188 21.675 18.7004 21.675C18.5312 21.675 18.3644 21.6714 18.2036 21.663C18.8504 20.9106 19.2332 19.9998 19.292 18.9618L19.3004 18.675V16.875C19.3004 16.0446 19.0196 15.279 18.5468 14.6706L18.3824 14.475H21.7004ZM11.5004 4.875C12.0519 4.875 12.5981 4.98364 13.1077 5.19471C13.6172 5.40578 14.0802 5.71515 14.4702 6.10515C14.8602 6.49516 15.1696 6.95816 15.3807 7.46773C15.5918 7.9773 15.7004 8.52345 15.7004 9.075C15.7004 9.62655 15.5918 10.1727 15.3807 10.6823C15.1696 11.1918 14.8602 11.6548 14.4702 12.0448C14.0802 12.4349 13.6172 12.7442 13.1077 12.9553C12.5981 13.1664 12.0519 13.275 11.5004 13.275C10.3865 13.275 9.31819 12.8325 8.53054 12.0448C7.74289 11.2572 7.30039 10.1889 7.30039 9.075C7.30039 7.96109 7.74289 6.8928 8.53054 6.10515C9.31819 5.3175 10.3865 4.875 11.5004 4.875V4.875ZM19.9004 7.275C20.696 7.275 21.4591 7.59107 22.0217 8.15368C22.5843 8.71629 22.9004 9.47935 22.9004 10.275C22.9004 11.0707 22.5843 11.8337 22.0217 12.3963C21.4591 12.9589 20.696 13.275 19.9004 13.275C19.1047 13.275 18.3417 12.9589 17.7791 12.3963C17.2165 11.8337 16.9004 11.0707 16.9004 10.275C16.9004 9.47935 17.2165 8.71629 17.7791 8.15368C18.3417 7.59107 19.1047 7.275 19.9004 7.275Z" fill="black"/>
</svg>
