<svg width="29" height="30" viewBox="0 0 29 30" fill="none" xmlns="http://www.w3.org/2000/svg">
<g filter="url(#filter0_d_1339_5621)">
<path d="M21.6405 12.54C21.6805 12.24 21.7005 11.93 21.7005 11.6C21.7005 11.28 21.6805 10.96 21.6305 10.66L23.6605 9.08C23.7479 9.0079 23.8077 8.9077 23.8296 8.79647C23.8515 8.68524 23.8341 8.56987 23.7805 8.47L21.8605 5.15C21.8039 5.04957 21.7137 4.97238 21.6057 4.93211C21.4977 4.89184 21.3789 4.8911 21.2705 4.93L18.8805 5.89C18.3805 5.51 17.8505 5.19 17.2605 4.95L16.9005 2.41C16.8827 2.29553 16.8246 2.19121 16.7365 2.11598C16.6484 2.04075 16.5363 1.9996 16.4205 2H12.5805C12.3405 2 12.1505 2.17 12.1105 2.41L11.7505 4.95C11.1605 5.19 10.6205 5.52 10.1305 5.89L7.74045 4.93C7.52045 4.85 7.27045 4.93 7.15045 5.15L5.24045 8.47C5.12045 8.68 5.16045 8.94 5.36045 9.08L7.39045 10.66C7.34045 10.96 7.30045 11.29 7.30045 11.6C7.30045 11.91 7.32045 12.24 7.37045 12.54L5.34045 14.12C5.25298 14.1921 5.19321 14.2923 5.17132 14.4035C5.14944 14.5148 5.16681 14.6301 5.22045 14.73L7.14045 18.05C7.26045 18.27 7.51045 18.34 7.73045 18.27L10.1205 17.31C10.6205 17.69 11.1505 18.01 11.7405 18.25L12.1005 20.79C12.1505 21.03 12.3405 21.2 12.5805 21.2H16.4205C16.6605 21.2 16.8605 21.03 16.8905 20.79L17.2505 18.25C17.8405 18.01 18.3805 17.69 18.8705 17.31L21.2605 18.27C21.4805 18.35 21.7305 18.27 21.8505 18.05L23.7705 14.73C23.8905 14.51 23.8405 14.26 23.6505 14.12L21.6405 12.54ZM14.5005 15.2C12.5205 15.2 10.9005 13.58 10.9005 11.6C10.9005 9.62 12.5205 8 14.5005 8C16.4805 8 18.1005 9.62 18.1005 11.6C18.1005 13.58 16.4805 15.2 14.5005 15.2Z" fill="black"/>
</g>
<defs>
<filter id="filter0_d_1339_5621" x="-4" y="0" width="37" height="31.2002" filterUnits="userSpaceOnUse" color-interpolation-filters="sRGB">
<feFlood flood-opacity="0" result="BackgroundImageFix"/>
<feColorMatrix in="SourceAlpha" type="matrix" values="0 0 0 0 0 0 0 0 0 0 0 0 0 0 0 0 0 0 127 0" result="hardAlpha"/>
<feOffset dy="4"/>
<feGaussianBlur stdDeviation="2"/>
<feComposite in2="hardAlpha" operator="out"/>
<feColorMatrix type="matrix" values="0 0 0 0 0 0 0 0 0 0 0 0 0 0 0 0 0 0 0.25 0"/>
<feBlend mode="normal" in2="BackgroundImageFix" result="effect1_dropShadow_1339_5621"/>
<feBlend mode="normal" in="SourceGraphic" in2="effect1_dropShadow_1339_5621" result="shape"/>
</filter>
</defs>
</svg>
