<svg width="50" height="63" viewBox="0 0 50 63" fill="none" xmlns="http://www.w3.org/2000/svg">
<path d="M50 62.7778H0V8.88889C2.35667 8.88624 4.61605 7.9489 6.28247 6.28248C7.94889 4.61607 8.88624 2.35667 8.88889 0H41.1111C41.1086 1.16744 41.3377 2.32376 41.785 3.4021C42.2323 4.48043 42.8891 5.45936 43.7172 6.28221C44.54 7.1106 45.519 7.76755 46.5975 8.21499C47.6759 8.66243 48.8324 8.89148 50 8.88889V62.7778Z" fill="#F8F8F8"/>
<path d="M32.2215 39.4443H17.777C16.8565 39.4443 16.1104 40.1905 16.1104 41.111C16.1104 42.0315 16.8565 42.7777 17.777 42.7777H32.2215C33.1419 42.7777 33.8881 42.0315 33.8881 41.111C33.8881 40.1905 33.1419 39.4443 32.2215 39.4443Z" fill="#CECECE"/>
<path d="M37.2224 46.1104H12.778C11.8575 46.1104 11.1113 46.8565 11.1113 47.777C11.1113 48.6975 11.8575 49.4437 12.778 49.4437H37.2224C38.1429 49.4437 38.8891 48.6975 38.8891 47.777C38.8891 46.8565 38.1429 46.1104 37.2224 46.1104Z" fill="#CECECE"/>
<g clip-path="url(#clip0_2172_6811)">
<circle cx="24.6722" cy="21.4847" r="11.849" fill="white"/>
<path d="M38.3437 21.4844C38.3437 25.1104 36.9033 28.5879 34.3393 31.1518C31.7754 33.7158 28.2979 35.1562 24.6719 35.1562C21.0459 35.1562 17.5684 33.7158 15.0044 31.1518C12.4404 28.5879 11 25.1104 11 21.4844C11 17.8584 12.4404 14.3809 15.0044 11.8169C17.5684 9.25293 21.0459 7.8125 24.6719 7.8125C28.2979 7.8125 31.7754 9.25293 34.3393 11.8169C36.9033 14.3809 38.3437 17.8584 38.3437 21.4844ZM31.5591 16.3062C31.437 16.1845 31.2917 16.0887 31.1317 16.0245C30.9718 15.9604 30.8005 15.9291 30.6282 15.9326C30.4559 15.9361 30.2861 15.9743 30.1289 16.045C29.9717 16.1156 29.8304 16.2172 29.7134 16.3438L23.7781 23.906L20.2012 20.3274C19.9582 20.101 19.6368 19.9777 19.3048 19.9836C18.9727 19.9894 18.6559 20.124 18.4211 20.3588C18.1862 20.5936 18.0517 20.9105 18.0458 21.2425C18.04 21.5746 18.1632 21.8959 18.3896 22.1389L22.9116 26.6626C23.0334 26.7842 23.1785 26.88 23.3382 26.9443C23.4978 27.0086 23.6688 27.0402 23.8409 27.037C24.013 27.0338 24.1827 26.996 24.3398 26.9258C24.497 26.8556 24.6384 26.7544 24.7556 26.6284L31.5779 18.1006C31.8105 17.8588 31.9389 17.5354 31.9358 17.1999C31.9326 16.8644 31.7979 16.5435 31.5608 16.3062H31.5591Z" fill="#63BB67"/>
</g>
<defs>
<clipPath id="clip0_2172_6811">
<rect width="27.3437" height="27.3437" fill="white" transform="translate(11 7.8125)"/>
</clipPath>
</defs>
</svg>
