<svg width="144" height="123" viewBox="0 0 144 123" fill="none" xmlns="http://www.w3.org/2000/svg">
<path d="M29.4155 36.7022C29.4155 24.2027 39.5773 14.0408 52.0769 14.0408C64.5765 14.0408 74.7383 24.2027 74.7383 36.7022C74.6907 48.9633 65.1013 58.8866 52.888 59.316H52.554C52.2678 59.2683 51.8861 59.2683 51.5044 59.316C39.0048 58.8866 29.4155 48.9633 29.4155 36.7022Z" fill="url(#paint0_linear_3350_12638)"/>
<path d="M27.8888 72.0064C41.2948 63.1327 63.0021 63.1327 76.3128 72.0064C82.324 76.0139 85.6159 81.4527 85.6636 87.3208C85.6636 93.2366 82.324 98.6754 76.3128 102.731C69.6336 107.215 60.8552 109.457 52.0769 109.457C43.2986 109.457 34.5202 107.215 27.841 102.731C21.8298 98.7231 18.4902 93.2843 18.4902 87.4162C18.4902 81.5481 21.8298 76.0616 27.8888 72.0064Z" fill="url(#paint1_linear_3350_12638)"/>
<path d="M85.0892 53.0599L101.016 14.7638L127.358 41.106L89.0621 57.0328C87.9258 57.5054 86.6166 57.2459 85.7463 56.3757C84.8761 55.5054 84.6166 54.1962 85.0892 53.0599Z" fill="url(#paint2_radial_3350_12638)" stroke="url(#paint3_linear_3350_12638)" stroke-width="0.510703"/>
<g filter="url(#filter0_b_3350_12638)">
<path fill-rule="evenodd" clip-rule="evenodd" d="M110.527 31.5941C117.95 39.0173 125.687 43.3156 127.808 41.1947C129.462 39.5404 127.211 34.4692 122.618 28.7953L122.26 28.3577C121.777 27.7728 121.269 27.1823 120.739 26.5892L120.337 26.144C119.661 25.4013 118.95 24.6559 118.207 23.9136C117.465 23.1712 116.72 22.4602 115.977 21.7836L115.532 21.3819C114.939 20.8518 114.348 20.3443 113.763 19.861L113.326 19.5031C107.652 14.9098 102.581 12.6586 100.926 14.3129C98.8053 16.4338 103.104 24.1709 110.527 31.5941Z" fill="url(#paint4_radial_3350_12638)"/>
<path d="M127.627 41.0141C127.189 41.4527 126.418 41.5981 125.305 41.3825C124.203 41.1691 122.832 40.6125 121.28 39.7502C118.179 38.0273 114.407 35.1132 110.707 31.4135C107.008 27.7138 104.094 23.9424 102.371 20.8411C101.508 19.2889 100.952 17.9177 100.738 16.8154C100.523 15.7026 100.668 14.9321 101.107 14.4935C101.448 14.1518 101.99 13.9872 102.748 14.0349C103.504 14.0825 104.44 14.3409 105.518 14.8001C107.673 15.7176 110.338 17.4131 113.164 19.7011C113.165 19.7013 113.165 19.7014 113.165 19.7015L113.601 20.0578C113.601 20.058 113.601 20.0581 113.601 20.0582C114.183 20.5391 114.771 21.0442 115.361 21.5719C115.361 21.572 115.361 21.5721 115.362 21.5723L115.805 21.9724C115.805 21.9726 115.805 21.9728 115.806 21.9729C116.545 22.6466 117.287 23.3548 118.027 24.0941C118.766 24.8335 119.474 25.5759 120.148 26.3155C120.148 26.3156 120.148 26.3158 120.148 26.316L120.549 26.7594C120.549 26.7595 120.549 26.7597 120.549 26.7598C121.077 27.3501 121.582 27.9378 122.063 28.5198C122.063 28.52 122.063 28.5202 122.063 28.5203L122.419 28.956C122.42 28.9562 122.42 28.9564 122.42 28.9565C124.708 31.783 126.403 34.4484 127.321 36.6024C127.78 37.6805 128.038 38.6168 128.086 39.3733C128.134 40.1309 127.969 40.6724 127.627 41.0141Z" stroke="url(#paint5_radial_3350_12638)" stroke-width="0.510703"/>
</g>
<path fill-rule="evenodd" clip-rule="evenodd" d="M141.26 11.1869L134.251 11.4799L138.272 18.7693L141.26 11.1869Z" fill="#FFDAFE"/>
<path fill-rule="evenodd" clip-rule="evenodd" d="M109.806 2.08249L105.983 10.8733L113.123 10.6018L109.806 2.08249Z" fill="#5B72F2"/>
<circle cx="125.234" cy="3.98522" r="2.37603" transform="rotate(45 125.234 3.98522)" fill="#E965E2"/>
<circle cx="124.53" cy="33.8632" r="2.37603" transform="rotate(45 124.53 33.8632)" fill="#E965E2"/>
<path fill-rule="evenodd" clip-rule="evenodd" d="M128.566 24.2126C129.111 24.5239 129.3 25.2176 128.99 25.7627C128.678 26.309 127.983 26.499 127.437 26.1869L127.291 26.1034L127.051 25.962L126.822 25.8254L126.602 25.6912C125.058 24.7404 123.979 23.8584 123.272 22.8228L123.219 22.7434L123.195 22.7061L123.131 22.7166C120.833 23.0871 118.99 22.2794 117.727 20.517L117.668 20.4336C116.973 19.4324 116.39 17.147 116.082 15.7542C115.943 15.1268 116.371 14.5265 117.007 14.4304C117.621 14.3375 118.198 14.753 118.325 15.3611C118.576 16.5569 119.024 18.3975 119.537 19.1365C120.228 20.132 121.121 20.6184 122.367 20.5226L122.472 20.5132L122.471 20.489C122.451 19.7662 122.632 19.0237 123.029 18.2757L123.078 18.1859L123.204 17.9625C124.766 15.2472 126.553 14.0238 128.314 14.469C129.856 14.8591 130.852 16.5427 130.614 18.0417C130.297 20.0473 128.872 21.2419 126.774 21.8968C126.725 21.912 126.673 21.9275 126.618 21.9431L126.444 21.9905C126.383 22.0065 126.32 22.0225 126.256 22.0385L126.057 22.0865L125.852 22.134L125.677 22.173L125.682 22.178C126.162 22.6577 126.832 23.1553 127.694 23.6925L127.795 23.7546L127.999 23.8793L128.213 24.0071L128.439 24.1401L128.566 24.2126ZM124.793 20.0155L124.79 20.0357L125.225 19.9428L125.48 19.8859L125.716 19.83L125.858 19.794L125.986 19.7595L126.097 19.7268C127.457 19.3021 128.214 18.6679 128.369 17.6869C128.43 17.3051 128.11 16.7641 127.757 16.675C127.353 16.5728 126.754 16.8832 126.033 17.8018L125.931 17.9339C125.914 17.9566 125.897 17.9796 125.88 18.003L125.776 18.1472C125.724 18.2213 125.671 18.2985 125.618 18.3788L125.511 18.5437C125.493 18.5719 125.475 18.6005 125.456 18.6294L125.347 18.807L125.237 18.9933C125.218 19.0251 125.199 19.0573 125.181 19.0898L125.068 19.2893C124.931 19.5369 124.839 19.7781 124.793 20.0155Z" fill="#040C17"/>
<defs>
<filter id="filter0_b_3350_12638" x="93.4436" y="6.83032" width="41.8472" height="41.8469" filterUnits="userSpaceOnUse" color-interpolation-filters="sRGB">
<feFlood flood-opacity="0" result="BackgroundImageFix"/>
<feGaussianBlur in="BackgroundImageFix" stdDeviation="3.47058"/>
<feComposite in2="SourceAlpha" operator="in" result="effect1_backgroundBlur_3350_12638"/>
<feBlend mode="normal" in="SourceGraphic" in2="effect1_backgroundBlur_3350_12638" result="shape"/>
</filter>
<linearGradient id="paint0_linear_3350_12638" x1="52.0769" y1="14.0408" x2="52.0769" y2="109.457" gradientUnits="userSpaceOnUse">
<stop stop-color="#73F6B1"/>
<stop offset="1" stop-color="#04934A"/>
</linearGradient>
<linearGradient id="paint1_linear_3350_12638" x1="52.0769" y1="14.0408" x2="52.0769" y2="109.457" gradientUnits="userSpaceOnUse">
<stop stop-color="#73F6B1"/>
<stop offset="1" stop-color="#04934A"/>
</linearGradient>
<radialGradient id="paint2_radial_3350_12638" cx="0" cy="0" r="1" gradientUnits="userSpaceOnUse" gradientTransform="translate(100.443 19.0989) rotate(49.4017) scale(35.0786 37.5556)">
<stop stop-color="#F065E2"/>
<stop offset="1" stop-color="#3748FA"/>
</radialGradient>
<linearGradient id="paint3_linear_3350_12638" x1="84.3931" y1="20.3651" x2="89.4979" y2="50.5233" gradientUnits="userSpaceOnUse">
<stop stop-color="white" stop-opacity="0.29535"/>
<stop offset="1" stop-color="white" stop-opacity="0.01"/>
</linearGradient>
<radialGradient id="paint4_radial_3350_12638" cx="0" cy="0" r="1" gradientUnits="userSpaceOnUse" gradientTransform="translate(102.98 27.7538) rotate(34.3143) scale(24.8032)">
<stop stop-color="white" stop-opacity="0.801593"/>
<stop offset="1" stop-color="#889AFF" stop-opacity="0.301884"/>
</radialGradient>
<radialGradient id="paint5_radial_3350_12638" cx="0" cy="0" r="1" gradientUnits="userSpaceOnUse" gradientTransform="translate(103.082 16.4841) rotate(70.2944) scale(16.1155 24.3784)">
<stop stop-color="white" stop-opacity="0.973411"/>
<stop offset="1" stop-color="white" stop-opacity="0.01"/>
</radialGradient>
</defs>
</svg>
