<svg width="54" height="56" viewBox="0 0 54 56" fill="none"
    xmlns="http://www.w3.org/2000/svg">
    <g clip-path="url(#clip0_5183_5664)">
        <path d="M38.437 20.4872L29.939 11.3002C29.5645 10.8949 29.1102 10.5716 28.6046 10.3504C28.0991 10.1293 27.5533 10.0151 27.0015 10.0151C26.4497 10.0151 25.9039 10.1293 25.3984 10.3504C24.8928 10.5716 24.4385 10.8949 24.064 11.3002L15.581 20.4842C15.2087 20.859 14.9998 21.3659 15 21.8942V31.0002C15 31.7958 15.3161 32.5589 15.8787 33.1215C16.4413 33.6841 17.2044 34.0002 18 34.0002H22V28.0002C22.0034 27.102 22.2493 26.2213 22.7119 25.4514C23.1745 24.6815 23.8365 24.0508 24.628 23.6262C24.678 23.5982 24.728 23.5702 24.78 23.5432C24.9667 23.4502 25.1591 23.369 25.356 23.3002C25.491 23.2512 25.628 23.2092 25.769 23.1722C25.91 23.1352 26.08 23.1022 26.24 23.0722C26.328 23.0582 26.41 23.0282 26.5 23.0192C26.654 23.0042 26.8 23.0012 26.955 23.0002C26.971 23.0002 26.985 22.9952 27 22.9952H27.018C27.3275 22.9976 27.6362 23.0287 27.94 23.0882C27.974 23.0952 28.008 23.0982 28.04 23.1052C28.325 23.1674 28.6041 23.2544 28.874 23.3652C28.912 23.3802 28.95 23.3942 28.988 23.4112C29.2462 23.5232 29.4945 23.657 29.73 23.8112L29.841 23.8852C30.0696 24.0441 30.2847 24.2217 30.484 24.4162C30.516 24.4472 30.546 24.4782 30.577 24.5102C30.7722 24.7107 30.9508 24.9267 31.111 25.1562L31.179 25.2562C31.3364 25.4951 31.4732 25.7471 31.588 26.0092C31.601 26.0412 31.612 26.0732 31.625 26.1092C31.7393 26.3856 31.8283 26.6717 31.891 26.9642C31.891 26.9862 31.898 27.0092 31.902 27.0312C31.9663 27.3502 31.9991 27.6747 32 28.0002V34.0002H36C36.7956 34.0002 37.5587 33.6841 38.1213 33.1215C38.6839 32.5589 39 31.7958 39 31.0002V21.8792C39.0002 21.3596 38.7983 20.8604 38.437 20.4872Z" fill="#266DE0"/>
        <path d="M27 25C26.2044 25 25.4413 25.3161 24.8787 25.8787C24.3161 26.4413 24 27.2044 24 28V34H30V28C30 27.2044 29.6839 26.4413 29.1213 25.8787C28.5587 25.3161 27.7956 25 27 25Z" fill="#266DE0"/>
    </g>
    <path d="M18.9971 48.8594V49.8311H15.2227V48.8594H18.9971ZM15.5254 45.8906V53H14.2998V45.8906H15.5254ZM19.9395 45.8906V53H18.7188V45.8906H19.9395ZM21.0576 50.417V50.3047C21.0576 49.9238 21.113 49.5706 21.2236 49.2451C21.3343 48.9163 21.4938 48.6315 21.7021 48.3906C21.9137 48.1465 22.1709 47.9577 22.4736 47.8242C22.7796 47.6875 23.1247 47.6191 23.5088 47.6191C23.8962 47.6191 24.2412 47.6875 24.5439 47.8242C24.8499 47.9577 25.1087 48.1465 25.3203 48.3906C25.5319 48.6315 25.693 48.9163 25.8037 49.2451C25.9144 49.5706 25.9697 49.9238 25.9697 50.3047V50.417C25.9697 50.7979 25.9144 51.151 25.8037 51.4766C25.693 51.8021 25.5319 52.0869 25.3203 52.3311C25.1087 52.5719 24.8516 52.7607 24.5488 52.8975C24.2461 53.0309 23.9027 53.0977 23.5186 53.0977C23.1312 53.0977 22.7845 53.0309 22.4785 52.8975C22.1758 52.7607 21.9186 52.5719 21.707 52.3311C21.4954 52.0869 21.3343 51.8021 21.2236 51.4766C21.113 51.151 21.0576 50.7979 21.0576 50.417ZM22.2344 50.3047V50.417C22.2344 50.6546 22.2588 50.8792 22.3076 51.0908C22.3564 51.3024 22.4329 51.488 22.5371 51.6475C22.6413 51.807 22.7747 51.9323 22.9375 52.0234C23.1003 52.1146 23.2939 52.1602 23.5186 52.1602C23.7367 52.1602 23.9255 52.1146 24.085 52.0234C24.2477 51.9323 24.3812 51.807 24.4854 51.6475C24.5895 51.488 24.666 51.3024 24.7148 51.0908C24.7669 50.8792 24.793 50.6546 24.793 50.417V50.3047C24.793 50.0703 24.7669 49.849 24.7148 49.6406C24.666 49.429 24.5879 49.2419 24.4805 49.0791C24.3763 48.9163 24.2428 48.7894 24.0801 48.6982C23.9206 48.6038 23.7301 48.5566 23.5088 48.5566C23.2874 48.5566 23.0954 48.6038 22.9326 48.6982C22.7731 48.7894 22.6413 48.9163 22.5371 49.0791C22.4329 49.2419 22.3564 49.429 22.3076 49.6406C22.2588 49.849 22.2344 50.0703 22.2344 50.3047ZM28.1328 48.791V53H26.9561V47.7168H28.0645L28.1328 48.791ZM27.9424 50.1631L27.542 50.1582C27.542 49.7936 27.5876 49.4567 27.6787 49.1475C27.7699 48.8382 27.9033 48.5697 28.0791 48.3418C28.2549 48.1107 28.473 47.9333 28.7334 47.8096C28.9971 47.6826 29.3014 47.6191 29.6465 47.6191C29.8874 47.6191 30.1071 47.6549 30.3057 47.7266C30.5075 47.7949 30.6816 47.904 30.8281 48.0537C30.9779 48.2035 31.0918 48.3955 31.1699 48.6299C31.2513 48.8643 31.292 49.1475 31.292 49.4795V53H30.1152V49.582C30.1152 49.3249 30.0762 49.123 29.998 48.9766C29.9232 48.8301 29.8141 48.7259 29.6709 48.6641C29.5309 48.599 29.3633 48.5664 29.168 48.5664C28.9466 48.5664 28.7578 48.6087 28.6016 48.6934C28.4486 48.778 28.3232 48.8936 28.2256 49.04C28.1279 49.1865 28.0563 49.3558 28.0107 49.5479C27.9652 49.7399 27.9424 49.945 27.9424 50.1631ZM31.2188 49.8506L30.667 49.9727C30.667 49.6536 30.7109 49.3525 30.7988 49.0693C30.89 48.7829 31.0218 48.5322 31.1943 48.3174C31.3701 48.0993 31.5866 47.9284 31.8438 47.8047C32.1009 47.681 32.3955 47.6191 32.7275 47.6191C32.9977 47.6191 33.2386 47.6566 33.4502 47.7314C33.665 47.8031 33.8473 47.917 33.9971 48.0732C34.1468 48.2295 34.2607 48.4329 34.3389 48.6836C34.417 48.931 34.4561 49.2305 34.4561 49.582V53H33.2744V49.5771C33.2744 49.3102 33.2354 49.1035 33.1572 48.957C33.0824 48.8105 32.9749 48.7096 32.835 48.6543C32.695 48.5957 32.5273 48.5664 32.332 48.5664C32.1497 48.5664 31.9886 48.6006 31.8486 48.6689C31.7119 48.734 31.5964 48.8268 31.502 48.9473C31.4076 49.0645 31.3359 49.1995 31.2871 49.3525C31.2415 49.5055 31.2188 49.6715 31.2188 49.8506ZM37.9961 53.0977C37.6055 53.0977 37.2523 53.0342 36.9365 52.9072C36.624 52.777 36.3571 52.5964 36.1357 52.3652C35.9176 52.1341 35.75 51.8623 35.6328 51.5498C35.5156 51.2373 35.457 50.9004 35.457 50.5391V50.3438C35.457 49.9303 35.5173 49.556 35.6377 49.2207C35.7581 48.8854 35.9258 48.599 36.1406 48.3613C36.3555 48.1204 36.6094 47.9365 36.9023 47.8096C37.1953 47.6826 37.5127 47.6191 37.8545 47.6191C38.2321 47.6191 38.5625 47.6826 38.8457 47.8096C39.1289 47.9365 39.3633 48.1156 39.5488 48.3467C39.7376 48.5745 39.8776 48.8464 39.9688 49.1621C40.0632 49.4779 40.1104 49.8262 40.1104 50.207V50.71H36.0283V49.8652H38.9482V49.7725C38.9417 49.5609 38.8994 49.3623 38.8213 49.1768C38.7464 48.9912 38.6309 48.8415 38.4746 48.7275C38.3184 48.6136 38.11 48.5566 37.8496 48.5566C37.6543 48.5566 37.4801 48.599 37.3271 48.6836C37.1774 48.765 37.0521 48.8838 36.9512 49.04C36.8503 49.1963 36.7721 49.3851 36.7168 49.6064C36.6647 49.8245 36.6387 50.0703 36.6387 50.3438V50.5391C36.6387 50.7702 36.6696 50.985 36.7314 51.1836C36.7965 51.3789 36.891 51.5498 37.0146 51.6963C37.1383 51.8428 37.2881 51.9583 37.4639 52.043C37.6396 52.1243 37.8398 52.165 38.0645 52.165C38.3477 52.165 38.5999 52.1081 38.8213 51.9941C39.0426 51.8802 39.2347 51.7191 39.3975 51.5107L40.0176 52.1113C39.9036 52.2773 39.7555 52.4368 39.5732 52.5898C39.391 52.7396 39.168 52.8617 38.9043 52.9561C38.6439 53.0505 38.3411 53.0977 37.9961 53.0977Z" fill="#266DE0"/>
    <defs>
        <clipPath id="clip0_5183_5664">
            <rect width="24" height="24" fill="white" transform="translate(15 10)"/>
        </clipPath>
    </defs>
</svg>
