<svg width="54" height="56" viewBox="0 0 54 56" fill="none" xmlns="http://www.w3.org/2000/svg">
<rect width="53" height="56" transform="translate(0.5)" fill="url(#paint0_linear_5424_5474)" fill-opacity="0.5"/>
<path d="M16.1975 23.5173C15.8626 23.517 15.5367 23.6257 15.2691 23.827C15.0015 24.0284 14.8067 24.3114 14.7143 24.6332C14.6218 24.9551 14.6366 25.2983 14.7565 25.611C14.8764 25.9237 15.0949 26.1888 15.3789 26.3663L19.5229 30.5103C19.6661 30.6535 19.8362 30.767 20.0233 30.8444C20.2104 30.9218 20.4109 30.9616 20.6134 30.9616C20.8159 30.9615 21.0164 30.9215 21.2034 30.844C21.3905 30.7664 21.5604 30.6528 21.7036 30.5095C21.8467 30.3663 21.9602 30.1963 22.0377 30.0092C22.1151 29.8221 22.1549 29.6215 22.1548 29.419C22.1548 29.2165 22.1148 29.016 22.0372 28.829C21.9597 28.6419 21.846 28.472 21.7028 28.3289L19.9746 26.6022H31.6142C32.0231 26.6022 32.4152 26.4398 32.7043 26.1506C32.9934 25.8615 33.1558 25.4694 33.1558 25.0605C33.1558 24.6516 32.9934 24.2595 32.7043 23.9704C32.4152 23.6813 32.0231 23.5189 31.6142 23.5189L16.1975 23.5173ZM37.8024 20.4833C38.1373 20.4836 38.4632 20.3749 38.7308 20.1736C38.9984 19.9723 39.1932 19.6893 39.2857 19.3674C39.3782 19.0455 39.3633 18.7023 39.2434 18.3896C39.1235 18.0769 38.905 17.8118 38.6211 17.6343L34.4771 13.4903C34.1878 13.2012 33.7955 13.0389 33.3866 13.0391C32.9776 13.0392 32.5854 13.2018 32.2964 13.4911C32.0073 13.7804 31.845 14.1726 31.8451 14.5816C31.8453 14.9905 32.0079 15.3827 32.2971 15.6718L34.0253 17.3984H22.3858C21.9769 17.3984 21.5848 17.5609 21.2956 17.85C21.0065 18.1391 20.8441 18.5312 20.8441 18.9401C20.8441 19.349 21.0065 19.7411 21.2956 20.0302C21.5848 20.3193 21.9769 20.4818 22.3858 20.4818L37.8024 20.4833Z" fill="#1B6AEA"/>
<path d="M17.9033 42.8516V49.9609H16.6875V42.8516H17.9033ZM20.1348 42.8516V43.8281H14.4756V42.8516H20.1348ZM21.7852 45.6836V49.9609H20.6084V44.6777H21.7314L21.7852 45.6836ZM23.4014 44.6436L23.3916 45.7373C23.32 45.7243 23.2419 45.7145 23.1572 45.708C23.0758 45.7015 22.9945 45.6982 22.9131 45.6982C22.7113 45.6982 22.5339 45.7275 22.3809 45.7861C22.2279 45.8415 22.0993 45.9229 21.9951 46.0303C21.8942 46.1344 21.8161 46.2614 21.7607 46.4111C21.7054 46.5609 21.6729 46.7285 21.6631 46.9141L21.3945 46.9336C21.3945 46.6016 21.4271 46.2939 21.4922 46.0107C21.5573 45.7275 21.6549 45.4785 21.7852 45.2637C21.9186 45.0488 22.0846 44.8812 22.2832 44.7607C22.485 44.6403 22.7178 44.5801 22.9814 44.5801C23.0531 44.5801 23.1296 44.5866 23.2109 44.5996C23.2956 44.6126 23.359 44.6273 23.4014 44.6436ZM26.9414 48.9014V46.3818C26.9414 46.193 26.9072 46.0303 26.8389 45.8936C26.7705 45.7568 26.6663 45.651 26.5264 45.5762C26.3896 45.5013 26.2171 45.4639 26.0088 45.4639C25.8167 45.4639 25.6507 45.4964 25.5107 45.5615C25.3708 45.6266 25.2617 45.7145 25.1836 45.8252C25.1055 45.9359 25.0664 46.0612 25.0664 46.2012H23.8945C23.8945 45.9928 23.945 45.791 24.0459 45.5957C24.1468 45.4004 24.2933 45.2262 24.4854 45.0732C24.6774 44.9202 24.9069 44.7998 25.1738 44.7119C25.4408 44.624 25.7402 44.5801 26.0723 44.5801C26.4694 44.5801 26.821 44.6468 27.127 44.7803C27.4362 44.9137 27.6787 45.1156 27.8545 45.3857C28.0335 45.6527 28.123 45.988 28.123 46.3916V48.7402C28.123 48.9811 28.1393 49.1976 28.1719 49.3896C28.2077 49.5785 28.2581 49.7428 28.3232 49.8828V49.9609H27.1172C27.0618 49.834 27.0179 49.6729 26.9854 49.4775C26.9561 49.279 26.9414 49.0869 26.9414 48.9014ZM27.1123 46.748L27.1221 47.4756H26.2773C26.0592 47.4756 25.8672 47.4967 25.7012 47.5391C25.5352 47.5781 25.3968 47.6367 25.2861 47.7148C25.1755 47.793 25.0924 47.8874 25.0371 47.998C24.9818 48.1087 24.9541 48.234 24.9541 48.374C24.9541 48.514 24.9867 48.6426 25.0518 48.7598C25.1169 48.8737 25.2113 48.9632 25.335 49.0283C25.4619 49.0934 25.6149 49.126 25.7939 49.126C26.0348 49.126 26.2448 49.0771 26.4238 48.9795C26.6061 48.8786 26.7493 48.7565 26.8535 48.6133C26.9577 48.4668 27.013 48.3285 27.0195 48.1982L27.4004 48.7207C27.3613 48.8542 27.2946 48.9974 27.2002 49.1504C27.1058 49.3034 26.9821 49.4499 26.8291 49.5898C26.6794 49.7266 26.4987 49.8389 26.2871 49.9268C26.0788 50.0146 25.8379 50.0586 25.5645 50.0586C25.2194 50.0586 24.9118 49.9902 24.6416 49.8535C24.3714 49.7135 24.1598 49.5264 24.0068 49.292C23.8538 49.0544 23.7773 48.7858 23.7773 48.4863C23.7773 48.2064 23.8294 47.959 23.9336 47.7441C24.041 47.526 24.1973 47.3438 24.4023 47.1973C24.6107 47.0508 24.8646 46.9401 25.1641 46.8652C25.4635 46.7871 25.8053 46.748 26.1895 46.748H27.1123ZM32.5762 48.8672V42.4609H33.7578V49.9609H32.6885L32.5762 48.8672ZM29.1387 47.3779V47.2754C29.1387 46.875 29.1859 46.5104 29.2803 46.1816C29.3747 45.8496 29.5114 45.5648 29.6904 45.3271C29.8695 45.0863 30.0876 44.9023 30.3447 44.7754C30.6019 44.6452 30.8916 44.5801 31.2139 44.5801C31.5329 44.5801 31.8128 44.6419 32.0537 44.7656C32.2946 44.8893 32.4997 45.0667 32.6689 45.2979C32.8382 45.5257 32.9733 45.7992 33.0742 46.1182C33.1751 46.4339 33.2467 46.7855 33.2891 47.1729V47.5C33.2467 47.8776 33.1751 48.2227 33.0742 48.5352C32.9733 48.8477 32.8382 49.1178 32.6689 49.3457C32.4997 49.5736 32.293 49.7493 32.0488 49.873C31.8079 49.9967 31.5264 50.0586 31.2041 50.0586C30.8851 50.0586 30.597 49.9919 30.3398 49.8584C30.0859 49.7249 29.8695 49.5378 29.6904 49.2969C29.5114 49.056 29.3747 48.7728 29.2803 48.4473C29.1859 48.1185 29.1387 47.762 29.1387 47.3779ZM30.3154 47.2754V47.3779C30.3154 47.6188 30.3366 47.8434 30.3789 48.0518C30.4245 48.2601 30.4945 48.444 30.5889 48.6035C30.6833 48.7598 30.8053 48.8835 30.9551 48.9746C31.1081 49.0625 31.2904 49.1064 31.502 49.1064C31.7689 49.1064 31.9886 49.0479 32.1611 48.9307C32.3337 48.8135 32.4688 48.6556 32.5664 48.457C32.6673 48.2552 32.7357 48.0306 32.7715 47.7832V46.8994C32.752 46.7074 32.7113 46.5283 32.6494 46.3623C32.5908 46.1963 32.5111 46.0514 32.4102 45.9277C32.3092 45.8008 32.1839 45.7031 32.0342 45.6348C31.8877 45.5632 31.7135 45.5273 31.5117 45.5273C31.2969 45.5273 31.1146 45.5729 30.9648 45.6641C30.8151 45.7552 30.6914 45.8805 30.5938 46.04C30.4993 46.1995 30.4294 46.3851 30.3838 46.5967C30.3382 46.8083 30.3154 47.0345 30.3154 47.2754ZM37.3174 50.0586C36.9268 50.0586 36.5736 49.9951 36.2578 49.8682C35.9453 49.738 35.6784 49.5573 35.457 49.3262C35.2389 49.0951 35.0713 48.8232 34.9541 48.5107C34.8369 48.1982 34.7783 47.8613 34.7783 47.5V47.3047C34.7783 46.8913 34.8385 46.5169 34.959 46.1816C35.0794 45.8464 35.2471 45.5599 35.4619 45.3223C35.6768 45.0814 35.9307 44.8975 36.2236 44.7705C36.5166 44.6436 36.834 44.5801 37.1758 44.5801C37.5534 44.5801 37.8838 44.6436 38.167 44.7705C38.4502 44.8975 38.6846 45.0765 38.8701 45.3076C39.0589 45.5355 39.1989 45.8073 39.29 46.123C39.3844 46.4388 39.4316 46.7871 39.4316 47.168V47.6709H35.3496V46.8262H38.2695V46.7334C38.263 46.5218 38.2207 46.3232 38.1426 46.1377C38.0677 45.9521 37.9521 45.8024 37.7959 45.6885C37.6396 45.5745 37.4313 45.5176 37.1709 45.5176C36.9756 45.5176 36.8014 45.5599 36.6484 45.6445C36.4987 45.7259 36.3734 45.8447 36.2725 46.001C36.1715 46.1572 36.0934 46.346 36.0381 46.5674C35.986 46.7855 35.96 47.0312 35.96 47.3047V47.5C35.96 47.7311 35.9909 47.946 36.0527 48.1445C36.1178 48.3398 36.2122 48.5107 36.3359 48.6572C36.4596 48.8037 36.6094 48.9193 36.7852 49.0039C36.9609 49.0853 37.1611 49.126 37.3857 49.126C37.6689 49.126 37.9212 49.069 38.1426 48.9551C38.3639 48.8411 38.556 48.68 38.7188 48.4717L39.3389 49.0723C39.2249 49.2383 39.0768 49.3978 38.8945 49.5508C38.7122 49.7005 38.4893 49.8226 38.2256 49.917C37.9652 50.0114 37.6624 50.0586 37.3174 50.0586Z" fill="#1B6AEA"/>
<rect x="0.5" width="53" height="2" fill="#1B6AEA"/>
<defs>
<linearGradient id="paint0_linear_5424_5474" x1="26.5" y1="0" x2="27" y2="63" gradientUnits="userSpaceOnUse">
<stop stop-color="#0033AD" stop-opacity="0.45"/>
<stop offset="0.338542" stop-color="#0033AD" stop-opacity="0"/>
</linearGradient>
</defs>
</svg>
