<svg width="54" height="56" viewBox="0 0 54 56" fill="none" xmlns="http://www.w3.org/2000/svg">
<path d="M16.1975 23.5168C15.8626 23.5165 15.5367 23.6252 15.2691 23.8265C15.0015 24.0279 14.8067 24.3109 14.7143 24.6327C14.6218 24.9546 14.6366 25.2978 14.7565 25.6105C14.8764 25.9232 15.0949 26.1883 15.3789 26.3658L19.5229 30.5098C19.6661 30.653 19.8362 30.7665 20.0233 30.8439C20.2104 30.9213 20.4109 30.9611 20.6134 30.9611C20.8159 30.961 21.0164 30.921 21.2034 30.8435C21.3905 30.7659 21.5604 30.6523 21.7036 30.5091C21.8467 30.3658 21.9602 30.1958 22.0377 30.0087C22.1151 29.8216 22.1549 29.621 22.1548 29.4186C22.1548 29.2161 22.1148 29.0156 22.0372 28.8285C21.9597 28.6414 21.846 28.4715 21.7028 28.3284L19.9746 26.6017H31.6142C32.0231 26.6017 32.4152 26.4393 32.7043 26.1502C32.9934 25.861 33.1558 25.4689 33.1558 25.06C33.1558 24.6512 32.9934 24.259 32.7043 23.9699C32.4152 23.6808 32.0231 23.5184 31.6142 23.5184L16.1975 23.5168ZM37.8024 20.4828C38.1373 20.4832 38.4632 20.3744 38.7308 20.1731C38.9984 19.9718 39.1932 19.6888 39.2857 19.3669C39.3782 19.045 39.3633 18.7018 39.2434 18.3891C39.1235 18.0764 38.905 17.8113 38.6211 17.6338L34.4771 13.4898C34.1878 13.2007 33.7955 13.0384 33.3866 13.0386C32.9776 13.0387 32.5854 13.2013 32.2964 13.4906C32.0073 13.7799 31.845 14.1721 31.8451 14.5811C31.8453 14.9901 32.0079 15.3822 32.2971 15.6713L34.0253 17.3979H22.3858C21.9769 17.3979 21.5848 17.5604 21.2956 17.8495C21.0065 18.1386 20.8441 18.5307 20.8441 18.9396C20.8441 19.3485 21.0065 19.7406 21.2956 20.0297C21.5848 20.3189 21.9769 20.4813 22.3858 20.4813L37.8024 20.4828Z" fill="#4C5058"/>
<path d="M17.9033 42.8521V49.9614H16.6875V42.8521H17.9033ZM20.1348 42.8521V43.8286H14.4756V42.8521H20.1348ZM21.7852 45.6841V49.9614H20.6084V44.6782H21.7314L21.7852 45.6841ZM23.4014 44.644L23.3916 45.7378C23.32 45.7248 23.2419 45.715 23.1572 45.7085C23.0758 45.702 22.9945 45.6987 22.9131 45.6987C22.7113 45.6987 22.5339 45.728 22.3809 45.7866C22.2279 45.842 22.0993 45.9233 21.9951 46.0308C21.8942 46.1349 21.8161 46.2619 21.7607 46.4116C21.7054 46.5614 21.6729 46.729 21.6631 46.9146L21.3945 46.9341C21.3945 46.6021 21.4271 46.2944 21.4922 46.0112C21.5573 45.728 21.6549 45.479 21.7852 45.2642C21.9186 45.0493 22.0846 44.8817 22.2832 44.7612C22.485 44.6408 22.7178 44.5806 22.9814 44.5806C23.0531 44.5806 23.1296 44.5871 23.2109 44.6001C23.2956 44.6131 23.359 44.6278 23.4014 44.644ZM26.9414 48.9019V46.3823C26.9414 46.1935 26.9072 46.0308 26.8389 45.894C26.7705 45.7573 26.6663 45.6515 26.5264 45.5767C26.3896 45.5018 26.2171 45.4644 26.0088 45.4644C25.8167 45.4644 25.6507 45.4969 25.5107 45.562C25.3708 45.6271 25.2617 45.715 25.1836 45.8257C25.1055 45.9364 25.0664 46.0617 25.0664 46.2017H23.8945C23.8945 45.9933 23.945 45.7915 24.0459 45.5962C24.1468 45.4009 24.2933 45.2267 24.4854 45.0737C24.6774 44.9207 24.9069 44.8003 25.1738 44.7124C25.4408 44.6245 25.7402 44.5806 26.0723 44.5806C26.4694 44.5806 26.821 44.6473 27.127 44.7808C27.4362 44.9142 27.6787 45.116 27.8545 45.3862C28.0335 45.6532 28.123 45.9884 28.123 46.3921V48.7407C28.123 48.9816 28.1393 49.1981 28.1719 49.3901C28.2077 49.5789 28.2581 49.7433 28.3232 49.8833V49.9614H27.1172C27.0618 49.8345 27.0179 49.6733 26.9854 49.478C26.9561 49.2795 26.9414 49.0874 26.9414 48.9019ZM27.1123 46.7485L27.1221 47.4761H26.2773C26.0592 47.4761 25.8672 47.4972 25.7012 47.5396C25.5352 47.5786 25.3968 47.6372 25.2861 47.7153C25.1755 47.7935 25.0924 47.8879 25.0371 47.9985C24.9818 48.1092 24.9541 48.2345 24.9541 48.3745C24.9541 48.5145 24.9867 48.6431 25.0518 48.7603C25.1169 48.8742 25.2113 48.9637 25.335 49.0288C25.4619 49.0939 25.6149 49.1265 25.7939 49.1265C26.0348 49.1265 26.2448 49.0776 26.4238 48.98C26.6061 48.8791 26.7493 48.757 26.8535 48.6138C26.9577 48.4673 27.013 48.3289 27.0195 48.1987L27.4004 48.7212C27.3613 48.8547 27.2946 48.9979 27.2002 49.1509C27.1058 49.3039 26.9821 49.4504 26.8291 49.5903C26.6794 49.7271 26.4987 49.8394 26.2871 49.9272C26.0788 50.0151 25.8379 50.0591 25.5645 50.0591C25.2194 50.0591 24.9118 49.9907 24.6416 49.854C24.3714 49.714 24.1598 49.5269 24.0068 49.2925C23.8538 49.0549 23.7773 48.7863 23.7773 48.4868C23.7773 48.2069 23.8294 47.9595 23.9336 47.7446C24.041 47.5265 24.1973 47.3442 24.4023 47.1978C24.6107 47.0513 24.8646 46.9406 25.1641 46.8657C25.4635 46.7876 25.8053 46.7485 26.1895 46.7485H27.1123ZM32.5762 48.8677V42.4614H33.7578V49.9614H32.6885L32.5762 48.8677ZM29.1387 47.3784V47.2759C29.1387 46.8755 29.1859 46.5109 29.2803 46.1821C29.3747 45.8501 29.5114 45.5653 29.6904 45.3276C29.8695 45.0868 30.0876 44.9028 30.3447 44.7759C30.6019 44.6457 30.8916 44.5806 31.2139 44.5806C31.5329 44.5806 31.8128 44.6424 32.0537 44.7661C32.2946 44.8898 32.4997 45.0672 32.6689 45.2983C32.8382 45.5262 32.9733 45.7996 33.0742 46.1187C33.1751 46.4344 33.2467 46.786 33.2891 47.1733V47.5005C33.2467 47.8781 33.1751 48.2231 33.0742 48.5356C32.9733 48.8481 32.8382 49.1183 32.6689 49.3462C32.4997 49.5741 32.293 49.7498 32.0488 49.8735C31.8079 49.9972 31.5264 50.0591 31.2041 50.0591C30.8851 50.0591 30.597 49.9924 30.3398 49.8589C30.0859 49.7254 29.8695 49.5382 29.6904 49.2974C29.5114 49.0565 29.3747 48.7733 29.2803 48.4478C29.1859 48.119 29.1387 47.7625 29.1387 47.3784ZM30.3154 47.2759V47.3784C30.3154 47.6193 30.3366 47.8439 30.3789 48.0522C30.4245 48.2606 30.4945 48.4445 30.5889 48.604C30.6833 48.7603 30.8053 48.884 30.9551 48.9751C31.1081 49.063 31.2904 49.1069 31.502 49.1069C31.7689 49.1069 31.9886 49.0483 32.1611 48.9312C32.3337 48.814 32.4688 48.6561 32.5664 48.4575C32.6673 48.2557 32.7357 48.0311 32.7715 47.7837V46.8999C32.752 46.7078 32.7113 46.5288 32.6494 46.3628C32.5908 46.1968 32.5111 46.0519 32.4102 45.9282C32.3092 45.8013 32.1839 45.7036 32.0342 45.6353C31.8877 45.5636 31.7135 45.5278 31.5117 45.5278C31.2969 45.5278 31.1146 45.5734 30.9648 45.6646C30.8151 45.7557 30.6914 45.881 30.5938 46.0405C30.4993 46.2 30.4294 46.3856 30.3838 46.5972C30.3382 46.8088 30.3154 47.035 30.3154 47.2759ZM37.3174 50.0591C36.9268 50.0591 36.5736 49.9956 36.2578 49.8687C35.9453 49.7384 35.6784 49.5578 35.457 49.3267C35.2389 49.0955 35.0713 48.8237 34.9541 48.5112C34.8369 48.1987 34.7783 47.8618 34.7783 47.5005V47.3052C34.7783 46.8918 34.8385 46.5174 34.959 46.1821C35.0794 45.8468 35.2471 45.5604 35.4619 45.3228C35.6768 45.0819 35.9307 44.8979 36.2236 44.771C36.5166 44.644 36.834 44.5806 37.1758 44.5806C37.5534 44.5806 37.8838 44.644 38.167 44.771C38.4502 44.8979 38.6846 45.077 38.8701 45.3081C39.0589 45.536 39.1989 45.8078 39.29 46.1235C39.3844 46.4393 39.4316 46.7876 39.4316 47.1685V47.6714H35.3496V46.8267H38.2695V46.7339C38.263 46.5223 38.2207 46.3237 38.1426 46.1382C38.0677 45.9526 37.9521 45.8029 37.7959 45.689C37.6396 45.575 37.4313 45.5181 37.1709 45.5181C36.9756 45.5181 36.8014 45.5604 36.6484 45.645C36.4987 45.7264 36.3734 45.8452 36.2725 46.0015C36.1715 46.1577 36.0934 46.3465 36.0381 46.5679C35.986 46.786 35.96 47.0317 35.96 47.3052V47.5005C35.96 47.7316 35.9909 47.9465 36.0527 48.145C36.1178 48.3403 36.2122 48.5112 36.3359 48.6577C36.4596 48.8042 36.6094 48.9198 36.7852 49.0044C36.9609 49.0858 37.1611 49.1265 37.3857 49.1265C37.6689 49.1265 37.9212 49.0695 38.1426 48.9556C38.3639 48.8416 38.556 48.6805 38.7188 48.4722L39.3389 49.0728C39.2249 49.2388 39.0768 49.3983 38.8945 49.5513C38.7122 49.701 38.4893 49.8231 38.2256 49.9175C37.9652 50.0119 37.6624 50.0591 37.3174 50.0591Z" fill="#4C5058"/>
</svg>
