<svg width="54" height="56" viewBox="0 0 54 56" fill="none"
    xmlns="http://www.w3.org/2000/svg">

    <g clip-path="url(#clip0_5183_5688)">
        <path d="M36.75 16H18.57C18.3529 16.042 18.1291 16.0355 17.9148 15.9809C17.7005 15.9264 17.5009 15.8251 17.3303 15.6843C17.1597 15.5435 17.0224 15.3668 16.9281 15.1667C16.8338 14.9666 16.785 14.7482 16.785 14.527V14.4985L36 13.75V11.965C36.0313 11.6987 36.0017 11.4287 35.9134 11.1755C35.8251 10.9223 35.6805 10.6925 35.4904 10.5034C35.3002 10.3143 35.0696 10.1708 34.8159 10.0839C34.5623 9.99694 34.2922 9.96878 34.026 10.0015L16.965 12.775C16.3892 12.9876 15.8923 13.3713 15.541 13.8746C15.1897 14.378 15.0009 14.9767 15 15.5905V31.7485C15 32.3453 15.2371 32.9176 15.659 33.3395C16.081 33.7615 16.6533 33.9985 17.25 33.9985H36.75C37.3467 33.9985 37.919 33.7615 38.341 33.3395C38.7629 32.9176 39 32.3453 39 31.7485V18.2335L39.0015 18.172C39.0015 17.5952 38.7723 17.042 38.3645 16.6341C37.9566 16.2262 37.4033 15.997 36.8265 15.997L36.747 15.9985L36.75 16ZM34.5 26.5C33.9031 26.4998 33.3307 26.2625 32.9087 25.8403C32.4867 25.418 32.2498 24.8455 32.25 24.2485C32.2502 23.6516 32.4875 23.0792 32.9098 22.6572C33.332 22.2353 33.9046 21.9983 34.5015 21.9985C34.7971 21.9986 35.0897 22.0569 35.3628 22.1701C35.6358 22.2833 35.8839 22.4492 36.0928 22.6583C36.3017 22.8674 36.4674 23.1155 36.5805 23.3886C36.6935 23.6618 36.7516 23.9545 36.7515 24.25C36.7514 24.5456 36.6931 24.8383 36.5799 25.1113C36.4667 25.3843 36.3008 25.6324 36.0917 25.8413C35.8827 26.0503 35.6345 26.216 35.3614 26.329C35.0883 26.442 34.7956 26.5001 34.5 26.5Z" fill="#266DE0"/>
    </g>
    <path d="M15.5938 51.4033L17.0098 45.8906H17.752L17.6689 47.3115L16.1553 53H15.3838L15.5938 51.4033ZM14.5342 45.8906L15.6816 51.3594L15.7842 53H14.9639L13.3184 45.8906H14.5342ZM19.3584 51.3447L20.4912 45.8906H21.7119L20.0664 53H19.2461L19.3584 51.3447ZM18.04 45.8906L19.4414 51.418L19.6465 53H18.875L17.3857 47.3115L17.3076 45.8906H18.04ZM25.3154 51.9404V49.4209C25.3154 49.2321 25.2812 49.0693 25.2129 48.9326C25.1445 48.7959 25.0404 48.6901 24.9004 48.6152C24.7637 48.5404 24.5911 48.5029 24.3828 48.5029C24.1908 48.5029 24.0247 48.5355 23.8848 48.6006C23.7448 48.6657 23.6357 48.7536 23.5576 48.8643C23.4795 48.9749 23.4404 49.1003 23.4404 49.2402H22.2686C22.2686 49.0319 22.319 48.8301 22.4199 48.6348C22.5208 48.4395 22.6673 48.2653 22.8594 48.1123C23.0514 47.9593 23.2809 47.8389 23.5479 47.751C23.8148 47.6631 24.1143 47.6191 24.4463 47.6191C24.8434 47.6191 25.195 47.6859 25.501 47.8193C25.8102 47.9528 26.0527 48.1546 26.2285 48.4248C26.4076 48.6917 26.4971 49.027 26.4971 49.4307V51.7793C26.4971 52.0202 26.5133 52.2367 26.5459 52.4287C26.5817 52.6175 26.6322 52.7819 26.6973 52.9219V53H25.4912C25.4359 52.873 25.3919 52.7119 25.3594 52.5166C25.3301 52.318 25.3154 52.126 25.3154 51.9404ZM25.4863 49.7871L25.4961 50.5146H24.6514C24.4333 50.5146 24.2412 50.5358 24.0752 50.5781C23.9092 50.6172 23.7708 50.6758 23.6602 50.7539C23.5495 50.832 23.4665 50.9264 23.4111 51.0371C23.3558 51.1478 23.3281 51.2731 23.3281 51.4131C23.3281 51.5531 23.3607 51.6816 23.4258 51.7988C23.4909 51.9128 23.5853 52.0023 23.709 52.0674C23.8359 52.1325 23.9889 52.165 24.168 52.165C24.4089 52.165 24.6188 52.1162 24.7979 52.0186C24.9801 51.9176 25.1234 51.7956 25.2275 51.6523C25.3317 51.5059 25.387 51.3675 25.3936 51.2373L25.7744 51.7598C25.7354 51.8932 25.6686 52.0365 25.5742 52.1895C25.4798 52.3424 25.3561 52.4889 25.2031 52.6289C25.0534 52.7656 24.8727 52.8779 24.6611 52.9658C24.4528 53.0537 24.2119 53.0977 23.9385 53.0977C23.5934 53.0977 23.2858 53.0293 23.0156 52.8926C22.7454 52.7526 22.5339 52.5654 22.3809 52.3311C22.2279 52.0934 22.1514 51.8249 22.1514 51.5254C22.1514 51.2454 22.2035 50.998 22.3076 50.7832C22.415 50.5651 22.5713 50.3828 22.7764 50.2363C22.9847 50.0898 23.2386 49.9792 23.5381 49.9043C23.8376 49.8262 24.1794 49.7871 24.5635 49.7871H25.4863ZM28.9873 45.5V53H27.8057V45.5H28.9873ZM31.5361 45.5V53H30.3545V45.5H31.5361ZM35.1543 53.0977C34.7637 53.0977 34.4105 53.0342 34.0947 52.9072C33.7822 52.777 33.5153 52.5964 33.2939 52.3652C33.0758 52.1341 32.9082 51.8623 32.791 51.5498C32.6738 51.2373 32.6152 50.9004 32.6152 50.5391V50.3438C32.6152 49.9303 32.6755 49.556 32.7959 49.2207C32.9163 48.8854 33.084 48.599 33.2988 48.3613C33.5137 48.1204 33.7676 47.9365 34.0605 47.8096C34.3535 47.6826 34.6709 47.6191 35.0127 47.6191C35.3903 47.6191 35.7207 47.6826 36.0039 47.8096C36.2871 47.9365 36.5215 48.1156 36.707 48.3467C36.8958 48.5745 37.0358 48.8464 37.127 49.1621C37.2214 49.4779 37.2686 49.8262 37.2686 50.207V50.71H33.1865V49.8652H36.1064V49.7725C36.0999 49.5609 36.0576 49.3623 35.9795 49.1768C35.9046 48.9912 35.7891 48.8415 35.6328 48.7275C35.4766 48.6136 35.2682 48.5566 35.0078 48.5566C34.8125 48.5566 34.6383 48.599 34.4854 48.6836C34.3356 48.765 34.2103 48.8838 34.1094 49.04C34.0085 49.1963 33.9303 49.3851 33.875 49.6064C33.8229 49.8245 33.7969 50.0703 33.7969 50.3438V50.5391C33.7969 50.7702 33.8278 50.985 33.8896 51.1836C33.9548 51.3789 34.0492 51.5498 34.1729 51.6963C34.2965 51.8428 34.4463 51.9583 34.6221 52.043C34.7979 52.1243 34.998 52.165 35.2227 52.165C35.5059 52.165 35.7581 52.1081 35.9795 51.9941C36.2008 51.8802 36.3929 51.7191 36.5557 51.5107L37.1758 52.1113C37.0618 52.2773 36.9137 52.4368 36.7314 52.5898C36.5492 52.7396 36.3262 52.8617 36.0625 52.9561C35.8021 53.0505 35.4993 53.0977 35.1543 53.0977ZM40.6084 47.7168V48.5762H37.6299V47.7168H40.6084ZM38.4893 46.4229H39.666V51.54C39.666 51.7028 39.6888 51.8281 39.7344 51.916C39.7832 52.0007 39.8499 52.0576 39.9346 52.0869C40.0192 52.1162 40.1185 52.1309 40.2324 52.1309C40.3138 52.1309 40.3919 52.126 40.4668 52.1162C40.5417 52.1064 40.6019 52.0967 40.6475 52.0869L40.6523 52.9854C40.5547 53.0146 40.4408 53.0407 40.3105 53.0635C40.1836 53.0863 40.0371 53.0977 39.8711 53.0977C39.6009 53.0977 39.3617 53.0505 39.1533 52.9561C38.945 52.8584 38.7822 52.7005 38.665 52.4824C38.5479 52.2643 38.4893 51.9746 38.4893 51.6133V46.4229Z" fill="#266DE0"/>

</svg>
