<svg width="149" height="47" viewBox="0 0 149 47" fill="none" xmlns="http://www.w3.org/2000/svg">
<path d="M5.43913 0C2.56285 0 0.226562 2.45948 0.226562 5.48742V40.9179C0.226562 43.9342 2.56285 46.4053 5.43913 46.4053H143.71C146.575 46.4053 149 43.9342 149 40.9179V5.48742C149 2.45948 146.575 0 143.71 0H5.43913ZM31.3367 7.21602C31.524 8.96782 30.8628 10.6848 29.904 11.961C28.9012 13.2023 27.2922 14.1652 25.7274 14.0376C25.518 12.3554 26.3114 10.5572 27.2041 9.46668C28.2069 8.22533 29.9481 7.27403 31.3367 7.21602ZM77.4122 7.61046H78.5694V15.5806H77.4122V7.61046ZM96.3229 7.61046H97.425V14.1072C97.425 14.6409 97.5352 15.1397 97.5352 15.5806H96.4993V14.7105C96.1687 15.3717 95.6177 15.7082 94.8352 15.7082C94.2071 15.7082 93.6891 15.453 93.2703 14.9309C92.8626 14.4204 92.6532 13.7476 92.6532 12.9123C92.6532 12.0306 92.8736 11.3113 93.3254 10.766C93.7552 10.2556 94.2952 10.0003 94.9234 10.0003C95.6287 10.0003 96.1136 10.244 96.3891 10.7428L96.3229 7.61046ZM122.992 7.61046H124.094V10.9052H124.204C124.535 10.302 125.086 10.0003 125.747 10.0003C126.188 10.0003 126.629 10.1628 126.959 10.4992C127.29 10.9052 127.51 11.5201 127.51 12.3322V15.5806H126.298V12.4714C126.298 11.4969 125.967 10.998 125.306 10.998C124.755 10.998 124.425 11.2881 124.204 11.8565C124.204 11.9726 124.094 12.1234 124.094 12.2974V15.5806H122.992V7.61046ZM50.3466 7.9469C51.6139 7.9469 52.5616 8.23694 53.2008 8.8054C53.9171 9.46668 54.2808 10.3948 54.2808 11.6129C54.2808 12.9819 53.8951 14.0028 53.1126 14.6989C52.3963 15.3369 51.3714 15.6502 50.049 15.6502C49.3878 15.6502 48.8258 15.6502 48.3629 15.5342V8.07452C48.969 7.9585 49.6302 7.9237 50.3466 7.9237V7.9469ZM120.127 8.74739V10.1163H121.339V11.0213H120.127V13.678C120.127 14.3624 120.347 14.6989 120.788 14.6989C121.008 14.6989 121.118 14.6989 121.339 14.5829V15.4994C121.118 15.6154 120.788 15.6386 120.457 15.6386C120.016 15.6386 119.576 15.4878 119.355 15.1977C119.135 14.9077 119.025 14.4204 119.025 13.7244V11.0213H118.253V10.1163H119.025V9.11864L120.127 8.74739ZM50.4457 8.89821C50.0821 8.89821 49.7735 8.89821 49.509 9.01423V14.6873H50.2915C51.1731 14.6873 51.8563 14.4204 52.3412 13.91C52.8261 13.3879 53.0686 12.6338 53.0686 11.6477C53.0686 10.7544 52.8371 10.0815 52.3963 9.60589C51.9555 9.13024 51.3053 8.89821 50.4457 8.89821ZM131.588 9.98874C132.359 9.98874 132.91 10.2904 133.351 10.8704C133.682 11.3345 133.792 11.9146 133.792 12.5874V13.1443H130.265C130.265 13.678 130.486 14.0956 130.816 14.374C131.037 14.6293 131.477 14.7569 131.918 14.7569C132.469 14.7569 132.91 14.6409 133.351 14.5016L133.461 15.3485C133.02 15.569 132.469 15.685 131.808 15.685C130.926 15.685 130.375 15.4414 129.824 14.9425C129.384 14.4436 129.163 13.7708 129.163 12.9239C129.163 12.1002 129.384 11.4157 129.824 10.8704C130.265 10.2904 130.816 9.98874 131.588 9.98874ZM73.5772 9.98874C74.0621 9.98874 74.4588 10.1628 74.7784 10.4876C75.1861 10.8936 75.3845 11.4969 75.3845 12.2974V15.5806H74.2274V12.4482C74.2274 11.4737 73.8747 10.998 73.1805 10.998C72.8388 10.998 72.5633 11.1257 72.3429 11.3925C72.1336 11.6593 72.0233 11.9726 72.0233 12.3322V15.5806H70.8662V11.6709V10.1047H71.8801L71.9903 10.9632C72.1336 10.6964 72.3319 10.476 72.5964 10.302C72.905 10.0931 73.2576 9.98874 73.6433 9.98874H73.5772ZM111.751 9.98874C112.302 9.98874 112.633 10.1628 112.963 10.4876C113.404 10.8936 113.625 11.4969 113.625 12.2974V15.5806H112.412V12.4482C112.412 11.4737 112.082 10.998 111.421 10.998C111.09 10.998 110.759 11.1257 110.539 11.3925C110.319 11.6593 110.208 11.9726 110.208 12.3322V15.5806H109.106V11.6709C109.106 11.1953 109.106 10.6732 108.996 10.1047H110.098V10.9632C110.319 10.6964 110.539 10.476 110.759 10.302C111.09 10.0931 111.421 9.98874 111.751 9.98874ZM58.237 9.98874C58.9974 9.98874 59.6146 10.2556 60.0774 10.7892C60.5182 11.3113 60.7386 11.9726 60.7386 12.7963C60.7386 13.6315 60.5072 14.3276 60.0554 14.8613C59.5705 15.4182 58.9423 15.6966 58.1489 15.6966C57.3885 15.6966 56.7824 15.4298 56.3305 14.8961C55.8787 14.3624 55.6473 13.6896 55.6473 12.8891C55.6473 12.0422 55.8787 11.3461 56.3526 10.8008C56.8154 10.2672 57.4436 9.98874 58.237 9.98874ZM82.8672 9.98874C83.6276 9.98874 84.2338 10.2556 84.7076 10.7892C85.1484 11.3113 85.3688 11.9726 85.3688 12.7963C85.3688 13.6315 85.1374 14.3276 84.6856 14.8613C84.2007 15.4182 83.5725 15.6966 82.7791 15.6966C82.0187 15.6966 81.4126 15.4298 80.9608 14.8961C80.5089 14.3624 80.2775 13.6896 80.2775 12.8891C80.2775 12.0422 80.5089 11.3461 80.9828 10.8008C81.4456 10.2672 82.0738 9.98874 82.8672 9.98874ZM88.8402 9.98874C90.1957 9.98874 90.879 10.7428 90.879 12.251V14.2696C90.879 14.8149 90.879 15.2557 90.9892 15.569H89.9533L89.8431 14.9425C89.4904 15.4414 88.9835 15.6966 88.3223 15.6966C87.8374 15.6966 87.4407 15.5342 87.1431 15.1977C86.8676 14.9077 86.7354 14.5248 86.7354 14.084C86.7354 13.4227 86.9998 12.9123 87.5288 12.5526C88.0688 12.2046 88.8072 12.0306 89.7769 12.0422V11.9262C89.7769 11.2069 89.4133 10.8472 88.6969 10.8472C88.179 10.8472 87.7272 10.9864 87.3415 11.2533L87.099 10.4528C87.5839 10.1396 88.179 9.97713 88.8843 9.97713L88.8402 9.98874ZM104.919 9.98874C105.69 9.98874 106.241 10.2556 106.682 10.7892C107.123 11.3113 107.343 11.9726 107.343 12.7963C107.343 13.6315 107.123 14.3276 106.682 14.8613C106.241 15.4182 105.58 15.6966 104.809 15.6966C104.037 15.6966 103.486 15.4298 102.935 14.8961C102.494 14.3624 102.274 13.6896 102.274 12.8891C102.274 12.0422 102.494 11.3461 103.045 10.8008C103.486 10.2672 104.147 9.98874 104.919 9.98874ZM61.8737 10.1047H63.0529L63.637 12.7034C63.7802 13.3183 63.9014 13.91 64.0006 14.4552C64.1108 14.0028 64.221 13.4227 64.4194 12.715L65.1577 10.1047H66.1055L66.8108 12.657C66.9761 13.2835 67.1193 13.8868 67.2185 14.4668C67.3287 13.8984 67.4169 13.2951 67.5712 12.657L68.2104 10.1047H69.3454L67.7144 15.569H66.6565L65.9843 13.2023C65.8079 12.6106 65.6757 12.019 65.5655 11.4273C65.4553 12.0306 65.3231 12.6222 65.1467 13.2023L64.4304 15.569H63.3614L61.8737 10.1047ZM131.588 10.824C131.147 10.824 130.816 10.9864 130.596 11.3229C130.486 11.5781 130.375 11.903 130.265 12.2626H132.69C132.69 11.903 132.579 11.5897 132.469 11.3345C132.249 10.998 131.918 10.824 131.588 10.824ZM58.193 10.94C57.7301 10.94 57.3775 11.1605 57.135 11.5897C56.9256 11.9494 56.8265 12.3902 56.8265 12.9123C56.8265 13.4227 56.9367 13.852 57.135 14.2116C57.3885 14.6525 57.7301 14.8613 58.1819 14.8613C58.6227 14.8613 58.9754 14.6409 59.2178 14.2C59.4382 13.8288 59.5374 13.3995 59.5374 12.8891C59.5374 12.3902 59.4272 11.9494 59.2289 11.5897C58.9864 11.1605 58.6448 10.94 58.193 10.94ZM82.8232 10.94C82.3603 10.94 82.0077 11.1605 81.7652 11.5897C81.5558 11.9494 81.4567 12.3902 81.4567 12.9123C81.4567 13.4227 81.5669 13.852 81.7652 14.2116C82.0187 14.6525 82.3603 14.8613 82.8121 14.8613C83.253 14.8613 83.5946 14.6409 83.848 14.2C84.0574 13.8288 84.1676 13.3995 84.1676 12.8891C84.1676 12.3902 84.0574 11.9494 83.8591 11.5897C83.6166 11.1605 83.275 10.94 82.8232 10.94ZM104.809 10.94C104.368 10.94 104.037 11.1605 103.817 11.5897C103.596 11.9494 103.486 12.3902 103.486 12.9123C103.486 13.4227 103.596 13.852 103.817 14.2116C104.037 14.6525 104.368 14.8613 104.809 14.8613C105.249 14.8613 105.58 14.6409 105.911 14.2C106.131 13.8288 106.241 13.3995 106.241 12.8891C106.241 12.3902 106.131 11.9494 105.911 11.5897C105.69 11.1605 105.249 10.94 104.809 10.94ZM95.0997 11.0561C94.6699 11.0561 94.3283 11.2301 94.0858 11.5897C93.8324 11.9494 93.7112 12.4134 93.7112 12.9819C93.7112 13.5155 93.8324 13.9564 94.0638 14.2928C94.3173 14.6525 94.6589 14.8381 95.0777 14.8381C95.4523 14.8381 95.7609 14.6873 95.9923 14.3856C96.2127 14.1072 96.3229 13.7708 96.3229 13.3879V12.4714V12.0886C96.2127 11.7985 96.1136 11.5549 95.9042 11.3461C95.6908 11.1507 95.4154 11.0471 95.1328 11.0561H95.0997ZM89.7549 12.9703C88.4876 12.9703 87.8484 13.3067 87.8484 14.0724C87.8484 14.3508 87.9586 14.5713 88.0688 14.7105C88.2121 14.8497 88.4104 14.9193 88.6308 14.9193C88.8843 14.9193 89.1267 14.8033 89.3361 14.6757C89.5565 14.5016 89.6888 14.2812 89.7329 14.026V13.8056L89.7549 12.9703ZM30.5101 14.4668H31.3146C32.2293 14.4668 34.808 14.8497 36.4721 17.402C36.3398 17.518 33.3974 19.3046 33.4305 23.0402C33.4305 27.5299 37.1553 29.0033 37.1994 29.0265C37.1994 29.1425 36.6154 31.1611 35.2378 33.2262C34.0807 35.0476 32.8685 36.8226 30.951 36.8574C29.0775 36.8574 28.4494 35.6973 26.3114 35.6973C24.1515 35.6973 23.4792 36.8226 21.694 36.9038C19.8646 37.0198 18.465 34.9664 17.2638 33.1566C14.8724 29.479 13.01 22.7966 15.5116 18.2373C16.7238 16.0098 18.9279 14.5713 21.2862 14.5365C23.1156 14.5365 24.8127 15.8358 25.9478 15.8358C26.9065 15.8358 28.6367 14.6061 30.5101 14.4552V14.4668ZM93.3585 20.8824C94.692 20.8824 95.794 21.126 96.6866 21.6133L96.0915 23.6319C95.265 23.1562 94.3283 22.9242 93.2924 22.9242C92.4659 22.9242 91.8157 23.1446 91.3528 23.5623C90.9561 23.9451 90.7688 24.4092 90.7688 24.966C90.7688 25.5693 90.9892 26.0798 91.441 26.4742C91.8267 26.8454 92.543 27.2399 93.5679 27.6691C94.8352 28.2028 95.7609 28.8293 96.356 29.5486C96.9511 30.2562 97.2046 31.1495 97.2046 32.2169C97.2046 33.5278 96.8189 34.5951 95.9483 35.4304C94.9895 36.3237 93.6561 36.7762 91.9479 36.7762C90.372 36.7762 89.1047 36.4513 88.1459 35.8133L88.6969 33.7598C89.7218 34.4095 90.8569 34.7459 92.0912 34.7459C92.9728 34.7459 93.6671 34.5255 94.163 34.1079C94.6479 33.6902 94.9013 33.1218 94.9013 32.4257C94.9013 31.7992 94.692 31.2656 94.2842 30.8363C93.8875 30.4071 93.2042 30.0126 92.2675 29.653C89.6998 28.6437 88.4104 27.1587 88.4104 25.2213C88.4104 23.9451 88.8623 22.9126 89.7659 22.1005C90.6586 21.2884 91.8598 20.8824 93.3585 20.8824ZM51.68 21.1144H54.6004L59.3391 36.5442H56.8375L55.471 32.0196H50.7102L49.3988 36.5442H46.9633L51.68 21.1144ZM102.384 22.6458V25.4185H105.029V27.2747H102.384V32.6809C102.384 34.0499 102.935 34.7343 103.817 34.7343C104.258 34.7343 104.588 34.7343 104.809 34.6183L104.919 36.4977C104.478 36.6718 103.817 36.7646 103.045 36.7646C102.164 36.7646 101.392 36.4629 100.951 35.8713C100.4 35.2796 100.07 34.2819 100.07 32.8665V27.2631H98.527V25.4069H100.07V23.3651L102.384 22.6458ZM53.0355 23.1678C52.8922 23.8291 52.6608 24.8036 52.3412 26.0798L51.118 30.117H55.0632L53.8179 26.0798C53.6857 25.6737 53.4432 24.6992 53.0796 23.1678H53.0355ZM130.486 25.1633C132.028 25.1633 133.131 25.7665 133.902 26.9499C134.563 27.9012 134.894 29.0729 134.894 30.4535C134.894 30.8943 134.784 31.2772 134.784 31.5788H127.731C127.731 32.6809 128.061 33.5162 128.722 34.0963C129.273 34.6183 130.045 34.8736 131.037 34.8736C132.028 34.8736 133.02 34.6995 133.902 34.3515L134.233 36.0685C133.241 36.5326 132.028 36.753 130.706 36.753C129.053 36.753 127.731 36.2425 126.849 35.2332C125.857 34.2123 125.416 32.8549 125.416 31.1495C125.416 29.4673 125.857 28.0636 126.739 26.9499C127.62 25.7665 128.943 25.1633 130.486 25.1633ZM67.1083 25.1633C68.3646 25.1633 69.4005 25.6853 70.2381 26.7178C71.0646 27.762 71.4834 29.1309 71.4834 30.8247C71.4834 32.7157 70.9985 34.2123 70.0287 35.3144C69.1581 36.2889 68.0781 36.7762 66.7887 36.7762C65.3892 36.7762 64.3863 36.2541 63.7802 35.1984V41.0571H61.3888V29.0845C61.3888 27.8896 61.3888 26.6714 61.2786 25.4185H63.3504L63.4716 27.1819C64.2541 25.8477 65.4443 25.1865 67.0312 25.1865L67.1083 25.1633ZM79.2747 25.1633C80.5199 25.1633 81.5669 25.6853 82.3934 26.7178C83.2309 27.762 83.6497 29.1309 83.6497 30.8247C83.6497 32.7157 83.1648 34.2123 82.184 35.3144C81.3244 36.2889 80.2334 36.7762 78.944 36.7762C77.5555 36.7762 76.5527 36.2541 75.9465 35.1984V41.0571H73.5552V29.0845C73.5552 27.8896 73.5552 26.6714 73.445 25.4185H75.5057L75.638 27.1819C76.4204 25.8477 77.6106 25.1865 79.2085 25.1865L79.2747 25.1633ZM123.763 25.1633H124.314V27.5183C124.094 27.5183 123.874 27.4023 123.653 27.4023C122.771 27.4023 122.11 27.7388 121.669 28.3884C121.339 28.9685 121.118 29.711 121.118 30.5927V36.4281H118.694L118.804 28.8061C118.804 27.5183 118.694 26.3582 118.694 25.3025H120.678L120.788 27.4255H120.898C121.118 26.6946 121.559 26.1146 122.11 25.6621C122.551 25.2677 123.102 25.0704 123.763 25.0704V25.1633ZM111.641 25.1633C113.184 25.1633 114.396 25.7085 115.388 26.7874C116.27 27.8432 116.71 29.2005 116.71 30.8711C116.71 32.5765 116.27 33.9803 115.278 35.0824C114.286 36.2077 113.074 36.7762 111.421 36.7762C109.878 36.7762 108.666 36.2309 107.674 35.152C106.792 34.0615 106.351 32.6925 106.351 31.0451C106.351 29.3281 106.792 27.9128 107.784 26.8106C108.666 25.7085 109.988 25.1633 111.641 25.1633ZM130.265 26.8571C129.494 26.8571 128.833 27.1935 128.392 27.8664C128.061 28.4 127.731 29.0381 127.731 29.7922H132.579C132.579 29.0497 132.469 28.4232 132.139 27.8896C131.698 27.2051 131.147 26.8571 130.265 26.8571ZM111.531 26.9731C110.539 26.9731 109.878 27.4139 109.327 28.3072C108.996 29.0381 108.776 29.9314 108.776 30.9871C108.776 32.0196 108.996 32.9013 109.327 33.6322C109.878 34.5255 110.539 34.9664 111.531 34.9664C112.412 34.9664 113.074 34.5139 113.625 33.609C114.066 32.8665 114.286 31.9732 114.286 30.9407C114.286 29.9198 114.066 29.0381 113.625 28.3072C113.184 27.4139 112.412 26.9731 111.531 26.9731ZM66.3479 27.1355C65.7749 27.1355 65.2459 27.3327 64.772 27.7388C64.2982 28.1448 63.9896 28.6785 63.8463 29.3281C63.7361 29.6414 63.7361 29.885 63.7361 30.0822V31.9384C63.7361 32.7505 63.9786 33.435 64.4414 33.9919C64.9153 34.5487 65.5324 34.8272 66.2818 34.8272C67.1744 34.8272 67.8577 34.4675 68.3536 33.7482C68.8495 33.029 69.092 32.0892 69.092 30.9059C69.092 29.827 68.8605 28.9337 68.3977 28.226C67.8908 27.5183 67.2075 27.1587 66.3479 27.1587V27.1355ZM78.5143 27.1355C77.9302 27.1355 77.4122 27.3327 76.9384 27.7388C76.4645 28.1448 76.1559 28.6785 76.0127 29.3281C75.9025 29.6414 75.9025 29.885 75.9025 30.0822V31.9384C75.9025 32.7505 76.1339 33.435 76.6078 33.9919C77.0816 34.5487 77.6877 34.8272 78.4481 34.8272C79.3298 34.8272 80.024 34.4675 80.5199 33.7482C81.0048 33.029 81.2583 32.0892 81.2583 30.9059C81.2583 29.827 81.0269 28.9337 80.553 28.226C80.0461 27.4951 79.3738 27.1355 78.5143 27.1355Z" fill="black"/>
</svg>
