<svg width="92" height="92" viewBox="0 0 92 92" fill="none" xmlns="http://www.w3.org/2000/svg">
<g clip-path="url(#clip0_1600_6430)">
<path d="M46.0019 92.0037C71.408 92.0037 92.0037 71.408 92.0037 46.0019C92.0037 20.5957 71.408 0 46.0019 0C20.5957 0 0 20.5957 0 46.0019C0 71.408 20.5957 92.0037 46.0019 92.0037Z" fill="#616161"/>
<path d="M46.0019 75.2747C29.8326 75.2747 16.729 62.1711 16.729 46.0019C16.729 29.8326 29.8326 16.729 46.0019 16.729C54.0828 16.729 61.4001 20.0058 66.7008 25.3029L78.5294 13.4744C70.2038 5.1488 58.7015 0 46.0019 0C20.5952 0 0 20.5952 0 46.0019C0 71.4085 20.5952 92.0037 46.0019 92.0037C58.7052 92.0037 70.2038 86.8549 78.5331 78.5331L66.7045 66.7045C61.4001 71.9979 54.0828 75.2747 46.0019 75.2747Z" fill="#9E9E9E"/>
<path d="M75.2747 46.0016H60.6364C60.6364 37.9207 54.0827 31.3633 45.9981 31.3633C37.9135 31.3633 31.3635 37.917 31.3635 46.0016C31.3635 49.9382 32.9204 53.5079 35.4522 56.1435L35.441 56.1546L53.5638 74.2773L53.5675 74.2811C66.0669 70.9449 75.2747 59.5501 75.2747 46.0016Z" fill="#424242"/>
<path d="M91.9999 46.002H75.2709C75.2709 59.5504 66.0594 70.9453 53.5674 74.2814L66.4857 87.1997C81.6096 79.6637 91.9999 64.0468 91.9999 46.002Z" fill="#616161"/>
<path d="M46.0019 91.4769C20.6842 91.4769 0.148274 71.0226 0.00370685 45.7383C0.00370685 45.8272 0 45.9125 0 46.0015C0 71.4081 20.5952 92.0033 46.0019 92.0033C71.4085 92.0033 92.0037 71.4081 92.0037 46.0015C92.0037 45.9125 92 45.8272 92 45.7383C91.8554 71.0226 71.3158 91.4769 46.0019 91.4769Z" fill="#212121" fill-opacity="0.1"/>
<path d="M53.5713 74.2814L53.979 74.6892C66.2635 71.2196 75.2748 59.9285 75.2748 46.5246V46.002C75.2748 59.5504 66.0633 70.9453 53.5713 74.2814Z" fill="white" fill-opacity="0.05"/>
<path d="M83.6389 41.8193H45.9997C43.6903 41.8193 41.8184 43.6913 41.8184 46.0006C41.8184 48.31 43.6903 50.182 45.9997 50.182H83.6352C85.9446 50.182 87.8165 48.31 87.8165 46.0006C87.8202 43.6913 85.9483 41.8193 83.6389 41.8193Z" fill="#9E9E9E"/>
<path opacity="0.5" d="M83.6389 41.8193H45.9997C43.6903 41.8193 41.8184 43.6913 41.8184 46.0006C41.8184 48.31 43.6903 50.182 45.9997 50.182H83.6352C85.9446 50.182 87.8165 48.31 87.8165 46.0006C87.8202 43.6913 85.9483 41.8193 83.6389 41.8193Z" fill="#BDBDBD"/>
<path d="M8.36255 49.1382C10.0945 49.1382 11.4985 47.7342 11.4985 46.0022C11.4985 44.2702 10.0945 42.8662 8.36255 42.8662C6.63059 42.8662 5.22656 44.2702 5.22656 46.0022C5.22656 47.7342 6.63059 49.1382 8.36255 49.1382Z" fill="#BDBDBD"/>
<path d="M46.0017 11.4985C47.7337 11.4985 49.1377 10.0945 49.1377 8.36255C49.1377 6.63059 47.7337 5.22656 46.0017 5.22656C44.2697 5.22656 42.8657 6.63059 42.8657 8.36255C42.8657 10.0945 44.2697 11.4985 46.0017 11.4985Z" fill="#BDBDBD"/>
<path d="M46.0017 86.7729C47.7337 86.7729 49.1377 85.3689 49.1377 83.637C49.1377 81.905 47.7337 80.501 46.0017 80.501C44.2697 80.501 42.8657 81.905 42.8657 83.637C42.8657 85.3689 44.2697 86.7729 46.0017 86.7729Z" fill="#BDBDBD"/>
<path d="M19.3423 22.5229C21.0742 22.5229 22.4783 21.1189 22.4783 19.387C22.4783 17.655 21.0742 16.251 19.3423 16.251C17.6103 16.251 16.2063 17.655 16.2063 19.387C16.2063 21.1189 17.6103 22.5229 19.3423 22.5229Z" fill="#BDBDBD"/>
<path d="M19.3423 75.7974C21.0742 75.7974 22.4783 74.3933 22.4783 72.6614C22.4783 70.9294 21.0742 69.5254 19.3423 69.5254C17.6103 69.5254 16.2063 70.9294 16.2063 72.6614C16.2063 74.3933 17.6103 75.7974 19.3423 75.7974Z" fill="#BDBDBD"/>
<path d="M72.6614 75.7974C74.3933 75.7974 75.7974 74.3933 75.7974 72.6614C75.7974 70.9294 74.3933 69.5254 72.6614 69.5254C70.9294 69.5254 69.5254 70.9294 69.5254 72.6614C69.5254 74.3933 70.9294 75.7974 72.6614 75.7974Z" fill="#757575"/>
<path d="M46.0019 42.343H83.6374C85.8578 42.343 87.6741 44.0778 87.8039 46.2648C87.8076 46.1758 87.8187 46.0906 87.8187 46.0016C87.8187 43.6923 85.9468 41.8203 83.6374 41.8203H46.0019C43.6925 41.8203 41.8206 43.6923 41.8206 46.0016C41.8206 46.0906 41.8243 46.1758 41.8354 46.2648C41.9651 44.0778 43.7778 42.343 46.0019 42.343Z" fill="white" fill-opacity="0.2"/>
<path d="M87.8039 46.2617C87.6667 48.445 85.8541 50.1836 83.6374 50.1836H46.0019C43.7815 50.1836 41.9651 48.4488 41.8354 46.2617C41.8243 46.3507 41.8206 46.4359 41.8206 46.5212C41.8206 48.8306 43.6925 50.7025 46.0019 50.7025H83.6374C85.9468 50.7025 87.8187 48.8306 87.8187 46.5212C87.8187 46.4359 87.815 46.3507 87.8039 46.2617Z" fill="#212121" fill-opacity="0.2"/>
<path d="M46.0019 17.2517C54.0828 17.2517 61.4001 20.5285 66.7009 25.8256L78.7852 13.7339C78.6962 13.6449 78.611 13.556 78.5257 13.4707L66.7009 25.2992C61.4001 20.0022 54.0828 16.7253 46.0019 16.7253C29.8327 16.7253 16.729 29.829 16.729 45.9982C16.729 46.0872 16.7327 46.1724 16.7327 46.2614C16.8736 30.2145 29.9216 17.2517 46.0019 17.2517Z" fill="#212121" fill-opacity="0.1"/>
<path d="M46.0019 92.0037C71.408 92.0037 92.0037 71.408 92.0037 46.0019C92.0037 20.5957 71.408 0 46.0019 0C20.5957 0 0 20.5957 0 46.0019C0 71.408 20.5957 92.0037 46.0019 92.0037Z" fill="url(#paint0_radial_1600_6430)"/>
</g>
<defs>
<radialGradient id="paint0_radial_1600_6430" cx="0" cy="0" r="1" gradientUnits="userSpaceOnUse" gradientTransform="translate(13.4903 13.3856) scale(91.8448)">
<stop stop-color="white" stop-opacity="0.1"/>
<stop offset="1" stop-color="white" stop-opacity="0"/>
</radialGradient>
<clipPath id="clip0_1600_6430">
<rect width="92" height="92" fill="white"/>
</clipPath>
</defs>
</svg>
