<svg width="163" height="43" viewBox="0 0 163 43" fill="none" xmlns="http://www.w3.org/2000/svg">
<g clip-path="url(#clip0_2496_103269)">
<path d="M27.2201 12.7485C27.172 12.6087 27.1178 12.4764 27.0547 12.3516C27.1389 12.4929 27.193 12.6267 27.2201 12.7485Z" fill="white"/>
<path d="M67.288 17.0284C66.8474 15.3099 65.7379 14.0529 63.5578 14.0529C60.3523 14.0529 59.0112 16.881 59.0112 19.7527C59.0112 22.6244 60.3523 25.4524 63.5578 25.4524C65.8837 25.4524 67.1617 23.7129 67.3707 21.5343H69.9266C69.7176 25.1172 67.1812 27.5904 63.5563 27.5904C59.0729 27.5904 56.3906 24.0286 56.3906 19.7542C56.3906 15.4798 59.0729 11.918 63.5563 11.918C66.9301 11.939 69.5913 13.8034 69.9056 17.0299H67.288V17.0284Z" fill="white"/>
<path d="M71.4766 21.8052C71.4766 18.4945 73.4672 16.1055 76.9448 16.1055C80.4224 16.1055 82.413 18.4945 82.413 21.8052C82.413 25.137 80.4224 27.526 76.9448 27.526C73.4672 27.526 71.4766 25.137 71.4766 21.8052ZM80.0254 21.8052C80.0254 19.9409 79.0828 17.9924 76.9448 17.9924C74.8068 17.9924 73.8641 19.9409 73.8641 21.8052C73.8641 23.6906 74.8068 25.6391 76.9448 25.6391C79.0828 25.6406 80.0254 23.6906 80.0254 21.8052Z" fill="white"/>
<path d="M84.4688 12.2715H86.8578V14.5342H84.4688V12.2715ZM84.4688 16.4001H86.8578V27.2328H84.4688V16.4001Z" fill="white"/>
<path d="M89.4609 16.3987H91.7237V17.9909L91.7658 18.033C92.4785 16.8392 93.7143 16.1055 95.1396 16.1055C97.4866 16.1055 98.9736 17.3624 98.9736 19.7935V27.2313H96.5845V20.422C96.5424 18.7246 95.8718 17.9909 94.4676 17.9909C92.8754 17.9909 91.8485 19.2478 91.8485 20.84V27.2313H89.4609V16.3987Z" fill="white"/>
<path d="M114.878 27.2321H113.201L112.803 25.4715C111.399 27.0637 110.121 27.5885 108.298 27.5885C103.815 27.5885 101.133 24.0267 101.133 19.7522C101.133 15.4778 103.815 11.916 108.298 11.916C111.567 11.916 114.312 13.6556 114.711 17.0279H112.155C111.904 15.0583 110.185 14.0525 108.3 14.0525C105.095 14.0525 103.753 16.8806 103.753 19.7522C103.753 22.6239 105.095 25.452 108.3 25.452C110.982 25.4941 112.448 23.8808 112.49 21.3444H108.509V19.3538H114.879V27.2321H114.878Z" fill="white"/>
<path d="M119.256 22.4332C119.256 24.1307 120.178 25.6387 122.169 25.6387C123.552 25.6387 124.389 25.0313 124.809 23.836H127.071C126.548 26.204 124.537 27.5241 122.169 27.5241C118.774 27.5241 116.867 25.1561 116.867 21.8243C116.867 18.7437 118.879 16.1035 122.105 16.1035C125.521 16.1035 127.616 19.1842 127.217 22.4317H119.256V22.4332ZM124.83 20.8621C124.746 19.3541 123.719 17.9919 122.105 17.9919C120.45 17.9919 119.318 19.2488 119.256 20.8621H124.83Z" fill="white"/>
<path d="M136.352 20.0236C136.164 18.7035 135.199 17.9909 133.88 17.9909C132.644 17.9909 130.905 18.6404 130.905 21.93C130.905 23.7327 131.702 25.6391 133.775 25.6391C135.158 25.6391 136.122 24.7175 136.352 23.1659H138.741C138.3 25.9744 136.562 27.5245 133.775 27.5245C130.38 27.5245 128.516 25.1144 128.516 21.93C128.516 18.6614 130.297 16.1055 133.859 16.1055C136.373 16.1055 138.511 17.3624 138.741 20.0236H136.352Z" fill="white"/>
<path d="M140.75 12.2715H143.139V20.7783L147.456 16.3986H150.389L146.241 20.3798L150.787 27.2313H147.875L144.564 21.972L143.139 23.3553V27.2313H140.75V12.2715Z" fill="white"/>
<path d="M151.438 21.8052C151.438 18.4945 153.428 16.1055 156.907 16.1055C160.385 16.1055 162.375 18.4945 162.375 21.8052C162.375 25.137 160.385 27.526 156.907 27.526C153.428 27.526 151.438 25.137 151.438 21.8052ZM159.986 21.8052C159.986 19.9409 159.044 17.9924 156.906 17.9924C154.768 17.9924 153.825 19.9409 153.825 21.8052C153.825 23.6906 154.768 25.6391 156.906 25.6391C159.044 25.6406 159.986 23.6906 159.986 21.8052Z" fill="white"/>
<path d="M21.4777 -0.0740038C9.56245 -0.0198779 -0.0524074 9.68068 0.000214976 21.5974C0.0543409 33.5126 9.75791 43.1275 21.6716 43.0748C33.5868 43.0207 43.2017 33.3186 43.1491 21.4049C43.0949 9.48823 33.3929 -0.126626 21.4777 -0.0740038ZM18.7458 20.4412C16.6154 20.4412 14.8878 18.7152 14.8878 16.5847C14.8878 14.4558 16.6154 12.7283 18.7458 12.7283C20.8748 12.7283 22.6023 14.4558 22.6023 16.5847C22.6038 18.7152 20.8763 20.4412 18.7458 20.4412ZM21.822 24.6119L21.8415 24.5878L21.8626 24.5638C22.9631 25.2734 24.22 25.5245 25.4755 25.5606C26.7324 25.5937 28.0134 25.499 29.2733 25.2449C30.5317 24.9833 31.7691 24.5969 32.9644 24.1037C33.6349 23.8271 34.3025 23.5249 34.9385 23.1701C34.943 23.167 34.946 23.1655 34.9505 23.1625C35.3459 22.925 35.7323 22.6739 36.1127 22.4153C36.1954 22.3567 36.2751 22.295 36.3533 22.2319L36.3623 22.2424L36.3954 22.2815C35.4256 23.164 34.2709 23.8196 33.0952 24.3984C31.9074 24.9577 30.6685 25.4163 29.3891 25.747C28.1141 26.0763 26.7835 26.3259 25.4364 26.2026C24.1118 26.0838 22.715 25.6192 21.822 24.6119ZM31.721 20.4412C31.7195 19.9781 32.0923 19.6053 32.5524 19.6007C33.0155 19.5992 33.3884 19.9706 33.3929 20.4322C33.3944 20.8938 33.0215 21.2711 32.5614 21.2726C32.0999 21.2756 31.724 20.9028 31.721 20.4412ZM25.1131 41.1338C24.2802 35.2957 29.3785 29.578 32.2532 26.6521C32.9057 25.9891 33.9146 25.075 34.8528 24.1037C38.5844 20.6141 39.3272 16.4449 31.6894 14.3611C30.2415 13.9416 28.7411 13.3477 27.221 12.7478C27.1729 12.608 27.1188 12.4757 27.0556 12.3509C26.8812 12.0502 26.576 11.7044 26.1144 11.312C25.1221 10.4505 23.2563 10.473 21.6461 10.8549C19.8659 10.4354 18.1098 10.2866 16.4214 10.691C9.03623 12.7253 7.84847 16.3276 7.5613 20.6682C7.17039 25.3591 6.94186 28.8548 5.16623 32.8481C2.95008 29.6516 1.64354 25.7741 1.62549 21.5899C1.57588 10.5723 10.4676 1.60089 21.4852 1.55128C32.5028 1.50166 41.4742 10.3918 41.5238 21.4095C41.5689 31.2498 34.4769 39.4604 25.1131 41.1338Z" fill="white"/>
<path d="M21.4574 16.6205C21.4574 18.1195 20.2425 19.3328 18.7451 19.3328C17.2461 19.3328 16.0312 18.1195 16.0312 16.6205C16.0312 15.1215 17.2461 13.9082 18.7451 13.9082C20.2425 13.9067 21.4574 15.1215 21.4574 16.6205Z" fill="white"/>
</g>
<defs>
<clipPath id="clip0_2496_103269">
<rect width="162.378" height="43" fill="white"/>
</clipPath>
</defs>
</svg>
