<svg width="82" height="30" viewBox="0 0 82 30" fill="none" xmlns="http://www.w3.org/2000/svg">
<path d="M17.9379 30C17.4198 30 16.9078 29.8668 16.4477 29.6073C15.0196 28.802 14.529 27.0124 15.3535 25.6175C16.178 24.2226 18.0112 23.7433 19.4382 24.5487C19.4932 24.5795 19.5461 24.6123 19.5991 24.6461C20.733 24.1052 21.762 23.3874 22.6588 22.5105C24.3556 20.8531 25.4813 18.6967 25.858 16.4H20.3268C19.427 17.5732 17.7618 17.9182 16.4416 17.1735C15.7495 16.7838 15.2548 16.1534 15.0481 15.3998C14.8415 14.6462 14.9474 13.8588 15.3464 13.1837C15.7454 12.5076 16.3907 12.0244 17.1623 11.8226C17.9338 11.6208 18.74 11.7242 19.4311 12.1149C19.7792 12.3108 20.0856 12.5762 20.3258 12.8884H25.8549C25.4793 10.5888 24.3546 8.43131 22.6588 6.77493C20.1436 4.3182 16.7113 3.16988 13.1976 3.59739V6.9688C14.3987 7.8477 14.7519 9.47425 13.9895 10.7638C13.1651 12.1587 11.3329 12.6379 9.90482 11.8325C9.21266 11.4428 8.71798 10.8125 8.51135 10.0589C8.30472 9.30523 8.41058 8.51781 8.8106 7.84273C9.01214 7.5027 9.2829 7.20344 9.60251 6.9688V0.832456L9.86614 0.746953C12.4963 -0.108079 15.3189 -0.231364 18.0285 0.389032C20.7503 1.0134 23.2318 2.36058 25.2035 4.28738C28.0342 7.05133 29.5925 10.728 29.5925 14.6412C29.5925 18.5545 28.0342 22.2311 25.2045 24.9961C23.9199 26.2508 22.4338 27.2559 20.7859 27.9857C20.7218 28.1776 20.6363 28.3635 20.5324 28.5405C20.1334 29.2165 19.4881 29.6997 18.7166 29.9016C18.459 29.9662 18.1974 30 17.9379 30ZM17.946 24.9076C17.1775 24.9076 16.4294 25.2963 16.0182 25.9923C15.4054 27.0283 15.7708 28.3585 16.8315 28.9561C17.3455 29.2464 17.944 29.3229 18.5171 29.1728C19.0901 29.0227 19.5695 28.6638 19.8657 28.1617C19.9675 27.9897 20.0439 27.8067 20.0937 27.6168L20.1406 27.4399L20.3116 27.3663C21.9381 26.6693 23.4008 25.692 24.6599 24.4622C27.3451 21.8394 28.823 18.3517 28.823 14.6382C28.823 10.9258 27.3441 7.43708 24.6589 4.81532C20.9498 1.19237 15.3698 -0.143871 10.371 1.37331V7.3655L10.1949 7.47685C9.89668 7.66476 9.65442 7.91332 9.47629 8.21556C9.17907 8.71764 9.1007 9.30225 9.2544 9.86199C9.4081 10.4217 9.77555 10.89 10.2896 11.1793C11.3502 11.7779 12.7121 11.4209 13.3239 10.385C13.9173 9.38179 13.6007 8.10421 12.6052 7.47685L12.4291 7.3655V2.94319L12.7559 2.89448C16.5699 2.32578 20.4754 3.57552 23.2033 6.23904C25.1241 8.11415 26.3577 10.5918 26.6794 13.2145L26.7313 13.6351H19.9176L19.8036 13.4631C19.6113 13.1718 19.3578 12.9361 19.0484 12.7612C18.5344 12.4708 17.9358 12.3943 17.3628 12.5444C16.7897 12.6945 16.3103 13.0535 16.0141 13.5555C15.7179 14.0576 15.6385 14.6422 15.7922 15.202C15.9459 15.7617 16.3134 16.23 16.8274 16.5193C17.8544 17.0989 19.1624 16.7897 19.8047 15.8174L19.9187 15.6454H26.7354L26.6835 16.066C26.3608 18.6857 25.1251 21.1623 23.2044 23.0384C22.1906 24.0297 21.019 24.83 19.7222 25.4186L19.5085 25.5161L19.3232 25.3739C19.2387 25.3093 19.1492 25.2496 19.0555 25.1969C18.7033 25.001 18.3226 24.9076 17.946 24.9076Z" fill="white"/>
<path d="M4.27533 4.85533C-1.42579 10.424 -1.42477 19.4645 4.27634 25.0321C6.52076 27.2244 9.49499 28.7058 12.8153 29.1005L12.8143 15.6456H13.4219C13.4596 15.6456 13.4952 15.6248 13.5125 15.592C13.5207 15.578 13.5237 15.5621 13.5237 15.5452C13.5237 15.5253 13.5176 15.5055 13.5054 15.4886L11.4544 12.5834C11.4351 12.5556 11.4035 12.5397 11.3699 12.5397C11.3363 12.5397 11.3048 12.5556 11.2854 12.5834L9.23441 15.4886C9.21304 15.5194 9.20998 15.5591 9.2283 15.592C9.24662 15.6258 9.28123 15.6456 9.31991 15.6456H9.94794L9.98866 25.5302C8.59315 24.9476 7.33506 24.1095 6.27749 23.0755C1.67364 18.5786 1.67568 11.3039 6.2785 6.80799C6.55944 6.53358 6.85462 6.27409 7.16202 6.02752V2.66406C6.10648 3.27551 5.13645 4.01322 4.27533 4.85533Z" fill="white"/>
<path d="M38.0373 9.44265H37.4357V9.20603C37.1863 9.38698 36.9095 9.47546 36.6031 9.47546C36.2061 9.47546 35.8692 9.33528 35.5893 9.05391C35.3094 8.77652 35.1699 8.44445 35.1699 8.05273C35.1699 7.661 35.3094 7.32496 35.5893 7.04757C35.8692 6.77018 36.2061 6.62999 36.6031 6.62999C36.9095 6.62999 37.1853 6.71848 37.4357 6.89645V5.74414H38.0373V9.44265ZM36.6031 8.88887C36.8301 8.88887 37.0265 8.80734 37.1894 8.64528C37.3522 8.48223 37.4316 8.28736 37.4316 8.05372C37.4316 7.82008 37.3522 7.62521 37.1894 7.46216C37.0265 7.29911 36.8301 7.21857 36.6031 7.21857C36.372 7.21857 36.1756 7.3001 36.0127 7.46216C35.8539 7.62521 35.7705 7.82406 35.7705 8.05372C35.7705 8.28339 35.8499 8.47826 36.0127 8.64528C36.1756 8.80734 36.3731 8.88887 36.6031 8.88887Z" fill="white"/>
<path d="M39.1349 5.81121C39.195 5.87385 39.2296 5.94742 39.2296 6.0369C39.2296 6.12539 39.199 6.19995 39.1349 6.26259C39.0748 6.32523 38.9944 6.35505 38.9038 6.35505C38.8133 6.35505 38.7369 6.32523 38.6728 6.26259C38.6087 6.19995 38.5781 6.12539 38.5781 6.0369C38.5781 5.94842 38.6087 5.87385 38.6728 5.81121C38.7369 5.74858 38.8133 5.71875 38.9038 5.71875C38.9995 5.71875 39.0748 5.74858 39.1349 5.81121ZM38.6097 9.43914H39.196V6.64934H38.6097V9.43914Z" fill="white"/>
<path d="M40.2828 9.31825C40.3469 9.45445 40.4416 9.56581 40.5668 9.65429C40.7103 9.75073 40.8538 9.80243 40.9902 9.80243C41.1755 9.80243 41.3384 9.72488 41.4778 9.56978C41.603 9.4296 41.6743 9.25163 41.6895 9.04185C41.4697 9.18204 41.2315 9.2566 40.9709 9.2566C40.6045 9.2566 40.294 9.12735 40.0324 8.87283C39.7749 8.61433 39.6426 8.30414 39.6426 7.94224C39.6426 7.58034 39.7708 7.27015 40.0324 7.01463C40.293 6.76011 40.6035 6.63086 40.9709 6.63086C41.2315 6.63086 41.4737 6.70145 41.6936 6.84561V6.65373H42.2952V8.99612C42.288 9.3948 42.1547 9.72787 41.8982 9.99332C41.6407 10.2598 41.3384 10.392 40.9902 10.392C40.7297 10.392 40.4721 10.3075 40.2228 10.1405C39.9917 9.98537 39.8258 9.78255 39.7159 9.53499L40.2828 9.31825ZM40.9709 8.66802C41.1714 8.66802 41.3414 8.59743 41.4849 8.45327C41.6244 8.30911 41.6966 8.1391 41.6966 7.93627C41.6966 7.73644 41.6244 7.56344 41.4849 7.42226C41.3445 7.28208 41.1714 7.20751 40.9709 7.20751C40.7704 7.20751 40.6004 7.2781 40.4569 7.42226C40.3164 7.56245 40.2452 7.73644 40.2452 7.93627C40.2452 8.13611 40.3174 8.30911 40.4569 8.45029C40.6004 8.59346 40.7704 8.66802 40.9709 8.66802Z" fill="white"/>
<path d="M43.3966 5.81121C43.4567 5.87385 43.4913 5.94742 43.4913 6.0369C43.4913 6.12539 43.4607 6.19995 43.3966 6.26259C43.3366 6.32523 43.2562 6.35505 43.1656 6.35505C43.075 6.35505 42.9986 6.32523 42.9345 6.26259C42.8704 6.19995 42.8398 6.12539 42.8398 6.0369C42.8398 5.94842 42.8704 5.87385 42.9345 5.81121C42.9986 5.74858 43.075 5.71875 43.1656 5.71875C43.2562 5.71875 43.3315 5.74858 43.3966 5.81121ZM42.8704 9.43914H43.4567V6.64934H42.8704V9.43914Z" fill="white"/>
<path d="M44.851 6.65084H45.2368V7.22351H44.851V9.43665H44.2606V7.22351H43.8789V6.65084H44.2606V5.74609H44.8469V6.65084H44.851Z" fill="white"/>
<path d="M48.3713 9.43968H47.7697V9.19908C47.5203 9.37605 47.2435 9.46851 46.9371 9.46851C46.5401 9.46851 46.2032 9.32833 45.9233 9.05094C45.6434 8.77355 45.5039 8.4375 45.5039 8.04578C45.5039 7.65406 45.6444 7.31801 45.9233 7.04062C46.2032 6.76323 46.5401 6.62305 46.9371 6.62305C47.2435 6.62305 47.5193 6.71153 47.7697 6.8895V6.65287H48.3713V9.43968ZM46.9381 8.87795C47.1651 8.87795 47.3615 8.79642 47.5244 8.63436C47.6872 8.47131 47.7666 8.27246 47.7666 8.0428C47.7666 7.81015 47.6872 7.61429 47.5244 7.45124C47.3615 7.28818 47.1651 7.20765 46.9381 7.20765C46.707 7.20765 46.5106 7.28918 46.3477 7.45124C46.1889 7.61429 46.1055 7.81313 46.1055 8.0428C46.1055 8.27545 46.1849 8.47131 46.3477 8.63436C46.5106 8.8004 46.707 8.87795 46.9381 8.87795Z" fill="white"/>
<path d="M48.9922 5.74414H49.5785V9.43868H48.9922V5.74414Z" fill="white"/>
<path d="M52.6659 8.84017C52.5448 9.01714 52.3901 9.1613 52.2008 9.27265C51.9779 9.40588 51.7356 9.46851 51.4781 9.46851C51.0811 9.46851 50.7442 9.32833 50.4643 9.05094C50.1844 8.77355 50.0449 8.4375 50.0449 8.04578C50.0449 7.65406 50.1854 7.31801 50.4643 7.04062C50.7442 6.76323 51.0811 6.62305 51.4781 6.62305C51.871 6.62305 52.2079 6.76323 52.4919 7.04062C52.7718 7.31801 52.9113 7.65406 52.9113 8.04578V8.28539H50.6984C50.7473 8.47031 50.846 8.61746 50.9977 8.72881C51.1412 8.82824 51.3 8.87993 51.4781 8.87993C51.7651 8.87993 51.9891 8.76958 52.1478 8.54389L52.6659 8.84017ZM52.2578 7.75348C52.1977 7.5944 52.099 7.46118 51.9585 7.36573C51.815 7.26631 51.6562 7.21461 51.4781 7.21461C51.3 7.21461 51.1412 7.26631 50.9977 7.36573C50.8572 7.46515 50.7595 7.5944 50.6984 7.75348H52.2578Z" fill="white"/>
<path d="M55.5521 9.44114L54.697 8.48768L53.8502 9.44114H53.0705L54.3072 8.05221L53.0664 6.65234H53.8461L54.697 7.61276L55.5561 6.65234H56.3358L55.0879 8.05221L56.3328 9.44114H55.5521Z" fill="white"/>
<path d="M57.9226 7.20861C57.6916 7.20861 57.4951 7.29013 57.3363 7.45219C57.1735 7.61525 57.0941 7.81409 57.0941 8.04376C57.0941 8.2764 57.1735 8.47227 57.3363 8.63532C57.4992 8.79837 57.6956 8.8789 57.9226 8.8789C58.2025 8.8789 58.4295 8.76457 58.5955 8.53888L59.083 8.8789C58.796 9.27063 58.4061 9.47047 57.9175 9.47047C57.5206 9.47047 57.1837 9.33028 56.9037 9.05289C56.6238 8.77551 56.4844 8.43946 56.4844 8.04773C56.4844 7.65601 56.6248 7.31996 56.9037 7.04257C57.1837 6.76519 57.5206 6.625 57.9175 6.625C58.4051 6.625 58.7909 6.82086 59.083 7.21656L58.5955 7.55659C58.4295 7.32294 58.2066 7.20861 57.9226 7.20861Z" fill="white"/>
<path d="M60.8177 6.622C61.1811 6.622 61.4905 6.75821 61.7481 7.03162C62.0056 7.30504 62.1379 7.63015 62.1379 8.01491V9.44063H61.5516V8.01491C61.5516 7.78922 61.4794 7.59734 61.3358 7.43528C61.1954 7.2762 61.0223 7.19468 60.8218 7.19468C60.6213 7.19468 60.4513 7.2762 60.3078 7.43528C60.1673 7.59436 60.0961 7.79022 60.0961 8.01491V9.44063H59.5098V5.74609H60.0961V6.85465C60.3108 6.69955 60.5531 6.622 60.8177 6.622Z" fill="white"/>
<path d="M65.4006 9.44164H64.799V9.20103C64.5496 9.37801 64.2727 9.47047 63.9664 9.47047C63.5694 9.47047 63.2325 9.33028 62.9526 9.05289C62.6727 8.77551 62.5332 8.43946 62.5332 8.04773C62.5332 7.65601 62.6737 7.31996 62.9526 7.04257C63.2325 6.76519 63.5694 6.625 63.9664 6.625C64.2727 6.625 64.5486 6.71349 64.799 6.89145V6.65483H65.4006V9.44164ZM63.9674 8.8799C64.1944 8.8799 64.3908 8.79837 64.5537 8.63631C64.7165 8.47426 64.7959 8.27442 64.7959 8.04475C64.7959 7.8121 64.7165 7.61624 64.5537 7.45319C64.3908 7.29014 64.1944 7.2096 63.9674 7.2096C63.7363 7.2096 63.5399 7.29113 63.377 7.45319C63.2182 7.61624 63.1348 7.81509 63.1348 8.04475C63.1348 8.2774 63.2142 8.47326 63.377 8.63631C63.5399 8.80235 63.7363 8.8799 63.9674 8.8799Z" fill="white"/>
<path d="M67.2632 6.5957C67.6266 6.5957 67.936 6.73191 68.1936 7.00532C68.4511 7.27873 68.5793 7.60385 68.5793 7.98861V9.44018H67.993V7.98861C67.993 7.76292 67.9208 7.57104 67.7772 7.40898C67.6337 7.2499 67.4637 7.16838 67.2632 7.16838C67.0627 7.16838 66.8927 7.2499 66.7492 7.40898C66.6087 7.56805 66.5375 7.76392 66.5375 7.98861V9.44018H65.9512V6.65039H66.5375V6.82736C66.7522 6.67325 66.9986 6.5957 67.2632 6.5957Z" fill="white"/>
<path d="M69.6344 9.31917C69.6985 9.45538 69.7932 9.56673 69.9184 9.65522C70.0619 9.75166 70.2054 9.80336 70.3418 9.80336C70.5271 9.80336 70.6899 9.72581 70.8294 9.57071C70.9546 9.43052 71.0258 9.25256 71.0411 9.04278C70.8212 9.18296 70.583 9.25753 70.3225 9.25753C69.956 9.25753 69.6456 9.12828 69.384 8.87376C69.1265 8.61924 68.9941 8.30804 68.9941 7.94615C68.9941 7.58425 69.1224 7.27405 69.384 7.01854C69.6456 6.76302 69.955 6.63477 70.3225 6.63477C70.583 6.63477 70.8253 6.70536 71.0452 6.84952V6.65763H71.6467V9.00002C71.6396 9.39871 71.5063 9.73177 71.2498 9.99723C70.9922 10.2637 70.6899 10.3959 70.3418 10.3959C70.0812 10.3959 69.8237 10.3114 69.5743 10.1444C69.3433 9.98928 69.1774 9.78645 69.0674 9.53889L69.6344 9.31917ZM70.3225 8.66895C70.523 8.66895 70.693 8.59836 70.8365 8.4542C70.9759 8.31003 71.0482 8.14002 71.0482 7.9372C71.0482 7.73736 70.9759 7.56436 70.8365 7.42318C70.696 7.283 70.523 7.20843 70.3225 7.20843C70.1219 7.20843 69.952 7.27902 69.8084 7.42318C69.669 7.56337 69.5967 7.73736 69.5967 7.9372C69.5967 8.13704 69.669 8.31003 69.8084 8.45121C69.952 8.59438 70.1219 8.66895 70.3225 8.66895Z" fill="white"/>
<path d="M74.7245 8.84017C74.6034 9.01714 74.4487 9.1613 74.2594 9.27265C74.0365 9.40588 73.7942 9.46851 73.5367 9.46851C73.1397 9.46851 72.8028 9.32833 72.5229 9.05094C72.243 8.77355 72.1035 8.4375 72.1035 8.04578C72.1035 7.65406 72.243 7.31801 72.5229 7.04062C72.8028 6.76323 73.1397 6.62305 73.5367 6.62305C73.9296 6.62305 74.2665 6.76323 74.5505 7.04062C74.8304 7.31801 74.9698 7.65406 74.9698 8.04578V8.28539H72.757C72.8058 8.47031 72.9046 8.61746 73.0562 8.72881C73.1998 8.82824 73.3586 8.87993 73.5367 8.87993C73.8237 8.87993 74.0477 8.76958 74.2064 8.54389L74.7245 8.84017ZM74.3164 7.75348C74.2563 7.5944 74.1576 7.46118 74.0171 7.36573C73.8736 7.26631 73.7148 7.21461 73.5367 7.21461C73.3586 7.21461 73.1998 7.26631 73.0562 7.36573C72.9168 7.46515 72.8181 7.5944 72.757 7.75348H74.3164Z" fill="white"/>
<path d="M77.2857 5.80148C77.3488 5.86412 77.3814 5.94067 77.3814 6.03015C77.3814 6.11963 77.3498 6.19619 77.2857 6.25882C77.2226 6.32146 77.1432 6.35328 77.0496 6.35328C76.958 6.35328 76.8796 6.32146 76.8154 6.25882C76.7513 6.19619 76.7188 6.11963 76.7188 6.03015C76.7188 5.94067 76.7513 5.86412 76.8154 5.80148C76.8796 5.73885 76.958 5.70703 77.0496 5.70703C77.1432 5.70703 77.2216 5.73885 77.2857 5.80148ZM76.7473 9.51192H77.3488V6.6595H76.7473V9.51192Z" fill="white"/>
<path d="M80.7987 9.51345H80.1839V9.27285C79.9294 9.45778 79.6464 9.55024 79.3329 9.55024C78.9288 9.55024 78.5828 9.40707 78.2967 9.12074C78.0107 8.83738 77.8672 8.49636 77.8672 8.09569C77.8672 7.69403 78.0107 7.35102 78.2967 7.06866C78.5828 6.78431 78.9278 6.64114 79.3329 6.64114C79.6454 6.64114 79.9294 6.73162 80.1839 6.91256V5.73242H80.7987V9.51345ZM79.3339 8.94973C79.567 8.94973 79.7676 8.86621 79.9355 8.69819C80.1014 8.53116 80.1849 8.33033 80.1849 8.0947C80.1849 7.85807 80.1014 7.65624 79.9355 7.48921C79.7676 7.32219 79.567 7.23768 79.3339 7.23768C79.0988 7.23768 78.8973 7.32119 78.7293 7.48921C78.5654 7.65624 78.483 7.85807 78.483 8.0947C78.483 8.32933 78.5654 8.53017 78.7293 8.69819C78.8973 8.86621 79.0988 8.94973 79.3339 8.94973Z" fill="white"/>
<path d="M44.3238 11.4199H38.184H30.1855L37.4328 15.0916L37.3147 15.6663H32.4188L36.8547 17.9132L35.4205 24.9175H40.0793L40.7501 21.6008H43.139C47.3836 21.6008 50.1267 19.3061 50.1267 15.8929C50.1277 13.0783 48.035 11.4199 44.3238 11.4199ZM43.3762 18.0912H41.4616L42.113 14.9285H43.6724C44.7381 14.9285 45.4099 15.3332 45.4099 16.2976C45.4099 17.436 44.6597 18.0912 43.3762 18.0912Z" fill="white"/>
<path d="M64.5969 15.8552C64.5969 13.0594 62.5041 11.4199 58.852 11.4199H52.6531L49.8906 24.9175H54.5494L55.2406 21.5242H56.3857L58.34 24.9175H63.1769L60.8674 20.9844C63.2156 20.1164 64.5969 18.2652 64.5969 15.8552ZM57.8453 18.0912H55.9307L56.5821 14.9285H58.1415C59.2072 14.9285 59.879 15.3332 59.879 16.2976C59.879 17.436 59.1289 18.0912 57.8453 18.0912Z" fill="white"/>
<path d="M74.0731 11.1113C69 11.1113 65.3672 14.4281 65.3672 19.1904C65.3672 22.7388 68.0717 25.2253 72.3753 25.2253C77.4483 25.2253 81.0811 21.9086 81.0811 17.1463C81.0811 13.5979 78.3766 11.1113 74.0731 11.1113ZM72.7702 21.5427C71.0724 21.5427 70.0657 20.4819 70.0657 18.921C70.0657 16.7038 71.3879 14.7939 73.6781 14.7939C75.376 14.7939 76.3826 15.8548 76.3826 17.4167C76.3826 19.6338 75.0594 21.5427 72.7702 21.5427Z" fill="white"/>
</svg>
