<svg width="134" height="96" viewBox="0 0 134 96" fill="none" xmlns="http://www.w3.org/2000/svg">
<path d="M67 64C84.6731 64 99 49.6731 99 32C99 14.3269 84.6731 0 67 0C49.3269 0 35 14.3269 35 32C35 49.6731 49.3269 64 67 64Z" fill="url(#paint0_linear_1918_6520)"/>
<path d="M86.2 64.0004H47.8V22.6138C49.6099 22.6117 51.3451 21.8919 52.6249 20.6121C53.9047 19.3322 54.6246 17.597 54.6267 15.7871H79.3733C79.3714 16.6837 79.5473 17.5718 79.8909 18.3999C80.2344 19.2281 80.7388 19.9799 81.3748 20.6118C82.0067 21.2481 82.7586 21.7526 83.5868 22.0962C84.4151 22.4399 85.3033 22.6158 86.2 22.6138V64.0004Z" fill="white"/>
<path d="M67 43.52C72.6554 43.52 77.24 38.9354 77.24 33.28C77.24 27.6246 72.6554 23.04 67 23.04C61.3446 23.04 56.76 27.6246 56.76 33.28C56.76 38.9354 61.3446 43.52 67 43.52Z" fill="#1B6AEA"/>
<path d="M70.6204 38.1068L67 34.4864L63.3796 38.1068L62.1728 36.9L65.7932 33.2796L62.1728 29.6592L63.3796 28.4524L67 32.0728L70.6204 28.4524L71.8272 29.6592L68.2068 33.2796L71.8272 36.9L70.6204 38.1068Z" fill="white"/>
<path d="M72.5467 46.0801H61.4533C60.7464 46.0801 60.1733 46.6532 60.1733 47.3601C60.1733 48.067 60.7464 48.6401 61.4533 48.6401H72.5467C73.2536 48.6401 73.8267 48.067 73.8267 47.3601C73.8267 46.6532 73.2536 46.0801 72.5467 46.0801Z" fill="#DFEAFB"/>
<path d="M76.3866 51.2002H57.6133C56.9064 51.2002 56.3333 51.7733 56.3333 52.4802C56.3333 53.1871 56.9064 53.7602 57.6133 53.7602H76.3866C77.0936 53.7602 77.6666 53.1871 77.6666 52.4802C77.6666 51.7733 77.0936 51.2002 76.3866 51.2002Z" fill="#DFEAFB"/>
<path d="M16.8115 75.0469V85H15.4854L10.4746 77.3232V85H9.15527V75.0469H10.4746L15.5059 82.7441V75.0469H16.8115ZM18.623 81.3838V81.2266C18.623 80.6934 18.7005 80.1989 18.8555 79.7432C19.0104 79.2829 19.2337 78.8841 19.5254 78.5469C19.8171 78.2051 20.1702 77.9408 20.585 77.7539C20.9997 77.5625 21.4645 77.4668 21.9795 77.4668C22.499 77.4668 22.9661 77.5625 23.3809 77.7539C23.8001 77.9408 24.1556 78.2051 24.4473 78.5469C24.7435 78.8841 24.9691 79.2829 25.124 79.7432C25.279 80.1989 25.3564 80.6934 25.3564 81.2266V81.3838C25.3564 81.917 25.279 82.4115 25.124 82.8672C24.9691 83.3229 24.7435 83.7217 24.4473 84.0635C24.1556 84.4007 23.8024 84.665 23.3877 84.8564C22.9775 85.0433 22.5127 85.1367 21.9932 85.1367C21.4736 85.1367 21.0065 85.0433 20.5918 84.8564C20.1771 84.665 19.8216 84.4007 19.5254 84.0635C19.2337 83.7217 19.0104 83.3229 18.8555 82.8672C18.7005 82.4115 18.623 81.917 18.623 81.3838ZM19.8877 81.2266V81.3838C19.8877 81.7529 19.931 82.1016 20.0176 82.4297C20.1042 82.7533 20.234 83.0404 20.4072 83.291C20.585 83.5417 20.806 83.7399 21.0703 83.8857C21.3346 84.027 21.6423 84.0977 21.9932 84.0977C22.3395 84.0977 22.6426 84.027 22.9023 83.8857C23.1667 83.7399 23.3854 83.5417 23.5586 83.291C23.7318 83.0404 23.8617 82.7533 23.9482 82.4297C24.0394 82.1016 24.085 81.7529 24.085 81.3838V81.2266C24.085 80.862 24.0394 80.5179 23.9482 80.1943C23.8617 79.8662 23.7295 79.5768 23.5518 79.3262C23.3786 79.071 23.1598 78.8704 22.8955 78.7246C22.6357 78.5788 22.3304 78.5059 21.9795 78.5059C21.6331 78.5059 21.3278 78.5788 21.0635 78.7246C20.8037 78.8704 20.585 79.071 20.4072 79.3262C20.234 79.5768 20.1042 79.8662 20.0176 80.1943C19.931 80.5179 19.8877 80.862 19.8877 81.2266ZM33.2998 85H31.2217L31.2354 83.9268H33.2998C34.0107 83.9268 34.6032 83.7786 35.0771 83.4824C35.5511 83.1816 35.9066 82.7624 36.1436 82.2246C36.3851 81.6823 36.5059 81.0488 36.5059 80.3242V79.7158C36.5059 79.1462 36.4375 78.6403 36.3008 78.1982C36.1641 77.7516 35.9635 77.3757 35.6992 77.0703C35.4349 76.7604 35.1113 76.5257 34.7285 76.3662C34.3503 76.2067 33.915 76.127 33.4229 76.127H31.1807V75.0469H33.4229C34.0745 75.0469 34.6693 75.1562 35.207 75.375C35.7448 75.5892 36.2074 75.9014 36.5947 76.3115C36.9867 76.7171 37.2874 77.2093 37.4971 77.7881C37.7067 78.3623 37.8115 79.0094 37.8115 79.7295V80.3242C37.8115 81.0443 37.7067 81.6937 37.4971 82.2725C37.2874 82.8467 36.9844 83.3366 36.5879 83.7422C36.196 84.1478 35.722 84.46 35.166 84.6787C34.6146 84.8929 33.9925 85 33.2998 85ZM31.9258 75.0469V85H30.6064V75.0469H31.9258ZM42.6719 85.1367C42.1569 85.1367 41.6898 85.0501 41.2705 84.877C40.8558 84.6992 40.498 84.4508 40.1973 84.1318C39.901 83.8128 39.6732 83.4346 39.5137 82.9971C39.3542 82.5596 39.2744 82.0811 39.2744 81.5615V81.2744C39.2744 80.6729 39.3633 80.1374 39.541 79.668C39.7188 79.194 39.9603 78.793 40.2656 78.4648C40.571 78.1367 40.9173 77.8883 41.3047 77.7197C41.6921 77.5511 42.0931 77.4668 42.5078 77.4668C43.0365 77.4668 43.4922 77.5579 43.875 77.7402C44.2624 77.9225 44.5791 78.1777 44.8252 78.5059C45.0713 78.8294 45.2536 79.2122 45.3721 79.6543C45.4906 80.0918 45.5498 80.5703 45.5498 81.0898V81.6572H40.0264V80.625H44.2852V80.5293C44.2669 80.2012 44.1986 79.8822 44.0801 79.5723C43.9661 79.2624 43.7839 79.0072 43.5332 78.8066C43.2826 78.6061 42.9408 78.5059 42.5078 78.5059C42.2207 78.5059 41.9564 78.5674 41.7148 78.6904C41.4733 78.8089 41.266 78.9867 41.0928 79.2236C40.9196 79.4606 40.7852 79.75 40.6895 80.0918C40.5938 80.4336 40.5459 80.8278 40.5459 81.2744V81.5615C40.5459 81.9124 40.5938 82.2428 40.6895 82.5527C40.7897 82.8581 40.9333 83.127 41.1201 83.3594C41.3115 83.5918 41.5417 83.7741 41.8105 83.9062C42.084 84.0384 42.3939 84.1045 42.7402 84.1045C43.1868 84.1045 43.5651 84.0133 43.875 83.8311C44.1849 83.6488 44.4561 83.4049 44.6885 83.0996L45.4541 83.708C45.2946 83.9495 45.0918 84.1797 44.8457 84.3984C44.5996 84.6172 44.2965 84.7949 43.9365 84.9316C43.5811 85.0684 43.1595 85.1367 42.6719 85.1367ZM48.291 79.0254V87.8438H47.0195V77.6035H48.1816L48.291 79.0254ZM53.2744 81.2402V81.3838C53.2744 81.9215 53.2106 82.4206 53.083 82.8809C52.9554 83.3366 52.7686 83.7331 52.5225 84.0703C52.2809 84.4076 51.9824 84.6696 51.627 84.8564C51.2715 85.0433 50.8636 85.1367 50.4033 85.1367C49.9339 85.1367 49.5192 85.0592 49.1592 84.9043C48.7992 84.7493 48.4938 84.5238 48.2432 84.2275C47.9925 83.9313 47.792 83.5758 47.6416 83.1611C47.4958 82.7464 47.3955 82.2793 47.3408 81.7598V80.9941C47.3955 80.4473 47.498 79.9574 47.6484 79.5244C47.7988 79.0915 47.9971 78.7223 48.2432 78.417C48.4938 78.1071 48.7969 77.8724 49.1523 77.7129C49.5078 77.5488 49.918 77.4668 50.3828 77.4668C50.8477 77.4668 51.2601 77.5579 51.6201 77.7402C51.9801 77.918 52.2832 78.1732 52.5293 78.5059C52.7754 78.8385 52.96 79.2373 53.083 79.7021C53.2106 80.1624 53.2744 80.6751 53.2744 81.2402ZM52.0029 81.3838V81.2402C52.0029 80.8711 51.9642 80.5247 51.8867 80.2012C51.8092 79.873 51.6885 79.5859 51.5244 79.3398C51.3649 79.0892 51.1598 78.8932 50.9092 78.752C50.6585 78.6061 50.36 78.5332 50.0137 78.5332C49.6947 78.5332 49.4167 78.5879 49.1797 78.6973C48.9473 78.8066 48.749 78.9548 48.585 79.1416C48.4209 79.3239 48.2865 79.5335 48.1816 79.7705C48.0814 80.0029 48.0062 80.2445 47.9561 80.4951V82.2656C48.0472 82.5846 48.1748 82.8854 48.3389 83.168C48.5029 83.446 48.7217 83.6715 48.9951 83.8447C49.2686 84.0133 49.6126 84.0977 50.0273 84.0977C50.3691 84.0977 50.6631 84.027 50.9092 83.8857C51.1598 83.7399 51.3649 83.5417 51.5244 83.291C51.6885 83.0404 51.8092 82.7533 51.8867 82.4297C51.9642 82.1016 52.0029 81.7529 52.0029 81.3838ZM54.5527 81.3838V81.2266C54.5527 80.6934 54.6302 80.1989 54.7852 79.7432C54.9401 79.2829 55.1634 78.8841 55.4551 78.5469C55.7467 78.2051 56.0999 77.9408 56.5146 77.7539C56.9294 77.5625 57.3942 77.4668 57.9092 77.4668C58.4287 77.4668 58.8958 77.5625 59.3105 77.7539C59.7298 77.9408 60.0853 78.2051 60.377 78.5469C60.6732 78.8841 60.8988 79.2829 61.0537 79.7432C61.2087 80.1989 61.2861 80.6934 61.2861 81.2266V81.3838C61.2861 81.917 61.2087 82.4115 61.0537 82.8672C60.8988 83.3229 60.6732 83.7217 60.377 84.0635C60.0853 84.4007 59.7321 84.665 59.3174 84.8564C58.9072 85.0433 58.4424 85.1367 57.9229 85.1367C57.4033 85.1367 56.9362 85.0433 56.5215 84.8564C56.1068 84.665 55.7513 84.4007 55.4551 84.0635C55.1634 83.7217 54.9401 83.3229 54.7852 82.8672C54.6302 82.4115 54.5527 81.917 54.5527 81.3838ZM55.8174 81.2266V81.3838C55.8174 81.7529 55.8607 82.1016 55.9473 82.4297C56.0339 82.7533 56.1637 83.0404 56.3369 83.291C56.5146 83.5417 56.7357 83.7399 57 83.8857C57.2643 84.027 57.5719 84.0977 57.9229 84.0977C58.2692 84.0977 58.5723 84.027 58.832 83.8857C59.0964 83.7399 59.3151 83.5417 59.4883 83.291C59.6615 83.0404 59.7913 82.7533 59.8779 82.4297C59.9691 82.1016 60.0146 81.7529 60.0146 81.3838V81.2266C60.0146 80.862 59.9691 80.5179 59.8779 80.1943C59.7913 79.8662 59.6592 79.5768 59.4814 79.3262C59.3083 79.071 59.0895 78.8704 58.8252 78.7246C58.5654 78.5788 58.2601 78.5059 57.9092 78.5059C57.5628 78.5059 57.2575 78.5788 56.9932 78.7246C56.7334 78.8704 56.5146 79.071 56.3369 79.3262C56.1637 79.5768 56.0339 79.8662 55.9473 80.1943C55.8607 80.5179 55.8174 80.862 55.8174 81.2266ZM67.1787 83.0381C67.1787 82.8558 67.1377 82.6872 67.0557 82.5322C66.9782 82.3727 66.8164 82.2292 66.5703 82.1016C66.3288 81.9694 65.9642 81.8555 65.4766 81.7598C65.0664 81.6732 64.695 81.5706 64.3623 81.4521C64.0342 81.3337 63.7539 81.1901 63.5215 81.0215C63.2936 80.8529 63.1182 80.6546 62.9951 80.4268C62.8721 80.1989 62.8105 79.9323 62.8105 79.627C62.8105 79.3353 62.8743 79.0596 63.002 78.7998C63.1341 78.54 63.3187 78.3099 63.5557 78.1094C63.7972 77.9089 64.0866 77.7516 64.4238 77.6377C64.7611 77.5238 65.137 77.4668 65.5518 77.4668C66.1442 77.4668 66.6501 77.5716 67.0693 77.7812C67.4886 77.9909 67.8099 78.2712 68.0332 78.6221C68.2565 78.9684 68.3682 79.3535 68.3682 79.7773H67.1035C67.1035 79.5723 67.042 79.374 66.9189 79.1826C66.8005 78.9867 66.625 78.8249 66.3926 78.6973C66.1647 78.5697 65.8844 78.5059 65.5518 78.5059C65.2008 78.5059 64.916 78.5605 64.6973 78.6699C64.4831 78.7747 64.3258 78.9092 64.2256 79.0732C64.1299 79.2373 64.082 79.4105 64.082 79.5928C64.082 79.7295 64.1048 79.8525 64.1504 79.9619C64.2005 80.0667 64.2871 80.1647 64.4102 80.2559C64.5332 80.3424 64.7064 80.4245 64.9297 80.502C65.153 80.5794 65.4378 80.6569 65.7842 80.7344C66.3903 80.8711 66.8893 81.0352 67.2812 81.2266C67.6732 81.418 67.9648 81.6527 68.1562 81.9307C68.3477 82.2087 68.4434 82.5459 68.4434 82.9424C68.4434 83.266 68.375 83.5622 68.2383 83.8311C68.1061 84.0999 67.9124 84.3324 67.6572 84.5283C67.4066 84.7197 67.1058 84.8701 66.7549 84.9795C66.4085 85.0843 66.0189 85.1367 65.5859 85.1367C64.9342 85.1367 64.3828 85.0205 63.9316 84.7881C63.4805 84.5557 63.1387 84.2549 62.9062 83.8857C62.6738 83.5166 62.5576 83.127 62.5576 82.7168H63.8291C63.8473 83.0632 63.9476 83.3389 64.1299 83.5439C64.3122 83.7445 64.5355 83.888 64.7998 83.9746C65.0641 84.0566 65.3262 84.0977 65.5859 84.0977C65.9323 84.0977 66.2217 84.0521 66.4541 83.9609C66.6911 83.8698 66.8711 83.7445 66.9941 83.585C67.1172 83.4255 67.1787 83.2432 67.1787 83.0381ZM71.4785 77.6035V85H70.207V77.6035H71.4785ZM70.1113 75.6416C70.1113 75.4365 70.1729 75.2633 70.2959 75.1221C70.4235 74.9808 70.6104 74.9102 70.8564 74.9102C71.098 74.9102 71.2826 74.9808 71.4102 75.1221C71.5423 75.2633 71.6084 75.4365 71.6084 75.6416C71.6084 75.8376 71.5423 76.0062 71.4102 76.1475C71.2826 76.2842 71.098 76.3525 70.8564 76.3525C70.6104 76.3525 70.4235 76.2842 70.2959 76.1475C70.1729 76.0062 70.1113 75.8376 70.1113 75.6416ZM76.6055 77.6035V78.5742H72.6064V77.6035H76.6055ZM73.96 75.8057H75.2246V83.168C75.2246 83.4186 75.2633 83.6077 75.3408 83.7354C75.4183 83.863 75.5186 83.9473 75.6416 83.9883C75.7646 84.0293 75.8968 84.0498 76.0381 84.0498C76.1429 84.0498 76.2523 84.0407 76.3662 84.0225C76.4847 83.9997 76.5736 83.9814 76.6328 83.9678L76.6396 85C76.5394 85.0319 76.4072 85.0615 76.2432 85.0889C76.0837 85.1208 75.89 85.1367 75.6621 85.1367C75.3522 85.1367 75.0674 85.0752 74.8076 84.9521C74.5479 84.8291 74.3405 84.624 74.1855 84.3369C74.0352 84.0452 73.96 83.6533 73.96 83.1611V75.8057ZM88.2539 79.3262V80.3994H82.8672V79.3262H88.2539ZM83.0723 75.0469V85H81.7529V75.0469H83.0723ZM89.4023 75.0469V85H88.0898V75.0469H89.4023ZM92.9297 77.6035V85H91.6582V77.6035H92.9297ZM91.5625 75.6416C91.5625 75.4365 91.624 75.2633 91.7471 75.1221C91.8747 74.9808 92.0615 74.9102 92.3076 74.9102C92.5492 74.9102 92.7337 74.9808 92.8613 75.1221C92.9935 75.2633 93.0596 75.4365 93.0596 75.6416C93.0596 75.8376 92.9935 76.0062 92.8613 76.1475C92.7337 76.2842 92.5492 76.3525 92.3076 76.3525C92.0615 76.3525 91.8747 76.2842 91.7471 76.1475C91.624 76.0062 91.5625 75.8376 91.5625 75.6416ZM99.2666 83.0381C99.2666 82.8558 99.2256 82.6872 99.1436 82.5322C99.0661 82.3727 98.9043 82.2292 98.6582 82.1016C98.4167 81.9694 98.0521 81.8555 97.5645 81.7598C97.1543 81.6732 96.7829 81.5706 96.4502 81.4521C96.1221 81.3337 95.8418 81.1901 95.6094 81.0215C95.3815 80.8529 95.2061 80.6546 95.083 80.4268C94.96 80.1989 94.8984 79.9323 94.8984 79.627C94.8984 79.3353 94.9622 79.0596 95.0898 78.7998C95.222 78.54 95.4066 78.3099 95.6436 78.1094C95.8851 77.9089 96.1745 77.7516 96.5117 77.6377C96.849 77.5238 97.2249 77.4668 97.6396 77.4668C98.2321 77.4668 98.738 77.5716 99.1572 77.7812C99.5765 77.9909 99.8978 78.2712 100.121 78.6221C100.344 78.9684 100.456 79.3535 100.456 79.7773H99.1914C99.1914 79.5723 99.1299 79.374 99.0068 79.1826C98.8883 78.9867 98.7129 78.8249 98.4805 78.6973C98.2526 78.5697 97.9723 78.5059 97.6396 78.5059C97.2887 78.5059 97.0039 78.5605 96.7852 78.6699C96.571 78.7747 96.4137 78.9092 96.3135 79.0732C96.2178 79.2373 96.1699 79.4105 96.1699 79.5928C96.1699 79.7295 96.1927 79.8525 96.2383 79.9619C96.2884 80.0667 96.375 80.1647 96.498 80.2559C96.6211 80.3424 96.7943 80.4245 97.0176 80.502C97.2409 80.5794 97.5257 80.6569 97.8721 80.7344C98.4782 80.8711 98.9772 81.0352 99.3691 81.2266C99.7611 81.418 100.053 81.6527 100.244 81.9307C100.436 82.2087 100.531 82.5459 100.531 82.9424C100.531 83.266 100.463 83.5622 100.326 83.8311C100.194 84.0999 100 84.3324 99.7451 84.5283C99.4945 84.7197 99.1937 84.8701 98.8428 84.9795C98.4964 85.0843 98.1068 85.1367 97.6738 85.1367C97.0221 85.1367 96.4707 85.0205 96.0195 84.7881C95.5684 84.5557 95.2266 84.2549 94.9941 83.8857C94.7617 83.5166 94.6455 83.127 94.6455 82.7168H95.917C95.9352 83.0632 96.0355 83.3389 96.2178 83.5439C96.4001 83.7445 96.6234 83.888 96.8877 83.9746C97.152 84.0566 97.4141 84.0977 97.6738 84.0977C98.0202 84.0977 98.3096 84.0521 98.542 83.9609C98.779 83.8698 98.959 83.7445 99.082 83.585C99.2051 83.4255 99.2666 83.2432 99.2666 83.0381ZM105.289 77.6035V78.5742H101.29V77.6035H105.289ZM102.644 75.8057H103.908V83.168C103.908 83.4186 103.947 83.6077 104.024 83.7354C104.102 83.863 104.202 83.9473 104.325 83.9883C104.448 84.0293 104.58 84.0498 104.722 84.0498C104.826 84.0498 104.936 84.0407 105.05 84.0225C105.168 83.9997 105.257 83.9814 105.316 83.9678L105.323 85C105.223 85.0319 105.091 85.0615 104.927 85.0889C104.767 85.1208 104.574 85.1367 104.346 85.1367C104.036 85.1367 103.751 85.0752 103.491 84.9521C103.231 84.8291 103.024 84.624 102.869 84.3369C102.719 84.0452 102.644 83.6533 102.644 83.1611V75.8057ZM106.301 81.3838V81.2266C106.301 80.6934 106.378 80.1989 106.533 79.7432C106.688 79.2829 106.911 78.8841 107.203 78.5469C107.495 78.2051 107.848 77.9408 108.263 77.7539C108.677 77.5625 109.142 77.4668 109.657 77.4668C110.177 77.4668 110.644 77.5625 111.059 77.7539C111.478 77.9408 111.833 78.2051 112.125 78.5469C112.421 78.8841 112.647 79.2829 112.802 79.7432C112.957 80.1989 113.034 80.6934 113.034 81.2266V81.3838C113.034 81.917 112.957 82.4115 112.802 82.8672C112.647 83.3229 112.421 83.7217 112.125 84.0635C111.833 84.4007 111.48 84.665 111.065 84.8564C110.655 85.0433 110.19 85.1367 109.671 85.1367C109.151 85.1367 108.684 85.0433 108.27 84.8564C107.855 84.665 107.499 84.4007 107.203 84.0635C106.911 83.7217 106.688 83.3229 106.533 82.8672C106.378 82.4115 106.301 81.917 106.301 81.3838ZM107.565 81.2266V81.3838C107.565 81.7529 107.609 82.1016 107.695 82.4297C107.782 82.7533 107.912 83.0404 108.085 83.291C108.263 83.5417 108.484 83.7399 108.748 83.8857C109.012 84.027 109.32 84.0977 109.671 84.0977C110.017 84.0977 110.32 84.027 110.58 83.8857C110.844 83.7399 111.063 83.5417 111.236 83.291C111.41 83.0404 111.539 82.7533 111.626 82.4297C111.717 82.1016 111.763 81.7529 111.763 81.3838V81.2266C111.763 80.862 111.717 80.5179 111.626 80.1943C111.539 79.8662 111.407 79.5768 111.229 79.3262C111.056 79.071 110.838 78.8704 110.573 78.7246C110.313 78.5788 110.008 78.5059 109.657 78.5059C109.311 78.5059 109.006 78.5788 108.741 78.7246C108.481 78.8704 108.263 79.071 108.085 79.3262C107.912 79.5768 107.782 79.8662 107.695 80.1943C107.609 80.5179 107.565 80.862 107.565 81.2266ZM115.885 78.7656V85H114.62V77.6035H115.851L115.885 78.7656ZM118.195 77.5625L118.188 78.7383C118.084 78.7155 117.983 78.7018 117.888 78.6973C117.797 78.6882 117.692 78.6836 117.573 78.6836C117.282 78.6836 117.024 78.7292 116.801 78.8203C116.577 78.9115 116.388 79.0391 116.233 79.2031C116.078 79.3672 115.955 79.5632 115.864 79.791C115.778 80.0143 115.721 80.2604 115.693 80.5293L115.338 80.7344C115.338 80.2878 115.381 79.8685 115.468 79.4766C115.559 79.0846 115.698 78.7383 115.885 78.4375C116.072 78.1322 116.309 77.8952 116.596 77.7266C116.887 77.5534 117.234 77.4668 117.635 77.4668C117.726 77.4668 117.831 77.4782 117.949 77.501C118.068 77.5192 118.15 77.5397 118.195 77.5625ZM121.565 84.2344L123.623 77.6035H124.977L122.01 86.1416C121.941 86.3239 121.85 86.5199 121.736 86.7295C121.627 86.9437 121.486 87.1465 121.312 87.3379C121.139 87.5293 120.93 87.6842 120.684 87.8027C120.442 87.9258 120.153 87.9873 119.815 87.9873C119.715 87.9873 119.588 87.9736 119.433 87.9463C119.278 87.9189 119.168 87.8962 119.104 87.8779L119.098 86.8525C119.134 86.8571 119.191 86.8617 119.269 86.8662C119.351 86.8753 119.408 86.8799 119.439 86.8799C119.727 86.8799 119.97 86.8411 120.171 86.7637C120.371 86.6908 120.54 86.5654 120.677 86.3877C120.818 86.2145 120.939 85.9753 121.039 85.6699L121.565 84.2344ZM120.055 77.6035L121.976 83.3457L122.304 84.6787L121.395 85.1436L118.674 77.6035H120.055Z" fill="#4C5058"/>
<defs>
<linearGradient id="paint0_linear_1918_6520" x1="67" y1="0" x2="67" y2="64" gradientUnits="userSpaceOnUse">
<stop stop-color="#E3ECFA"/>
<stop offset="1" stop-color="#DAE7FF"/>
</linearGradient>
</defs>
</svg>
