<svg width="40" height="42" viewBox="0 0 40 42" fill="none" xmlns="http://www.w3.org/2000/svg">
<path d="M20 26.25C24.5563 26.25 28.25 22.5563 28.25 18C28.25 13.4437 24.5563 9.75 20 9.75C15.4437 9.75 11.75 13.4437 11.75 18C11.75 22.5563 15.4437 26.25 20 26.25Z" stroke="#F39E03" stroke-width="1.125" stroke-miterlimit="10" stroke-linecap="round" stroke-linejoin="round"/>
<path d="M20 23.25C22.8995 23.25 25.25 20.8995 25.25 18C25.25 15.1005 22.8995 12.75 20 12.75C17.1005 12.75 14.75 15.1005 14.75 18C14.75 20.8995 17.1005 23.25 20 23.25Z" stroke="#F39E03" stroke-width="1.125" stroke-miterlimit="10" stroke-linecap="round" stroke-linejoin="round"/>
<path d="M20.1499 26.2504L22.8499 31.9504L25.4749 29.1004L29.3749 28.8754L26.5249 23.0254" stroke="#F39E03" stroke-width="1.125" stroke-miterlimit="10" stroke-linecap="round" stroke-linejoin="round"/>
<path d="M13.4749 23.0996L10.7749 28.8746L14.5999 29.0996L17.2249 31.9496L19.9249 26.2496" stroke="#F39E03" stroke-width="1.125" stroke-miterlimit="10" stroke-linecap="round" stroke-linejoin="round"/>
</svg>
