<svg width="31" height="30" viewBox="0 0 31 30" fill="none" xmlns="http://www.w3.org/2000/svg">
<path d="M14.4963 18.6872H16.9546V16.2288H19.4129V13.7705H16.9546V11.3122H14.4963V13.7705H12.0379V16.2288H14.4963V18.6872ZM5.89209 23.6038V21.1455H8.35042V12.5413C8.35042 10.841 8.86258 9.32994 9.88688 8.00818C10.9112 6.68641 12.2428 5.82108 13.8817 5.41218V4.55176C13.8817 4.03961 14.0611 3.60407 14.42 3.24516C14.779 2.88624 15.2141 2.70719 15.7254 2.70801C16.2376 2.70801 16.6731 2.88747 17.032 3.24639C17.3909 3.6053 17.57 4.04043 17.5692 4.55176V5.41218C19.2081 5.8219 20.5397 6.68764 21.564 8.00941C22.5883 9.33117 23.1004 10.8418 23.1004 12.5413V21.1455H25.5588V23.6038H5.89209ZM15.7254 27.2913C15.0494 27.2913 14.4704 27.0504 13.9886 26.5686C13.5068 26.0868 13.2663 25.5082 13.2671 24.833H18.1838C18.1838 25.5091 17.9428 26.088 17.461 26.5698C16.9792 27.0517 16.4006 27.2922 15.7254 27.2913ZM10.8088 21.1455H20.6421V12.5413C20.6421 11.1893 20.1607 10.0318 19.1978 9.06895C18.235 8.1061 17.0775 7.62468 15.7254 7.62468C14.3733 7.62468 13.2159 8.1061 12.253 9.06895C11.2902 10.0318 10.8088 11.1893 10.8088 12.5413V21.1455Z" fill="#F4465E"/>
</svg>
