<svg width="113" height="88" viewBox="0 0 113 88" fill="none" xmlns="http://www.w3.org/2000/svg">
<path d="M66.75 78.5H85.75V69H66.75V59.5L52.5 73.75L66.75 88V78.5ZM38.25 12C27.8 12 19.25 20.55 19.25 31C19.25 41.45 27.8 50 38.25 50C48.7 50 57.25 41.45 57.25 31C57.25 20.55 48.7 12 38.25 12ZM38.25 59.5C17.35 59.5 0.25 68.05 0.25 78.5V88H45.375C43.95 84.2 43 80.4 43 76.125C43 70.425 44.425 65.2 47.275 59.975C44.425 59.975 41.575 59.5 38.25 59.5Z" fill="#1B6AEA"/>
<path d="M86.5 19.8752V30.9169M86.5 38.6461V39.7502" stroke="#040C17" stroke-width="4.41667" stroke-linecap="round"/>
<path d="M64.9288 41.9933L82.8561 6.73949C84.4306 3.6412 88.5756 3.6412 90.148 6.73949L108.073 41.9933C109.577 44.9613 107.576 48.583 104.423 48.583H68.5748C65.4235 48.583 63.4205 44.9613 64.931 41.9933H64.9288Z" stroke="#F4B946" stroke-width="4.41667" stroke-linecap="round" stroke-linejoin="round"/>
</svg>
