<svg width="41" height="42" viewBox="0 0 41 42" fill="none" xmlns="http://www.w3.org/2000/svg">
<g clip-path="url(#clip0_5142_115842)">
<path d="M31.9958 10H10.4551V23.6795H13.116V26.2722C13.116 29.3323 14.651 32.4477 14.7163 32.5788L14.9262 33H27.5246L27.7346 32.5788C27.7999 32.4477 29.3349 29.3323 29.3349 26.2722V23.6795H31.9958V10ZM30.4753 14.0367C29.2299 13.7478 28.248 12.7659 27.9591 11.5205H30.4753V14.0367V14.0367ZM26.4101 22.159H17.5762V20.2647C17.5762 19.035 16.5758 18.0346 15.3461 18.0346C14.7102 18.0346 14.1361 18.3025 13.7294 18.7309C13.1918 18.408 12.5963 18.1928 11.9756 18.0952V15.5857C14.0614 15.2583 15.7134 13.6063 16.0408 11.5205H26.4101C26.7375 13.6063 28.3894 15.2583 30.4753 15.5857V18.0939C28.3895 18.4212 26.7375 20.0732 26.4101 22.159ZM14.4918 11.5205C14.2029 12.7659 13.221 13.7478 11.9756 14.0367V11.5205H14.4918ZM11.9756 22.159V19.642C12.3842 19.7367 12.7719 19.9077 13.1192 20.1463C13.1171 20.1855 13.116 20.2249 13.116 20.2647V22.159H11.9756V22.159ZM15.8854 31.4795C15.493 30.575 14.6365 28.3613 14.6365 26.2722V20.2647C14.6365 19.8734 14.9548 19.5551 15.3461 19.5551C15.7374 19.5551 16.0557 19.8734 16.0557 20.2647V27.2274H16.8159C19.3213 27.2274 21.4033 29.0752 21.7707 31.4795H15.8854V31.4795ZM27.8143 26.2722C27.8143 28.3615 26.9578 30.5754 26.5655 31.4795H23.3048C22.9561 28.4833 20.5723 26.0995 17.5762 25.7509V23.6795H27.8143V26.2722ZM27.9591 22.159C28.248 20.9136 29.2299 19.9317 30.4753 19.6428V22.159H27.9591Z" fill="#46D587"/>
<path d="M21.2254 13.4189C19.3389 13.4189 17.8042 14.9537 17.8042 16.8401C17.8042 18.7266 19.3389 20.2613 21.2254 20.2613C23.1118 20.2613 24.6465 18.7266 24.6465 16.8401C24.6465 14.9537 23.1118 13.4189 21.2254 13.4189ZM21.2254 18.7408C20.1773 18.7408 19.3247 17.8882 19.3247 16.8401C19.3247 15.7921 20.1773 14.9395 21.2254 14.9395C22.2734 14.9395 23.126 15.7921 23.126 16.8401C23.126 17.8882 22.2734 18.7408 21.2254 18.7408Z" fill="#46D587"/>
</g>
<defs>
<clipPath id="clip0_5142_115842">
<rect width="23" height="23" fill="white" transform="translate(9.72534 10)"/>
</clipPath>
</defs>
</svg>
