<svg width="27" height="27" viewBox="0 0 27 27" fill="none" xmlns="http://www.w3.org/2000/svg">
<path d="M14.1355 7.19825H12.8673C12.7513 7.19825 12.6563 7.29317 12.6563 7.40918V14.6681C12.6563 14.7366 12.688 14.7999 12.7434 14.8395L17.1019 18.022C17.1968 18.0905 17.3286 18.0721 17.3972 17.9772L18.1513 16.9488C18.2225 16.8513 18.2014 16.7194 18.1064 16.6535L14.3465 13.9351V7.40918C14.3465 7.29317 14.2516 7.19825 14.1355 7.19825ZM19.9311 9.18106L24.0654 10.1909C24.1973 10.2226 24.3265 10.1224 24.3265 9.98789L24.3476 5.72959C24.3476 5.55293 24.1445 5.45274 24.0074 5.56348L19.8519 8.80928C19.8205 8.83358 19.7966 8.86624 19.783 8.90352C19.7693 8.9408 19.7664 8.98118 19.7747 9.02002C19.783 9.05886 19.802 9.09457 19.8297 9.12306C19.8573 9.15155 19.8925 9.17165 19.9311 9.18106ZM24.3528 17.1202L22.8578 16.6061C22.8057 16.5882 22.7486 16.5914 22.6989 16.6151C22.6491 16.6387 22.6106 16.6809 22.5915 16.7326C22.5414 16.8671 22.4887 16.9989 22.4333 17.1308C21.964 18.2408 21.2916 19.2401 20.432 20.0971C19.582 20.9497 18.5746 21.6294 17.4657 22.0983C16.317 22.584 15.0822 22.8333 13.835 22.8314C12.5746 22.8314 11.3538 22.5861 10.2042 22.0983C9.0953 21.6294 8.08792 20.9497 7.23789 20.0971C6.38096 19.2401 5.70859 18.2408 5.23662 17.1308C4.75362 15.9814 4.50616 14.7468 4.50889 13.5C4.50889 12.2397 4.7541 11.0162 5.24189 9.86661C5.71123 8.75655 6.38359 7.75723 7.24316 6.9003C8.09319 6.04763 9.10057 5.36798 10.2095 4.89903C11.3538 4.41123 12.5772 4.16602 13.8376 4.16602C15.0979 4.16602 16.3187 4.41123 17.4684 4.89903C18.5773 5.36798 19.5846 6.04763 20.4347 6.9003C20.7036 7.17188 20.9567 7.45401 21.1888 7.75196L22.7655 6.51797C20.6904 3.86543 17.4604 2.15948 13.8323 2.16211C7.51474 2.16475 2.4417 7.2958 2.50498 13.616C2.56826 19.8255 7.61758 24.8379 13.8376 24.8379C18.7287 24.8379 22.8947 21.7371 24.482 17.3944C24.5216 17.2837 24.4636 17.1598 24.3528 17.1202Z" fill="black"/>
</svg>
