<svg width="41" height="41" viewBox="0 0 41 41" fill="none" xmlns="http://www.w3.org/2000/svg">
<path d="M29.7501 12.417H10.2501C9.65178 12.417 9.16675 12.902 9.16675 13.5003V17.292H9.81675C11.3125 17.292 12.5251 18.5046 12.5251 20.0003C12.5251 21.4961 11.3125 22.7087 9.81675 22.7087H9.16675V26.5003C9.16675 27.0987 9.65178 27.5837 10.2501 27.5837H29.7501C30.3484 27.5837 30.8334 27.0987 30.8334 26.5003V22.7087H30.7251C29.2293 22.7087 28.0167 21.4961 28.0167 20.0003C28.0167 18.5046 29.2293 17.292 30.7251 17.292H30.8334V13.5003C30.8334 12.902 30.3484 12.417 29.7501 12.417Z" stroke="#F4465E" stroke-width="1.66667" stroke-linecap="round" stroke-linejoin="round"/>
<path d="M23.25 12.417V27.5837" stroke="#F4465E" stroke-width="1.66667" stroke-linecap="round" stroke-linejoin="round" stroke-dasharray="2.5 2.5"/>
</svg>
