<svg width="29" height="24" viewBox="0 0 29 24" fill="none" xmlns="http://www.w3.org/2000/svg">
<path d="M14.5 2.16602C9.25363 2.16602 5 6.41964 5 11.666C5 16.9124 9.25363 21.166 14.5 21.166C19.7464 21.166 24 16.9124 24 11.666C24 6.41964 19.7464 2.16602 14.5 2.16602ZM19.1661 8.67431L17.6065 16.021C17.4917 16.5419 17.1814 16.6686 16.7483 16.4231L14.3733 14.6736L13.2286 15.7771C13.1725 15.8498 13.1005 15.9086 13.0182 15.949C12.9358 15.9895 12.8453 16.0106 12.7536 16.0107H12.7496L12.9183 13.5929L17.3199 9.61718C17.5099 9.44856 17.2772 9.35277 17.0246 9.52139L11.5867 12.9461L9.24333 12.2146C8.73667 12.0539 8.72242 11.708 9.35021 11.4594L18.5066 7.93014C18.9325 7.77497 19.303 8.03147 19.1653 8.6751L19.1661 8.67431Z" fill="black"/>
</svg>
