<svg width="29" height="23" viewBox="0 0 29 23" fill="none" xmlns="http://www.w3.org/2000/svg">
<path d="M21.5 2.16602H7.5C6.4 2.16602 5.5 3.06602 5.5 4.16602V18.166C5.5 19.266 6.4 20.166 7.5 20.166H21.5C22.6 20.166 23.5 19.266 23.5 18.166V4.16602C23.5 3.06602 22.6 2.16602 21.5 2.16602ZM14.51 17.166C13.81 17.166 13.25 16.606 13.25 15.906C13.25 15.196 13.81 14.656 14.51 14.656C15.22 14.656 15.76 15.196 15.76 15.906C15.75 16.596 15.22 17.166 14.51 17.166ZM17.52 9.76602C16.76 10.876 16.04 11.226 15.65 11.936C15.55 12.116 15.49 12.256 15.46 12.566C15.41 13.016 15.01 13.346 14.56 13.346H14.5C13.98 13.346 13.57 12.906 13.62 12.386C13.65 12.046 13.73 11.696 13.92 11.356C14.41 10.486 15.34 9.96602 15.88 9.19602C16.45 8.38602 16.13 6.86602 14.51 6.86602C13.8 6.86602 13.33 7.22602 13.04 7.65602C12.79 8.01602 12.35 8.18602 11.94 8.01602C11.8171 7.9682 11.7067 7.89315 11.617 7.7965C11.5274 7.69985 11.4608 7.58413 11.4223 7.45804C11.3838 7.33194 11.3743 7.19876 11.3947 7.0685C11.4151 6.93824 11.4648 6.81431 11.54 6.70602C12.15 5.81602 13.17 5.16602 14.49 5.16602C15.97 5.16602 16.98 5.83602 17.5 6.68602C17.94 7.40602 18.2 8.75602 17.52 9.76602Z" fill="black"/>
</svg>
