<svg width="29" height="26" viewBox="0 0 29 26" fill="none" xmlns="http://www.w3.org/2000/svg">
<path d="M23.4911 5.93333C21.9534 5.53014 20.4512 5.00623 18.9989 4.36667C17.5702 3.75774 16.1909 3.04232 14.8732 2.22667L14.5 2L14.1336 2.23333C12.8159 3.04899 11.4366 3.76441 10.0079 4.37333C8.5532 5.01096 7.04871 5.53264 5.50893 5.93333L5 6.06V11.62C5 20.5467 14.1811 23.8867 14.2693 23.92L14.5 24L14.7307 23.92C14.8257 23.92 24 20.5533 24 11.62V6.06L23.4911 5.93333ZM20.39 10.3667L12.8104 17.6L8.52179 13.38C8.34182 13.2032 8.24071 12.9634 8.24071 12.7133C8.24071 12.4633 8.34182 12.2235 8.52179 12.0467C8.70175 11.8699 8.94584 11.7705 9.20036 11.7705C9.45487 11.7705 9.69896 11.8699 9.87893 12.0467L12.8307 15L19.0668 9C19.1559 8.91245 19.2617 8.84301 19.3781 8.79562C19.4945 8.74824 19.6193 8.72386 19.7454 8.72386C19.8714 8.72386 19.9962 8.74824 20.1126 8.79562C20.229 8.84301 20.3348 8.91245 20.4239 9C20.513 9.08755 20.5837 9.19148 20.632 9.30587C20.6802 9.42026 20.705 9.54286 20.705 9.66667C20.705 9.79048 20.6802 9.91308 20.632 10.0275C20.5837 10.1419 20.513 10.2458 20.4239 10.3333L20.39 10.3667Z" fill="black"/>
</svg>
