<svg width="70" height="70" viewBox="0 0 70 70" fill="none" xmlns="http://www.w3.org/2000/svg">
<path d="M18.5938 28.7109C15.2012 28.7109 12.4414 31.4707 12.4414 34.8633V51.543C12.4414 54.9355 15.2012 57.6953 18.5938 57.6953C21.9863 57.6953 24.7461 54.9355 24.7461 51.543V34.8633C24.7461 31.4707 21.9863 28.7109 18.5938 28.7109Z" fill="white"/>
<path d="M8.33984 34.863C8.33984 34.2715 8.41791 33.7 8.51457 33.1357C6.04297 33.9346 4.23828 36.2304 4.23828 38.9646V47.4412C4.23828 50.1754 6.04297 52.4712 8.51457 53.27C8.41791 52.7058 8.33984 52.1343 8.33984 51.5427V34.863Z" fill="white"/>
<path d="M51.4062 28.7109C48.0137 28.7109 45.2539 31.4707 45.2539 34.8633V51.543C45.2539 54.9355 48.0137 57.6953 51.4062 57.6953C52.0229 57.6953 52.6069 57.5766 53.1688 57.4071C52.4054 59.9376 50.0808 61.7969 47.3047 61.7969H40.7746C39.9252 59.415 37.6701 57.6953 35 57.6953C31.6075 57.6953 28.8477 60.4551 28.8477 63.8477C28.8477 67.2402 31.6075 70 35 70C37.6701 70 39.9252 68.2804 40.7746 65.8984H47.3047C52.9584 65.8984 57.5586 61.2983 57.5586 55.6445V51.543V34.8633C57.5586 31.4707 54.7988 28.7109 51.4062 28.7109Z" fill="white"/>
<path d="M61.4854 33.1357C61.582 33.7 61.6601 34.2715 61.6601 34.863V51.5427C61.6601 52.1343 61.582 52.7058 61.4854 53.27C63.9569 52.4712 65.7616 50.1754 65.7616 47.4412V38.9646C65.7616 36.2304 63.9569 33.9346 61.4854 33.1357Z" fill="white"/>
<path d="M35 0C18.037 0 4.23828 13.7987 4.23828 30.7617V30.8141C5.46014 29.889 6.87381 29.2121 8.43377 28.909C9.3923 15.0734 20.9254 4.10156 35 4.10156C49.0746 4.10156 60.6077 15.0734 61.5662 28.9089C63.1261 29.212 64.5397 29.889 65.7617 30.8139V30.7617C65.7617 13.7987 51.963 0 35 0Z" fill="white"/>
</svg>
